{"glyphs":{"0":{"ha":856,"x_min":65,"x_max":781,"o":"m 679 783 q 753 622 725 713 q 781 436 781 531 q 742 222 781 324 q 628 57 704 121 q 444 -7 553 -7 q 258 45 343 -7 q 131 167 174 97 q 82 283 99 218 q 65 413 65 347 q 113 635 65 526 q 246 808 161 743 q 431 868 326 868 q 679 783 546 868 m 307 688 q 282 650 294 667 q 238 573 251 604 q 213 478 224 542 q 207 410 207 449 q 247 240 207 311 q 356 143 286 168 q 431 131 389 131 q 588 223 535 131 q 642 451 642 315 q 594 659 642 578 q 449 740 547 740 q 380 728 408 740 q 307 688 351 715 z "},"1":{"ha":644,"x_min":75,"x_max":613,"o":"m 435 731 q 421 297 421 458 q 425 139 421 214 q 468 131 436 131 l 500 132 q 536 135 519 135 q 592 122 572 135 q 613 74 613 110 q 592 19 613 39 q 510 0 572 0 q 382 8 457 0 q 347 11 364 10 q 317 13 331 13 q 203 7 240 11 q 118 3 165 3 q 75 68 75 3 q 156 131 75 131 q 196 128 168 131 q 246 124 219 124 q 271 125 261 124 q 281 396 272 218 q 289 704 289 604 q 240 685 282 703 q 146 653 176 653 q 115 670 129 653 q 101 711 101 688 q 131 757 101 735 q 225 815 160 779 q 294 856 261 833 q 319 867 303 861 q 343 872 335 872 q 409 858 379 872 q 439 819 439 843 l 435 731 z "},"2":{"ha":731,"x_min":65,"x_max":700,"o":"m 265 144 q 328 142 313 142 q 412 143 375 142 q 475 146 449 144 q 597 150 543 150 q 675 122 650 150 q 700 49 700 94 q 671 13 700 26 q 611 0 642 0 q 501 6 585 0 q 344 14 401 14 q 272 10 314 14 q 232 7 256 8 q 179 6 208 6 q 94 21 124 6 q 65 76 65 36 q 93 147 65 111 q 171 233 121 183 l 204 267 q 286 347 226 290 q 440 504 385 436 q 494 639 494 572 q 453 709 494 682 q 360 736 413 736 q 244 701 279 736 q 208 599 208 665 q 190 569 208 582 q 143 556 171 556 q 89 583 104 556 q 74 651 74 611 q 113 765 74 715 q 219 842 151 814 q 368 869 286 869 q 490 841 426 869 q 595 765 553 813 q 638 660 638 717 q 594 496 638 574 q 494 358 551 418 q 344 215 436 297 q 265 144 300 178 z "},"3":{"ha":757,"x_min":43,"x_max":701,"o":"m 438 556 q 626 457 551 531 q 701 286 701 383 q 674 172 701 228 q 541 39 629 83 q 338 -6 453 -6 q 208 22 265 -6 q 96 94 151 49 q 59 150 75 114 q 43 210 43 186 q 60 259 43 240 q 107 278 78 278 q 153 264 136 278 q 193 219 169 250 q 233 173 215 190 q 282 143 251 156 q 358 131 313 131 q 504 176 451 131 q 557 306 557 222 q 522 370 557 338 q 457 417 488 403 q 390 436 439 426 q 292 469 325 453 q 260 519 260 485 q 281 566 260 543 q 343 624 301 589 q 406 681 385 658 q 426 728 426 704 q 347 735 400 735 q 276 732 324 735 q 213 729 235 729 q 127 746 163 729 q 92 789 92 763 q 97 835 92 818 q 118 857 103 853 q 153 861 128 861 q 271 857 221 861 q 356 854 326 854 l 471 856 q 613 788 613 856 q 560 672 613 736 q 438 556 508 607 z "},"4":{"ha":835,"x_min":50,"x_max":804,"o":"m 328 833 q 303 676 328 765 q 233 456 279 586 l 201 360 q 250 356 225 356 q 379 364 293 356 q 503 372 465 372 l 501 525 q 499 758 499 683 q 564 857 499 857 q 630 831 615 857 q 644 751 644 804 q 636 583 644 697 q 632 510 635 561 q 629 421 629 458 l 631 376 l 658 378 q 710 381 692 381 q 774 359 743 381 q 804 308 804 338 q 794 254 804 274 q 769 235 783 235 q 710 240 746 235 q 685 242 701 240 q 653 244 668 244 l 629 243 l 631 56 q 611 11 631 26 q 567 -4 592 -4 q 513 15 536 -4 q 489 64 489 35 q 492 210 489 157 q 493 240 493 222 q 349 231 451 242 q 201 219 251 219 q 94 238 138 219 q 50 294 50 256 q 65 386 50 332 q 111 532 81 440 q 132 592 125 568 q 169 712 157 663 q 197 832 182 761 q 221 865 203 854 q 263 876 239 876 q 308 865 288 876 q 328 833 328 853 z "},"5":{"ha":729,"x_min":75,"x_max":692,"o":"m 264 728 q 251 625 254 689 q 243 542 249 569 q 319 563 283 558 q 411 568 356 568 q 561 528 497 568 q 658 423 625 489 q 692 282 692 357 q 672 203 692 253 q 632 128 653 154 q 519 30 583 64 q 381 -4 456 -4 q 277 12 324 -4 q 178 56 231 28 q 99 116 124 85 q 75 194 75 147 q 97 235 75 219 q 138 251 118 251 q 160 244 150 251 q 192 217 169 238 l 226 183 q 292 142 260 156 q 372 128 325 128 q 442 139 415 128 q 524 193 494 160 q 554 300 554 226 q 507 410 554 371 q 347 450 460 450 q 303 442 332 450 q 246 424 274 433 q 164 401 179 401 q 125 418 144 401 q 106 463 106 435 q 131 742 131 631 l 129 776 q 126 818 126 801 q 153 856 126 843 q 210 869 181 869 q 318 861 235 869 l 385 856 q 422 854 397 854 l 474 856 q 518 857 489 857 q 588 844 560 857 q 615 804 615 832 q 601 742 615 761 q 569 722 588 722 q 514 728 553 722 q 393 733 463 733 q 264 728 344 733 z "},"6":{"ha":735,"x_min":68,"x_max":682,"o":"m 436 736 q 356 690 389 718 q 296 621 322 661 l 274 586 q 236 525 249 549 q 219 475 224 501 q 414 544 288 544 q 528 514 468 544 q 626 443 589 483 q 666 363 650 417 q 682 247 682 308 q 653 148 682 199 q 581 60 624 97 q 503 13 539 22 q 407 -1 447 -1 q 238 49 315 -1 q 114 183 160 99 q 68 365 68 267 q 134 626 68 501 q 308 828 200 750 q 373 855 326 840 q 456 869 419 869 q 524 815 524 869 q 501 765 524 783 q 436 736 478 747 m 381 126 q 435 130 413 126 q 475 144 457 133 q 524 191 503 164 q 546 243 546 218 q 499 378 546 339 q 390 418 453 417 q 317 401 358 418 q 248 356 276 383 q 219 301 219 328 q 245 202 219 242 q 308 144 271 163 q 381 126 346 126 z "},"7":{"ha":689,"x_min":15,"x_max":657,"o":"m 657 811 q 612 643 639 726 q 543 451 585 560 q 443 144 472 261 q 399 31 419 65 q 350 -4 378 -4 q 290 22 328 -4 q 281 57 281 35 q 290 110 281 75 q 314 189 300 146 l 331 239 q 392 400 349 299 q 449 550 424 478 q 500 722 475 622 q 357 700 428 700 q 251 710 322 700 q 168 718 193 718 q 189 639 169 697 q 213 549 213 579 q 200 518 213 531 q 160 506 188 506 q 105 528 124 506 q 74 581 86 551 q 57 622 63 611 q 26 715 38 667 q 15 800 15 763 q 27 839 15 822 q 54 856 39 856 q 117 844 75 853 q 228 827 183 833 q 325 821 274 821 q 519 865 451 821 q 549 871 529 871 q 621 853 585 871 q 657 811 657 836 z "},"8":{"ha":761,"x_min":63,"x_max":718,"o":"m 531 460 q 667 371 615 426 q 718 243 718 315 q 709 191 718 222 q 685 138 700 160 q 361 -4 593 -4 q 151 45 240 -4 q 63 193 63 94 q 256 433 63 333 q 75 631 75 500 q 119 764 75 710 q 237 844 164 818 q 396 871 310 871 q 526 841 460 871 q 618 764 593 811 q 643 665 643 711 q 619 556 643 606 q 531 460 594 506 m 386 501 q 455 549 431 531 q 497 595 479 568 q 514 658 514 622 q 481 728 514 700 q 400 756 447 756 q 259 721 299 756 q 219 639 219 686 q 244 576 219 601 q 301 535 269 550 q 386 501 332 521 m 571 253 q 541 303 571 276 q 471 349 511 329 q 403 376 431 369 q 299 315 356 357 q 229 253 242 272 q 210 220 215 233 q 206 189 206 207 q 231 149 206 168 q 290 119 256 131 q 350 108 325 108 q 510 148 449 108 q 571 253 571 188 z "},"9":{"ha":726,"x_min":53,"x_max":657,"o":"m 292 136 q 383 192 339 151 q 456 283 426 232 q 492 381 486 333 q 413 342 453 353 q 319 331 372 331 q 203 355 249 331 q 106 425 157 379 q 85 462 97 433 q 63 533 72 490 q 53 619 53 575 q 78 704 53 660 q 141 784 103 749 q 214 835 179 819 q 288 859 246 849 q 360 869 331 869 q 526 824 458 869 q 625 701 593 778 q 657 532 657 625 q 586 241 657 372 q 407 38 515 110 q 345 10 389 25 q 265 -4 301 -4 q 217 21 238 -4 q 196 78 196 46 q 211 109 196 100 q 261 128 226 118 l 292 136 m 360 751 q 308 742 338 751 q 257 721 278 733 q 212 678 233 707 q 190 635 190 650 q 338 453 190 453 q 412 467 371 453 q 481 508 453 482 q 508 568 508 535 q 470 706 508 660 q 360 751 432 751 z "},"\r":{"ha":361,"x_min":0,"x_max":0,"o":""}," ":{"ha":313,"x_min":0,"x_max":0,"o":""},"A":{"ha":889,"x_min":22,"x_max":867,"o":"m 733 21 q 703 73 715 44 q 676 142 690 101 q 660 183 674 149 q 631 243 647 218 q 488 231 543 231 q 420 233 457 231 q 365 235 383 235 q 254 240 296 240 q 226 193 238 218 q 196 118 214 168 q 153 15 171 46 q 104 -6 140 -6 q 48 8 74 -6 q 22 44 22 21 q 58 156 33 97 q 128 314 82 215 l 183 450 q 267 650 229 567 q 368 847 306 733 q 396 876 376 864 q 439 888 415 888 q 477 884 465 888 q 496 873 489 881 q 517 842 503 865 q 598 690 564 768 q 685 475 632 613 l 714 401 q 781 234 753 301 q 844 111 810 167 q 867 61 867 75 q 847 10 867 28 q 794 -7 826 -7 q 733 21 754 -7 m 590 357 q 526 521 568 404 q 440 719 483 646 q 363 547 414 653 q 283 358 328 482 q 475 347 372 347 q 590 357 549 347 z "},"Á":{"ha":889,"x_min":22,"x_max":867,"o":"m 515 1169 q 562 1157 544 1169 q 579 1125 579 1144 q 544 1052 579 1088 q 469 994 508 1017 q 416 974 449 982 q 367 965 383 965 q 338 993 338 965 q 343 1008 338 1001 q 367 1029 349 1015 q 384 1045 372 1035 q 407 1070 396 1056 q 429 1110 418 1085 q 466 1156 446 1143 q 515 1169 486 1169 m 733 21 q 703 73 715 44 q 676 142 690 101 q 660 183 674 149 q 631 243 647 218 q 488 231 543 231 q 420 233 457 231 q 365 235 383 235 q 254 240 296 240 q 226 193 238 218 q 196 118 214 168 q 153 15 171 46 q 104 -6 140 -6 q 48 8 74 -6 q 22 44 22 21 q 58 156 33 97 q 128 314 82 215 l 183 450 q 267 650 229 567 q 368 847 306 733 q 396 876 376 864 q 439 888 415 888 q 477 884 465 888 q 496 873 489 881 q 517 842 503 865 q 598 690 564 768 q 685 475 632 613 l 714 401 q 781 234 753 301 q 844 111 810 167 q 867 61 867 75 q 847 10 867 28 q 794 -7 826 -7 q 733 21 754 -7 m 590 357 q 526 521 568 404 q 440 719 483 646 q 363 547 414 653 q 283 358 328 482 q 475 347 372 347 q 590 357 549 347 z "},"Ă":{"ha":889,"x_min":22,"x_max":867,"o":"m 260 1106 q 252 1124 256 1113 q 249 1142 249 1135 q 264 1159 249 1150 q 296 1168 279 1168 q 340 1143 313 1168 q 383 1107 361 1121 q 442 1093 406 1093 q 500 1107 475 1093 q 549 1147 525 1121 q 572 1168 561 1163 q 596 1174 582 1174 q 622 1165 607 1174 q 636 1143 636 1156 q 628 1111 636 1128 q 565 1027 606 1063 q 444 992 525 992 q 260 1106 328 992 m 733 21 q 794 -7 754 -7 q 847 10 826 -7 q 867 61 867 28 q 844 111 867 75 q 781 234 810 167 q 714 401 753 301 l 685 475 q 598 690 632 613 q 517 842 564 768 q 496 873 503 865 q 477 884 489 881 q 439 888 465 888 q 396 876 415 888 q 368 847 376 864 q 267 650 306 733 q 183 450 229 567 l 128 314 q 58 156 82 215 q 22 44 33 97 q 48 8 22 21 q 104 -6 74 -6 q 153 15 140 -6 q 196 118 171 46 q 226 193 214 168 q 254 240 238 218 q 365 235 296 240 q 420 233 383 235 q 488 231 457 231 q 631 243 543 231 q 660 183 647 218 q 676 142 674 149 q 703 73 690 101 q 733 21 715 44 m 590 357 q 475 347 549 347 q 283 358 372 347 q 363 547 328 482 q 440 719 414 653 q 526 521 483 646 q 590 357 568 404 z "},"Ắ":{"ha":889,"x_min":22,"x_max":867,"o":"m 535 1272 q 588 1229 588 1272 q 559 1176 588 1206 q 491 1124 531 1146 q 424 1103 451 1103 q 403 1110 410 1103 q 396 1131 396 1118 q 403 1145 396 1138 q 422 1163 410 1153 q 461 1217 443 1183 q 491 1260 475 1249 q 535 1272 507 1272 m 261 1057 q 251 1092 251 1076 q 264 1109 251 1100 q 293 1118 276 1118 q 311 1113 303 1118 q 333 1093 319 1107 q 379 1059 350 1075 q 444 1043 408 1043 q 561 1099 514 1043 q 584 1119 574 1113 q 608 1125 594 1125 q 628 1116 618 1125 q 638 1094 638 1107 q 631 1063 638 1076 q 568 982 608 1015 q 447 949 528 949 q 261 1057 326 949 m 733 21 q 703 73 715 44 q 676 142 690 101 q 660 183 674 149 q 631 243 647 218 q 488 231 543 231 q 420 233 457 231 q 365 235 383 235 q 254 240 296 240 q 226 193 238 218 q 196 118 214 168 q 153 15 171 46 q 104 -6 140 -6 q 48 8 74 -6 q 22 44 22 21 q 58 156 33 97 q 128 314 82 215 l 183 450 q 267 650 229 567 q 368 847 306 733 q 396 876 376 864 q 439 888 415 888 q 477 884 465 888 q 496 873 489 881 q 517 842 503 865 q 598 690 564 768 q 685 475 632 613 l 714 401 q 781 234 753 301 q 844 111 810 167 q 867 61 867 75 q 847 10 867 28 q 794 -7 826 -7 q 733 21 754 -7 m 590 357 q 526 521 568 404 q 440 719 483 646 q 363 547 414 653 q 283 358 328 482 q 475 347 372 347 q 590 357 549 347 z "},"Ặ":{"ha":889,"x_min":22,"x_max":867,"o":"m 258 1067 q 251 1085 254 1074 q 247 1103 247 1096 q 263 1120 247 1111 q 294 1129 278 1129 q 339 1104 311 1129 q 382 1068 360 1082 q 440 1054 404 1054 q 499 1068 474 1054 q 547 1108 524 1082 q 570 1129 560 1124 q 594 1135 581 1135 q 620 1126 606 1135 q 635 1104 635 1117 q 626 1072 635 1089 q 564 988 604 1024 q 443 953 524 953 q 258 1067 326 953 m 733 21 q 703 73 715 44 q 676 142 690 101 q 660 183 674 149 q 631 243 647 218 q 488 231 543 231 q 420 233 457 231 q 365 235 383 235 q 254 240 296 240 q 226 193 238 218 q 196 118 214 168 q 153 15 171 46 q 104 -6 140 -6 q 48 8 74 -6 q 22 44 22 21 q 58 156 33 97 q 128 314 82 215 l 183 450 q 267 650 229 567 q 368 847 306 733 q 396 876 376 864 q 439 888 415 888 q 477 884 465 888 q 496 873 489 881 q 517 842 503 865 q 598 690 564 768 q 685 475 632 613 l 714 401 q 781 234 753 301 q 844 111 810 167 q 867 61 867 75 q 847 10 867 28 q 794 -7 826 -7 q 733 21 754 -7 m 590 357 q 526 521 568 404 q 440 719 483 646 q 363 547 414 653 q 283 358 328 482 q 475 347 372 347 q 590 357 549 347 m 514 -147 q 488 -200 514 -181 q 433 -219 463 -219 q 385 -203 404 -219 q 365 -161 365 -187 q 389 -101 365 -121 q 447 -82 413 -82 q 514 -147 514 -82 z "},"Ằ":{"ha":889,"x_min":22,"x_max":867,"o":"m 353 1275 q 396 1263 379 1275 q 426 1219 413 1251 q 465 1165 442 1188 q 485 1148 478 1156 q 492 1133 492 1140 q 485 1113 492 1121 q 464 1106 478 1106 q 397 1127 436 1106 q 328 1178 357 1149 q 299 1232 299 1208 q 353 1275 299 1275 m 260 1060 q 250 1094 250 1079 q 263 1112 250 1103 q 292 1121 275 1121 q 310 1115 301 1121 q 332 1096 318 1110 q 378 1062 349 1078 q 443 1046 407 1046 q 560 1101 513 1046 q 583 1122 572 1115 q 607 1128 593 1128 q 626 1119 617 1128 q 636 1097 636 1110 q 629 1065 636 1079 q 567 985 607 1018 q 446 951 526 951 q 260 1060 325 951 m 733 21 q 703 73 715 44 q 676 142 690 101 q 660 183 674 149 q 631 243 647 218 q 488 231 543 231 q 420 233 457 231 q 365 235 383 235 q 254 240 296 240 q 226 193 238 218 q 196 118 214 168 q 153 15 171 46 q 104 -6 140 -6 q 48 8 74 -6 q 22 44 22 21 q 58 156 33 97 q 128 314 82 215 l 183 450 q 267 650 229 567 q 368 847 306 733 q 396 876 376 864 q 439 888 415 888 q 477 884 465 888 q 496 873 489 881 q 517 842 503 865 q 598 690 564 768 q 685 475 632 613 l 714 401 q 781 234 753 301 q 844 111 810 167 q 867 61 867 75 q 847 10 867 28 q 794 -7 826 -7 q 733 21 754 -7 m 590 357 q 526 521 568 404 q 440 719 483 646 q 363 547 414 653 q 283 358 328 482 q 475 347 372 347 q 590 357 549 347 z "},"Ẳ":{"ha":889,"x_min":22,"x_max":867,"o":"m 364 1236 q 343 1246 351 1236 q 335 1269 335 1256 q 376 1310 335 1297 q 453 1324 418 1324 q 532 1292 488 1324 q 549 1271 540 1288 q 557 1236 557 1254 q 541 1176 557 1194 q 486 1144 525 1158 q 472 1128 472 1139 q 478 1113 472 1122 q 483 1101 483 1104 q 474 1085 483 1093 q 450 1078 464 1078 q 413 1084 426 1078 q 394 1108 400 1090 q 390 1121 393 1111 q 386 1136 386 1131 q 406 1169 386 1158 q 431 1184 413 1175 q 460 1202 450 1193 q 471 1226 471 1211 q 428 1254 471 1254 q 390 1245 414 1254 q 364 1236 367 1236 m 260 1056 q 252 1072 256 1061 q 249 1090 249 1082 q 261 1108 249 1099 q 290 1117 274 1117 q 308 1111 300 1117 q 331 1092 317 1106 q 442 1042 381 1042 q 558 1097 511 1042 q 581 1117 571 1111 q 606 1124 592 1124 q 626 1115 615 1124 q 636 1093 636 1106 q 628 1061 636 1078 q 565 981 606 1014 q 444 947 525 947 q 260 1056 322 947 m 733 21 q 703 73 715 44 q 676 142 690 101 q 660 183 674 149 q 631 243 647 218 q 488 231 543 231 q 420 233 457 231 q 365 235 383 235 q 254 240 296 240 q 226 193 238 218 q 196 118 214 168 q 153 15 171 46 q 104 -6 140 -6 q 48 8 74 -6 q 22 44 22 21 q 58 156 33 97 q 128 314 82 215 l 183 450 q 267 650 229 567 q 368 847 306 733 q 396 876 376 864 q 439 888 415 888 q 477 884 465 888 q 496 873 489 881 q 517 842 503 865 q 598 690 564 768 q 685 475 632 613 l 714 401 q 781 234 753 301 q 844 111 810 167 q 867 61 867 75 q 847 10 867 28 q 794 -7 826 -7 q 733 21 754 -7 m 590 357 q 526 521 568 404 q 440 719 483 646 q 363 547 414 653 q 283 358 328 482 q 475 347 372 347 q 590 357 549 347 z "},"Ẵ":{"ha":889,"x_min":22,"x_max":867,"o":"m 236 1197 q 257 1258 236 1231 q 310 1300 278 1285 q 375 1315 343 1315 q 469 1283 424 1315 q 526 1257 501 1257 q 547 1263 540 1257 q 558 1277 554 1269 q 565 1289 563 1285 q 607 1314 583 1314 q 635 1303 622 1314 q 649 1272 649 1292 q 609 1197 649 1232 q 525 1163 569 1163 q 478 1171 499 1163 q 435 1194 458 1179 q 403 1213 415 1207 q 379 1218 392 1218 q 352 1213 363 1218 q 331 1189 342 1207 q 278 1158 311 1158 q 251 1169 265 1158 q 236 1197 236 1181 m 264 1058 q 256 1074 260 1064 q 253 1093 253 1085 q 265 1110 253 1101 q 294 1119 278 1119 q 313 1114 304 1119 q 335 1094 321 1108 q 446 1044 385 1044 q 563 1100 515 1044 q 585 1120 575 1114 q 610 1126 596 1126 q 630 1117 619 1126 q 640 1096 640 1108 q 632 1064 640 1081 q 569 983 610 1017 q 449 950 529 950 q 264 1058 326 950 m 733 21 q 703 73 715 44 q 676 142 690 101 q 660 183 674 149 q 631 243 647 218 q 488 231 543 231 q 420 233 457 231 q 365 235 383 235 q 254 240 296 240 q 226 193 238 218 q 196 118 214 168 q 153 15 171 46 q 104 -6 140 -6 q 48 8 74 -6 q 22 44 22 21 q 58 156 33 97 q 128 314 82 215 l 183 450 q 267 650 229 567 q 368 847 306 733 q 396 876 376 864 q 439 888 415 888 q 477 884 465 888 q 496 873 489 881 q 517 842 503 865 q 598 690 564 768 q 685 475 632 613 l 714 401 q 781 234 753 301 q 844 111 810 167 q 867 61 867 75 q 847 10 867 28 q 794 -7 826 -7 q 733 21 754 -7 m 590 357 q 526 521 568 404 q 440 719 483 646 q 363 547 414 653 q 283 358 328 482 q 475 347 372 347 q 590 357 549 347 z "},"Ǎ":{"ha":889,"x_min":22,"x_max":867,"o":"m 443 975 q 395 984 413 975 q 357 1014 378 993 q 268 1107 333 1035 q 246 1133 254 1122 q 238 1151 238 1144 q 256 1176 238 1163 q 292 1189 274 1189 q 347 1172 324 1189 q 397 1119 369 1154 q 415 1098 403 1113 q 440 1074 428 1083 q 500 1133 460 1089 q 542 1176 526 1163 q 575 1189 558 1189 q 622 1176 599 1189 q 644 1151 644 1163 q 589 1081 644 1133 q 517 1003 542 1035 q 489 983 508 992 q 443 975 469 975 m 733 21 q 703 73 715 44 q 676 142 690 101 q 660 183 674 149 q 631 243 647 218 q 488 231 543 231 q 420 233 457 231 q 365 235 383 235 q 254 240 296 240 q 226 193 238 218 q 196 118 214 168 q 153 15 171 46 q 104 -6 140 -6 q 48 8 74 -6 q 22 44 22 21 q 58 156 33 97 q 128 314 82 215 l 183 450 q 267 650 229 567 q 368 847 306 733 q 396 876 376 864 q 439 888 415 888 q 477 884 465 888 q 496 873 489 881 q 517 842 503 865 q 598 690 564 768 q 685 475 632 613 l 714 401 q 781 234 753 301 q 844 111 810 167 q 867 61 867 75 q 847 10 867 28 q 794 -7 826 -7 q 733 21 754 -7 m 590 357 q 526 521 568 404 q 440 719 483 646 q 363 547 414 653 q 283 358 328 482 q 475 347 372 347 q 590 357 549 347 z "},"Â":{"ha":889,"x_min":22,"x_max":867,"o":"m 442 1164 q 492 1154 474 1164 q 524 1122 510 1144 q 565 1075 538 1101 q 617 1032 593 1049 q 647 988 647 1010 q 635 963 647 975 q 606 950 622 950 q 520 982 558 950 q 444 1067 482 1014 q 368 988 415 1025 q 282 950 321 950 q 250 962 260 950 q 240 988 240 974 q 258 1020 240 999 q 296 1058 275 1042 q 364 1128 335 1090 q 393 1153 376 1143 q 442 1164 410 1164 m 733 21 q 703 73 715 44 q 676 142 690 101 q 660 183 674 149 q 631 243 647 218 q 488 231 543 231 q 420 233 457 231 q 365 235 383 235 q 254 240 296 240 q 226 193 238 218 q 196 118 214 168 q 153 15 171 46 q 104 -6 140 -6 q 48 8 74 -6 q 22 44 22 21 q 58 156 33 97 q 128 314 82 215 l 183 450 q 267 650 229 567 q 368 847 306 733 q 396 876 376 864 q 439 888 415 888 q 477 884 465 888 q 496 873 489 881 q 517 842 503 865 q 598 690 564 768 q 685 475 632 613 l 714 401 q 781 234 753 301 q 844 111 810 167 q 867 61 867 75 q 847 10 867 28 q 794 -7 826 -7 q 733 21 754 -7 m 590 357 q 526 521 568 404 q 440 719 483 646 q 363 547 414 653 q 283 358 328 482 q 475 347 372 347 q 590 357 549 347 z "},"Ấ":{"ha":889,"x_min":22,"x_max":867,"o":"m 721 1249 q 775 1206 775 1249 q 746 1152 775 1182 q 677 1101 717 1122 q 610 1079 638 1079 q 590 1087 597 1079 q 582 1107 582 1094 q 587 1118 582 1113 q 598 1129 592 1124 q 608 1139 604 1135 q 647 1193 632 1161 q 678 1237 663 1225 q 721 1249 694 1249 m 442 1153 q 492 1143 474 1153 q 524 1113 510 1133 q 564 1070 538 1094 q 614 1031 590 1046 q 644 988 644 1010 q 633 965 644 976 q 604 953 621 953 q 521 983 558 953 q 443 1063 483 1013 q 369 988 415 1024 q 282 953 322 953 q 252 964 261 953 q 243 988 243 975 q 260 1017 243 999 q 297 1053 276 1036 q 364 1119 342 1089 q 393 1143 376 1133 q 442 1153 410 1153 m 733 21 q 703 73 715 44 q 676 142 690 101 q 660 183 674 149 q 631 243 647 218 q 488 231 543 231 q 420 233 457 231 q 365 235 383 235 q 254 240 296 240 q 226 193 238 218 q 196 118 214 168 q 153 15 171 46 q 104 -6 140 -6 q 48 8 74 -6 q 22 44 22 21 q 58 156 33 97 q 128 314 82 215 l 183 450 q 267 650 229 567 q 368 847 306 733 q 396 876 376 864 q 439 888 415 888 q 477 884 465 888 q 496 873 489 881 q 517 842 503 865 q 598 690 564 768 q 685 475 632 613 l 714 401 q 781 234 753 301 q 844 111 810 167 q 867 61 867 75 q 847 10 867 28 q 794 -7 826 -7 q 733 21 754 -7 m 590 357 q 526 521 568 404 q 440 719 483 646 q 363 547 414 653 q 283 358 328 482 q 475 347 372 347 q 590 357 549 347 z "},"Ậ":{"ha":889,"x_min":22,"x_max":867,"o":"m 439 1164 q 489 1154 471 1164 q 521 1122 507 1144 q 563 1075 535 1101 q 614 1032 590 1049 q 644 988 644 1010 q 632 963 644 975 q 603 950 619 950 q 517 982 556 950 q 442 1067 479 1014 q 365 988 413 1025 q 279 950 318 950 q 247 962 257 950 q 238 988 238 974 q 255 1020 238 999 q 293 1058 272 1042 q 361 1128 332 1090 q 390 1153 374 1143 q 439 1164 407 1164 m 733 21 q 703 73 715 44 q 676 142 690 101 q 660 183 674 149 q 631 243 647 218 q 488 231 543 231 q 420 233 457 231 q 365 235 383 235 q 254 240 296 240 q 226 193 238 218 q 196 118 214 168 q 153 15 171 46 q 104 -6 140 -6 q 48 8 74 -6 q 22 44 22 21 q 58 156 33 97 q 128 314 82 215 l 183 450 q 267 650 229 567 q 368 847 306 733 q 396 876 376 864 q 439 888 415 888 q 477 884 465 888 q 496 873 489 881 q 517 842 503 865 q 598 690 564 768 q 685 475 632 613 l 714 401 q 781 234 753 301 q 844 111 810 167 q 867 61 867 75 q 847 10 867 28 q 794 -7 826 -7 q 733 21 754 -7 m 590 357 q 526 521 568 404 q 440 719 483 646 q 363 547 414 653 q 283 358 328 482 q 475 347 372 347 q 590 357 549 347 m 515 -147 q 490 -200 515 -181 q 435 -219 464 -219 q 386 -203 406 -219 q 367 -161 367 -187 q 390 -101 367 -121 q 449 -82 414 -82 q 515 -147 515 -82 z "},"Ầ":{"ha":889,"x_min":22,"x_max":867,"o":"m 168 1249 q 210 1237 194 1249 q 242 1193 226 1225 q 281 1139 257 1161 q 299 1121 292 1128 q 306 1107 306 1114 q 299 1087 306 1094 q 279 1079 292 1079 q 212 1101 251 1079 q 143 1152 172 1122 q 114 1206 114 1182 q 168 1249 114 1249 m 444 1153 q 494 1144 476 1153 q 528 1113 513 1135 q 567 1070 540 1094 q 618 1031 594 1046 q 649 988 649 1008 q 636 965 649 976 q 607 953 624 953 q 524 983 561 953 q 447 1063 488 1013 q 372 988 419 1024 q 286 953 325 953 q 256 964 265 953 q 246 988 246 975 q 301 1053 246 1007 q 368 1119 351 1094 q 444 1153 388 1153 m 733 21 q 703 73 715 44 q 676 142 690 101 q 660 183 674 149 q 631 243 647 218 q 488 231 543 231 q 420 233 457 231 q 365 235 383 235 q 254 240 296 240 q 226 193 238 218 q 196 118 214 168 q 153 15 171 46 q 104 -6 140 -6 q 48 8 74 -6 q 22 44 22 21 q 58 156 33 97 q 128 314 82 215 l 183 450 q 267 650 229 567 q 368 847 306 733 q 396 876 376 864 q 439 888 415 888 q 477 884 465 888 q 496 873 489 881 q 517 842 503 865 q 598 690 564 768 q 685 475 632 613 l 714 401 q 781 234 753 301 q 844 111 810 167 q 867 61 867 75 q 847 10 867 28 q 794 -7 826 -7 q 733 21 754 -7 m 590 357 q 526 521 568 404 q 440 719 483 646 q 363 547 414 653 q 283 358 328 482 q 475 347 372 347 q 590 357 549 347 z "},"Ẩ":{"ha":889,"x_min":22,"x_max":867,"o":"m 571 1232 q 550 1242 558 1232 q 542 1265 542 1251 q 583 1308 542 1294 q 661 1322 625 1322 q 742 1289 696 1322 q 759 1267 751 1283 q 767 1233 767 1251 q 751 1173 767 1192 q 694 1139 735 1154 q 681 1124 681 1133 q 686 1108 681 1117 q 693 1097 692 1100 q 683 1080 693 1088 q 658 1072 672 1072 q 622 1078 635 1072 q 603 1101 608 1083 q 599 1113 601 1104 q 596 1131 596 1122 q 614 1165 596 1154 q 640 1180 621 1171 q 669 1198 658 1189 q 679 1224 679 1207 q 668 1245 679 1240 q 636 1250 657 1250 q 599 1241 622 1250 q 571 1232 575 1232 m 446 1153 q 495 1143 478 1153 q 528 1113 513 1133 q 568 1070 542 1094 q 618 1031 594 1046 q 649 988 649 1010 q 637 965 649 976 q 608 953 625 953 q 525 983 563 953 q 447 1063 488 1013 q 373 988 419 1024 q 286 953 326 953 q 256 964 265 953 q 246 988 246 975 q 301 1053 246 1007 q 368 1119 351 1094 q 446 1153 388 1153 m 733 21 q 703 73 715 44 q 676 142 690 101 q 660 183 674 149 q 631 243 647 218 q 488 231 543 231 q 420 233 457 231 q 365 235 383 235 q 254 240 296 240 q 226 193 238 218 q 196 118 214 168 q 153 15 171 46 q 104 -6 140 -6 q 48 8 74 -6 q 22 44 22 21 q 58 156 33 97 q 128 314 82 215 l 183 450 q 267 650 229 567 q 368 847 306 733 q 396 876 376 864 q 439 888 415 888 q 477 884 465 888 q 496 873 489 881 q 517 842 503 865 q 598 690 564 768 q 685 475 632 613 l 714 401 q 781 234 753 301 q 844 111 810 167 q 867 61 867 75 q 847 10 867 28 q 794 -7 826 -7 q 733 21 754 -7 m 590 357 q 526 521 568 404 q 440 719 483 646 q 363 547 414 653 q 283 358 328 482 q 475 347 372 347 q 590 357 549 347 z "},"Ẫ":{"ha":889,"x_min":22,"x_max":867,"o":"m 238 1208 q 258 1269 238 1242 q 312 1311 279 1296 q 376 1326 344 1326 q 471 1294 425 1326 q 526 1268 503 1268 q 548 1274 540 1268 q 560 1289 556 1281 q 567 1300 564 1297 q 608 1325 585 1325 q 637 1314 624 1325 q 650 1283 650 1303 q 610 1208 650 1243 q 526 1174 571 1174 q 480 1182 500 1174 q 436 1206 460 1190 q 405 1224 417 1218 q 381 1229 393 1229 q 353 1224 364 1229 q 332 1200 343 1218 q 278 1169 313 1169 q 251 1181 265 1169 q 238 1208 238 1192 m 440 1153 q 490 1144 472 1153 q 524 1113 508 1135 q 563 1070 536 1094 q 614 1031 590 1046 q 644 988 644 1008 q 632 965 644 976 q 603 953 619 953 q 520 983 557 953 q 443 1063 483 1013 q 368 988 415 1024 q 282 953 321 953 q 251 964 261 953 q 242 988 242 975 q 297 1053 242 1007 q 364 1119 347 1094 q 440 1153 383 1153 m 733 21 q 703 73 715 44 q 676 142 690 101 q 660 183 674 149 q 631 243 647 218 q 488 231 543 231 q 420 233 457 231 q 365 235 383 235 q 254 240 296 240 q 226 193 238 218 q 196 118 214 168 q 153 15 171 46 q 104 -6 140 -6 q 48 8 74 -6 q 22 44 22 21 q 58 156 33 97 q 128 314 82 215 l 183 450 q 267 650 229 567 q 368 847 306 733 q 396 876 376 864 q 439 888 415 888 q 477 884 465 888 q 496 873 489 881 q 517 842 503 865 q 598 690 564 768 q 685 475 632 613 l 714 401 q 781 234 753 301 q 844 111 810 167 q 867 61 867 75 q 847 10 867 28 q 794 -7 826 -7 q 733 21 754 -7 m 590 357 q 526 521 568 404 q 440 719 483 646 q 363 547 414 653 q 283 358 328 482 q 475 347 372 347 q 590 357 549 347 z "},"Ȁ":{"ha":889,"x_min":22,"x_max":867,"o":"m 240 1200 q 273 1192 263 1200 q 294 1167 283 1183 q 311 1142 306 1150 q 324 1123 318 1131 q 335 1110 331 1115 q 349 1090 339 1104 q 367 1064 360 1076 q 381 1021 381 1036 q 369 1006 381 1011 q 343 1001 358 1001 q 316 1008 329 1001 q 282 1036 303 1015 q 181 1168 181 1138 q 195 1193 181 1186 q 240 1200 210 1200 m 443 1200 q 476 1192 465 1200 q 499 1167 488 1183 q 515 1142 510 1150 l 538 1113 q 569 1064 558 1085 q 583 1021 583 1036 q 573 1006 583 1011 q 546 1001 563 1001 q 519 1008 532 1001 q 486 1036 507 1015 q 413 1114 443 1079 q 383 1168 383 1149 q 398 1193 383 1186 q 443 1200 413 1200 m 733 21 q 703 73 715 44 q 676 142 690 101 q 660 183 674 149 q 631 243 647 218 q 488 231 543 231 q 420 233 457 231 q 365 235 383 235 q 254 240 296 240 q 226 193 238 218 q 196 118 214 168 q 153 15 171 46 q 104 -6 140 -6 q 48 8 74 -6 q 22 44 22 21 q 58 156 33 97 q 128 314 82 215 l 183 450 q 267 650 229 567 q 368 847 306 733 q 396 876 376 864 q 439 888 415 888 q 477 884 465 888 q 496 873 489 881 q 517 842 503 865 q 598 690 564 768 q 685 475 632 613 l 714 401 q 781 234 753 301 q 844 111 810 167 q 867 61 867 75 q 847 10 867 28 q 794 -7 826 -7 q 733 21 754 -7 m 590 357 q 526 521 568 404 q 440 719 483 646 q 363 547 414 653 q 283 358 328 482 q 475 347 372 347 q 590 357 549 347 z "},"Ä":{"ha":889,"x_min":22,"x_max":867,"o":"m 297 1125 q 366 1106 336 1125 q 396 1050 396 1088 q 373 1008 396 1024 q 315 993 350 993 q 269 1010 282 993 q 256 1047 256 1028 q 263 1102 256 1079 q 297 1125 271 1125 m 532 1125 q 599 1106 569 1125 q 629 1050 629 1088 q 606 1008 629 1024 q 549 993 583 993 q 502 1010 515 993 q 489 1047 489 1028 q 497 1102 489 1079 q 532 1125 504 1125 m 733 21 q 703 73 715 44 q 676 142 690 101 q 660 183 674 149 q 631 243 647 218 q 488 231 543 231 q 420 233 457 231 q 365 235 383 235 q 254 240 296 240 q 226 193 238 218 q 196 118 214 168 q 153 15 171 46 q 104 -6 140 -6 q 48 8 74 -6 q 22 44 22 21 q 58 156 33 97 q 128 314 82 215 l 183 450 q 267 650 229 567 q 368 847 306 733 q 396 876 376 864 q 439 888 415 888 q 477 884 465 888 q 496 873 489 881 q 517 842 503 865 q 598 690 564 768 q 685 475 632 613 l 714 401 q 781 234 753 301 q 844 111 810 167 q 867 61 867 75 q 847 10 867 28 q 794 -7 826 -7 q 733 21 754 -7 m 590 357 q 526 521 568 404 q 440 719 483 646 q 363 547 414 653 q 283 358 328 482 q 475 347 372 347 q 590 357 549 347 z "},"Ạ":{"ha":889,"x_min":22,"x_max":867,"o":"m 733 21 q 703 73 715 44 q 676 142 690 101 q 660 183 674 149 q 631 243 647 218 q 488 231 543 231 q 420 233 457 231 q 365 235 383 235 q 254 240 296 240 q 226 193 238 218 q 196 118 214 168 q 153 15 171 46 q 104 -6 140 -6 q 48 8 74 -6 q 22 44 22 21 q 58 156 33 97 q 128 314 82 215 l 183 450 q 267 650 229 567 q 368 847 306 733 q 396 876 376 864 q 439 888 415 888 q 477 884 465 888 q 496 873 489 881 q 517 842 503 865 q 598 690 564 768 q 685 475 632 613 l 714 401 q 781 234 753 301 q 844 111 810 167 q 867 61 867 75 q 847 10 867 28 q 794 -7 826 -7 q 733 21 754 -7 m 590 357 q 526 521 568 404 q 440 719 483 646 q 363 547 414 653 q 283 358 328 482 q 475 347 372 347 q 590 357 549 347 m 517 -147 q 491 -200 517 -181 q 436 -219 465 -219 q 388 -203 407 -219 q 368 -161 368 -187 q 392 -101 368 -121 q 450 -82 415 -82 q 517 -147 517 -82 z "},"À":{"ha":889,"x_min":22,"x_max":867,"o":"m 360 1169 q 408 1156 389 1169 q 444 1110 428 1143 q 470 1066 458 1081 q 492 1042 482 1051 q 508 1029 503 1033 q 531 1008 525 1015 q 536 993 536 1001 q 529 973 536 981 q 508 965 522 965 q 458 974 490 965 q 404 994 425 982 q 329 1053 364 1018 q 294 1125 294 1088 q 313 1157 294 1144 q 360 1169 331 1169 m 733 21 q 703 73 715 44 q 676 142 690 101 q 660 183 674 149 q 631 243 647 218 q 488 231 543 231 q 420 233 457 231 q 365 235 383 235 q 254 240 296 240 q 226 193 238 218 q 196 118 214 168 q 153 15 171 46 q 104 -6 140 -6 q 48 8 74 -6 q 22 44 22 21 q 58 156 33 97 q 128 314 82 215 l 183 450 q 267 650 229 567 q 368 847 306 733 q 396 876 376 864 q 439 888 415 888 q 477 884 465 888 q 496 873 489 881 q 517 842 503 865 q 598 690 564 768 q 685 475 632 613 l 714 401 q 781 234 753 301 q 844 111 810 167 q 867 61 867 75 q 847 10 867 28 q 794 -7 826 -7 q 733 21 754 -7 m 590 357 q 526 521 568 404 q 440 719 483 646 q 363 547 414 653 q 283 358 328 482 q 475 347 372 347 q 590 357 549 347 z "},"Ả":{"ha":889,"x_min":22,"x_max":867,"o":"m 358 1147 q 333 1158 343 1147 q 322 1185 322 1169 q 372 1240 322 1222 q 464 1257 421 1257 q 558 1215 504 1257 q 578 1188 568 1208 q 588 1146 588 1168 q 565 1070 588 1094 q 492 1025 542 1046 q 478 1008 478 1019 q 487 988 478 1000 q 496 971 496 975 q 488 950 496 960 q 465 940 481 940 q 394 979 406 940 q 390 996 393 983 q 386 1017 386 1008 q 408 1061 386 1043 q 424 1071 414 1067 q 439 1078 435 1075 q 478 1100 464 1089 q 492 1132 492 1111 q 477 1168 492 1161 q 435 1175 463 1175 q 390 1161 418 1175 q 358 1147 363 1147 m 733 21 q 703 73 715 44 q 676 142 690 101 q 660 183 674 149 q 631 243 647 218 q 488 231 543 231 q 420 233 457 231 q 365 235 383 235 q 254 240 296 240 q 226 193 238 218 q 196 118 214 168 q 153 15 171 46 q 104 -6 140 -6 q 48 8 74 -6 q 22 44 22 21 q 58 156 33 97 q 128 314 82 215 l 183 450 q 267 650 229 567 q 368 847 306 733 q 396 876 376 864 q 439 888 415 888 q 477 884 465 888 q 496 873 489 881 q 517 842 503 865 q 598 690 564 768 q 685 475 632 613 l 714 401 q 781 234 753 301 q 844 111 810 167 q 867 61 867 75 q 847 10 867 28 q 794 -7 826 -7 q 733 21 754 -7 m 590 357 q 526 521 568 404 q 440 719 483 646 q 363 547 414 653 q 283 358 328 482 q 475 347 372 347 q 590 357 549 347 z "},"Ȃ":{"ha":889,"x_min":22,"x_max":867,"o":"m 622 1046 q 632 1011 632 1026 q 619 994 632 1003 q 590 985 607 985 q 572 990 581 985 q 550 1010 564 996 q 504 1044 533 1028 q 439 1060 475 1060 q 322 1004 369 1060 q 299 984 310 990 q 275 978 289 978 q 256 987 265 978 q 246 1008 246 996 q 253 1040 246 1026 q 315 1121 275 1088 q 436 1154 356 1154 q 622 1046 557 1154 m 733 21 q 703 73 715 44 q 676 142 690 101 q 660 183 674 149 q 631 243 647 218 q 488 231 543 231 q 420 233 457 231 q 365 235 383 235 q 254 240 296 240 q 226 193 238 218 q 196 118 214 168 q 153 15 171 46 q 104 -6 140 -6 q 48 8 74 -6 q 22 44 22 21 q 58 156 33 97 q 128 314 82 215 l 183 450 q 267 650 229 567 q 368 847 306 733 q 396 876 376 864 q 439 888 415 888 q 477 884 465 888 q 496 873 489 881 q 517 842 503 865 q 598 690 564 768 q 685 475 632 613 l 714 401 q 781 234 753 301 q 844 111 810 167 q 867 61 867 75 q 847 10 867 28 q 794 -7 826 -7 q 733 21 754 -7 m 590 357 q 526 521 568 404 q 440 719 483 646 q 363 547 414 653 q 283 358 328 482 q 475 347 372 347 q 590 357 549 347 z "},"Ā":{"ha":889,"x_min":22,"x_max":867,"o":"m 394 996 q 336 994 367 996 q 297 992 306 992 q 264 1001 272 992 q 256 1040 256 1010 q 302 1084 256 1075 q 447 1093 349 1093 q 583 1088 531 1093 q 635 1068 635 1083 q 617 1013 635 1025 q 550 1000 600 1000 l 394 996 m 733 21 q 703 73 715 44 q 676 142 690 101 q 660 183 674 149 q 631 243 647 218 q 488 231 543 231 q 420 233 457 231 q 365 235 383 235 q 254 240 296 240 q 226 193 238 218 q 196 118 214 168 q 153 15 171 46 q 104 -6 140 -6 q 48 8 74 -6 q 22 44 22 21 q 58 156 33 97 q 128 314 82 215 l 183 450 q 267 650 229 567 q 368 847 306 733 q 396 876 376 864 q 439 888 415 888 q 477 884 465 888 q 496 873 489 881 q 517 842 503 865 q 598 690 564 768 q 685 475 632 613 l 714 401 q 781 234 753 301 q 844 111 810 167 q 867 61 867 75 q 847 10 867 28 q 794 -7 826 -7 q 733 21 754 -7 m 590 357 q 526 521 568 404 q 440 719 483 646 q 363 547 414 653 q 283 358 328 482 q 475 347 372 347 q 590 357 549 347 z "},"Ą":{"ha":889,"x_min":22,"x_max":867,"o":"m 733 21 q 703 73 715 44 q 676 142 690 101 q 660 183 674 149 q 631 243 647 218 q 488 231 543 231 q 420 233 457 231 q 365 235 383 235 q 254 240 296 240 q 226 193 238 218 q 196 118 214 168 q 153 15 171 46 q 104 -6 140 -6 q 48 8 74 -6 q 22 44 22 21 q 58 156 33 97 q 128 314 82 215 l 183 450 q 267 650 229 567 q 368 847 306 733 q 396 876 376 864 q 439 888 415 888 q 477 884 465 888 q 496 873 489 881 q 517 842 503 865 q 598 690 564 768 q 685 475 632 613 l 714 401 q 781 234 753 301 q 844 111 810 167 q 867 61 867 75 q 843 8 867 25 q 789 -47 828 -3 q 739 -108 750 -92 q 719 -167 719 -137 q 768 -203 719 -203 q 801 -197 786 -203 q 822 -192 817 -192 q 844 -201 838 -192 q 851 -232 851 -210 q 823 -277 851 -260 q 751 -294 794 -294 q 658 -266 694 -294 q 622 -187 622 -237 q 672 -43 622 -99 q 738 17 708 -1 l 733 21 m 590 357 q 526 521 568 404 q 440 719 483 646 q 363 547 414 653 q 283 358 328 482 q 475 347 372 347 q 590 357 549 347 z "},"Å":{"ha":890,"x_min":22,"x_max":868,"o":"m 456 915 q 390 922 422 915 q 343 943 358 928 q 306 992 318 968 q 293 1043 293 1015 q 313 1101 293 1071 q 363 1151 332 1131 q 429 1171 394 1171 q 581 1033 581 1171 q 560 981 581 1008 q 510 934 540 953 q 456 915 481 915 m 431 1101 q 397 1082 415 1101 q 378 1040 378 1063 q 393 1001 378 1017 q 431 985 408 985 q 499 1035 499 985 q 479 1081 499 1061 q 431 1101 460 1101 m 735 28 q 705 78 717 51 q 676 146 693 104 q 655 198 667 172 q 631 243 643 224 q 488 231 543 231 q 420 233 457 231 q 365 235 383 235 q 254 240 296 240 q 226 193 238 218 q 196 118 214 168 q 153 15 171 46 q 104 -6 140 -6 q 49 8 74 -6 q 22 44 24 21 q 58 156 33 97 q 128 314 82 215 l 183 450 q 267 650 229 567 q 368 847 306 733 q 396 876 376 864 q 439 888 415 888 q 477 884 465 888 q 496 873 489 881 q 517 842 503 865 q 598 690 564 768 q 685 475 632 613 l 701 433 q 776 255 743 329 q 846 118 808 181 q 858 96 849 114 q 868 68 868 78 q 848 17 868 33 q 796 0 828 0 q 735 28 754 0 m 590 353 q 558 432 574 386 q 536 492 542 478 l 526 521 q 440 719 483 646 q 363 547 414 653 q 323 459 343 510 q 283 354 303 408 q 475 343 360 343 q 590 353 549 343 z "},"Ǻ":{"ha":890,"x_min":22,"x_max":868,"o":"m 542 1358 q 588 1349 571 1358 q 606 1324 606 1339 q 570 1265 606 1293 q 496 1219 535 1238 q 443 1202 475 1208 q 393 1196 411 1196 q 364 1218 364 1196 q 372 1232 364 1225 q 393 1247 379 1239 q 410 1259 399 1251 q 433 1279 422 1267 q 456 1311 444 1292 q 492 1348 472 1338 q 542 1358 513 1358 m 456 915 q 390 922 422 915 q 343 943 358 928 q 306 992 318 968 q 293 1043 293 1015 q 313 1101 293 1071 q 363 1151 332 1131 q 429 1171 394 1171 q 581 1033 581 1171 q 560 981 581 1008 q 510 934 540 953 q 456 915 481 915 m 431 1101 q 397 1082 415 1101 q 378 1040 378 1063 q 393 1001 378 1017 q 431 985 408 985 q 499 1035 499 985 q 479 1081 499 1061 q 431 1101 460 1101 m 735 28 q 705 78 717 51 q 676 146 693 104 q 655 198 667 172 q 631 243 643 224 q 488 231 543 231 q 420 233 457 231 q 365 235 383 235 q 254 240 296 240 q 226 193 238 218 q 196 118 214 168 q 153 15 171 46 q 104 -6 140 -6 q 49 8 74 -6 q 22 44 24 21 q 58 156 33 97 q 128 314 82 215 l 183 450 q 267 650 229 567 q 368 847 306 733 q 396 876 376 864 q 439 888 415 888 q 477 884 465 888 q 496 873 489 881 q 517 842 503 865 q 598 690 564 768 q 685 475 632 613 l 701 433 q 776 255 743 329 q 846 118 808 181 q 858 96 849 114 q 868 68 868 78 q 848 17 868 33 q 796 0 828 0 q 735 28 754 0 m 590 353 q 558 432 574 386 q 536 492 542 478 l 526 521 q 440 719 483 646 q 363 547 414 653 q 323 459 343 510 q 283 354 303 408 q 475 343 360 343 q 590 353 549 343 z "},"Ã":{"ha":889,"x_min":22,"x_max":867,"o":"m 210 1004 q 235 1067 210 1039 q 297 1110 260 1094 q 369 1126 335 1126 q 471 1093 422 1126 q 535 1067 510 1065 q 557 1074 549 1067 q 570 1089 565 1081 q 576 1100 575 1097 q 594 1119 585 1113 q 619 1125 604 1125 q 652 1115 638 1125 q 667 1083 667 1104 q 647 1028 667 1056 q 595 984 626 1001 q 532 967 564 967 q 474 976 496 967 q 425 1006 451 986 q 398 1024 408 1018 q 375 1029 388 1029 q 311 996 333 1029 q 254 964 289 964 q 225 975 240 964 q 210 1004 210 986 m 733 21 q 794 -7 754 -7 q 847 10 826 -7 q 867 61 867 28 q 844 111 867 75 q 781 234 810 167 q 714 401 753 301 l 685 475 q 598 690 632 613 q 517 842 564 768 q 496 873 503 865 q 477 884 489 881 q 439 888 465 888 q 396 876 415 888 q 368 847 376 864 q 267 650 306 733 q 183 450 229 567 l 128 314 q 58 156 82 215 q 22 44 33 97 q 48 8 22 21 q 104 -6 74 -6 q 153 15 140 -6 q 196 118 171 46 q 226 193 214 168 q 254 240 238 218 q 365 235 296 240 q 420 233 383 235 q 488 231 457 231 q 631 243 543 231 q 660 183 647 218 q 676 142 674 149 q 703 73 690 101 q 733 21 715 44 m 590 357 q 475 347 549 347 q 283 358 372 347 q 363 547 328 482 q 440 719 414 653 q 526 521 483 646 q 590 357 568 404 z "},"Æ":{"ha":1169,"x_min":24,"x_max":1126,"o":"m 699 743 q 681 508 681 646 q 738 506 697 506 q 861 508 783 506 l 968 510 q 1017 498 1000 510 q 1033 465 1033 486 q 1019 416 1033 432 q 960 390 1006 400 q 822 382 908 382 l 740 382 q 681 383 700 382 q 675 226 675 310 q 699 161 675 188 q 800 135 724 135 q 896 139 857 135 q 988 151 935 143 q 1081 163 1040 163 q 1114 144 1101 163 q 1126 104 1126 126 q 1117 61 1126 74 q 1081 38 1108 49 q 958 8 1026 15 q 790 0 890 0 q 599 63 664 0 q 533 242 533 126 q 464 238 503 238 q 338 244 406 238 q 260 251 271 250 q 231 206 244 235 q 194 122 217 176 q 147 17 164 42 q 93 -6 135 -6 q 45 13 67 -6 q 24 57 24 32 q 25 71 24 67 q 197 433 71 186 q 418 829 322 681 q 453 856 428 843 q 504 869 478 868 q 733 882 613 882 q 1033 868 936 882 q 1097 847 1075 861 q 1118 806 1118 833 q 1101 756 1118 774 q 1053 739 1083 739 l 1014 742 q 857 749 926 749 q 699 743 810 749 m 511 729 q 411 569 476 689 q 313 358 346 450 q 422 354 358 354 l 464 354 q 496 355 478 354 q 535 354 514 356 q 563 736 535 519 l 511 729 z "},"Ǽ":{"ha":1157,"x_min":24,"x_max":1126,"o":"m 799 1169 q 845 1157 828 1169 q 863 1125 863 1144 q 827 1052 863 1088 q 753 994 792 1017 q 699 974 732 982 q 650 965 667 965 q 621 993 621 965 q 626 1008 621 1001 q 650 1029 632 1015 q 667 1045 656 1035 q 690 1070 679 1056 q 713 1110 701 1085 q 749 1156 729 1143 q 799 1169 769 1169 m 699 743 q 681 508 681 646 q 738 506 697 506 q 861 508 783 506 l 968 510 q 1017 498 1000 510 q 1033 465 1033 486 q 1019 416 1033 432 q 960 390 1006 400 q 822 382 908 382 l 740 382 q 681 383 700 382 q 675 226 675 310 q 699 161 675 188 q 800 135 724 135 q 896 139 857 135 q 988 151 935 143 q 1081 163 1040 163 q 1114 144 1101 163 q 1126 104 1126 126 q 1117 61 1126 74 q 1081 38 1108 49 q 958 8 1026 15 q 790 0 890 0 q 599 63 664 0 q 533 242 533 126 q 464 238 503 238 q 338 244 406 238 q 260 251 271 250 q 231 206 244 235 q 194 122 217 176 q 147 17 164 42 q 93 -6 135 -6 q 45 13 67 -6 q 24 57 24 32 q 25 71 24 67 q 197 433 71 186 q 418 829 322 681 q 453 856 428 843 q 504 869 478 868 q 733 882 613 882 q 1033 868 936 882 q 1097 847 1075 861 q 1118 806 1118 833 q 1101 756 1118 774 q 1053 739 1083 739 l 1014 742 q 857 749 926 749 q 699 743 810 749 m 511 729 q 411 569 476 689 q 313 358 346 450 q 422 354 358 354 l 464 354 q 496 355 478 354 q 535 354 514 356 q 563 736 535 519 l 511 729 z "},"B":{"ha":897,"x_min":100,"x_max":843,"o":"m 643 469 q 794 405 744 457 q 843 276 843 353 q 787 132 843 200 q 643 26 731 64 q 541 4 604 11 q 411 -3 478 -3 q 183 18 300 -3 q 140 39 163 22 q 117 88 117 56 q 107 443 115 215 l 106 519 q 100 799 100 697 q 122 841 100 817 q 174 868 143 865 q 208 869 192 868 q 418 885 365 885 q 602 865 522 885 q 735 792 682 844 q 767 735 754 769 q 779 669 779 701 q 744 544 781 601 q 643 469 707 488 m 426 767 q 328 761 379 767 q 243 747 278 756 l 251 485 l 301 486 q 479 507 422 499 q 550 540 515 515 q 608 591 585 564 q 631 632 631 618 q 622 674 631 653 q 604 706 614 696 q 528 754 567 742 q 426 767 489 767 m 256 119 q 390 110 326 110 q 612 147 531 110 q 693 288 693 183 q 631 357 693 329 q 496 385 568 385 q 372 374 447 385 q 256 363 313 365 q 258 257 258 279 q 257 192 258 214 l 256 119 z "},"C":{"ha":893,"x_min":69,"x_max":843,"o":"m 778 771 q 807 731 799 746 q 815 701 815 715 q 794 663 815 685 q 751 640 772 640 q 707 649 724 640 q 679 675 690 657 q 625 733 657 708 q 525 757 593 757 q 392 731 467 757 q 286 665 318 704 q 238 560 258 631 q 218 422 218 489 q 253 274 218 342 q 356 167 289 207 q 518 126 424 126 q 624 147 569 126 q 719 213 679 167 l 718 213 q 781 239 743 239 q 823 219 803 239 q 843 181 843 200 q 837 144 843 160 q 814 108 831 128 q 679 21 757 44 q 493 -3 601 -3 q 299 43 397 -3 q 149 154 201 89 q 95 270 121 194 q 69 393 69 346 q 106 623 69 514 q 217 797 143 732 q 357 864 265 842 q 525 886 449 886 q 672 860 618 886 q 778 771 725 835 z "},"Ć":{"ha":893,"x_min":69,"x_max":843,"o":"m 561 1200 q 608 1188 590 1200 q 625 1156 625 1175 q 590 1083 625 1118 q 515 1025 554 1047 q 462 1004 494 1013 q 413 996 429 996 q 383 1024 383 996 q 389 1039 383 1032 q 413 1060 394 1046 q 430 1076 418 1065 q 453 1101 442 1086 q 475 1140 464 1115 q 512 1187 492 1174 q 561 1200 532 1200 m 778 771 q 807 731 799 746 q 815 701 815 715 q 794 663 815 685 q 751 640 772 640 q 707 649 724 640 q 679 675 690 657 q 625 733 657 708 q 525 757 593 757 q 392 731 467 757 q 286 665 318 704 q 238 560 258 631 q 218 422 218 489 q 253 274 218 342 q 356 167 289 207 q 518 126 424 126 q 624 147 569 126 q 719 213 679 167 l 718 213 q 781 239 743 239 q 823 219 803 239 q 843 181 843 200 q 837 144 843 160 q 814 108 831 128 q 679 21 757 44 q 493 -3 601 -3 q 299 43 397 -3 q 149 154 201 89 q 95 270 121 194 q 69 393 69 346 q 106 623 69 514 q 217 797 143 732 q 357 864 265 842 q 525 886 449 886 q 672 860 618 886 q 778 771 725 835 z "},"Č":{"ha":893,"x_min":69,"x_max":843,"o":"m 490 990 q 442 999 460 990 q 404 1029 425 1008 q 315 1122 381 1051 q 293 1149 301 1138 q 285 1167 285 1160 q 303 1191 285 1178 q 339 1204 321 1204 q 394 1187 371 1204 q 444 1135 417 1169 q 463 1113 450 1128 q 488 1089 475 1099 q 547 1149 507 1104 q 590 1191 574 1178 q 622 1204 606 1204 q 669 1191 646 1204 q 692 1167 692 1178 q 636 1096 692 1149 q 564 1018 589 1050 q 536 999 556 1007 q 490 990 517 990 m 778 771 q 807 731 799 746 q 815 701 815 715 q 794 663 815 685 q 751 640 772 640 q 707 649 724 640 q 679 675 690 657 q 625 733 657 708 q 525 757 593 757 q 392 731 467 757 q 286 665 318 704 q 238 560 258 631 q 218 422 218 489 q 253 274 218 342 q 356 167 289 207 q 518 126 424 126 q 624 147 569 126 q 719 213 679 167 l 718 213 q 781 239 743 239 q 823 219 803 239 q 843 181 843 200 q 837 144 843 160 q 814 108 831 128 q 679 21 757 44 q 493 -3 601 -3 q 299 43 397 -3 q 149 154 201 89 q 95 270 121 194 q 69 393 69 346 q 106 623 69 514 q 217 797 143 732 q 357 864 265 842 q 525 886 449 886 q 672 860 618 886 q 778 771 725 835 z "},"Ç":{"ha":893,"x_min":69,"x_max":843,"o":"m 385 -103 q 400 -70 385 -87 q 418 -49 415 -53 q 463 -1 435 -28 q 284 49 372 6 q 149 154 196 93 q 95 270 121 194 q 69 393 69 346 q 106 623 69 514 q 217 797 143 732 q 357 864 265 842 q 525 886 449 886 q 672 860 618 886 q 778 771 725 835 q 807 731 799 746 q 815 701 815 715 q 794 663 815 685 q 751 640 772 640 q 707 649 724 640 q 679 675 690 657 q 625 733 657 708 q 525 757 593 757 q 392 731 467 757 q 286 665 318 704 q 238 560 258 631 q 218 422 218 489 q 253 274 218 342 q 356 167 289 207 q 518 126 424 126 q 624 147 569 126 q 719 213 679 167 l 718 213 q 781 239 743 239 q 823 219 803 239 q 843 181 843 200 q 837 144 843 160 q 814 108 831 128 q 708 31 768 56 q 568 0 647 6 l 547 -25 l 503 -81 q 594 -113 560 -86 q 628 -190 628 -140 q 569 -281 628 -235 q 515 -303 550 -294 q 433 -312 479 -312 q 376 -295 401 -312 q 351 -250 351 -278 q 362 -231 351 -239 q 383 -222 372 -222 q 411 -231 397 -222 q 436 -239 425 -239 q 474 -235 453 -239 q 506 -225 494 -231 q 522 -207 515 -219 q 529 -182 529 -194 q 418 -140 529 -140 q 395 -127 406 -140 q 385 -103 385 -114 z "},"Ĉ":{"ha":893,"x_min":69,"x_max":843,"o":"m 481 1179 q 531 1169 513 1179 q 563 1138 549 1160 q 604 1090 576 1117 q 656 1047 632 1064 q 686 1003 686 1025 q 674 978 686 990 q 644 965 661 965 q 559 997 597 965 q 483 1082 521 1029 q 407 1003 454 1040 q 321 965 360 965 q 289 977 299 965 q 279 1003 279 989 q 297 1035 279 1014 q 335 1074 314 1057 q 403 1143 374 1106 q 432 1169 415 1158 q 481 1179 449 1179 m 778 771 q 807 731 799 746 q 815 701 815 715 q 794 663 815 685 q 751 640 772 640 q 707 649 724 640 q 679 675 690 657 q 625 733 657 708 q 525 757 593 757 q 392 731 467 757 q 286 665 318 704 q 238 560 258 631 q 218 422 218 489 q 253 274 218 342 q 356 167 289 207 q 518 126 424 126 q 624 147 569 126 q 719 213 679 167 l 718 213 q 781 239 743 239 q 823 219 803 239 q 843 181 843 200 q 837 144 843 160 q 814 108 831 128 q 679 21 757 44 q 493 -3 601 -3 q 299 43 397 -3 q 149 154 201 89 q 95 270 121 194 q 69 393 69 346 q 106 623 69 514 q 217 797 143 732 q 357 864 265 842 q 525 886 449 886 q 672 860 618 886 q 778 771 725 835 z "},"Ċ":{"ha":893,"x_min":69,"x_max":843,"o":"m 567 1093 q 540 1038 567 1058 q 482 1017 513 1017 q 431 1034 451 1017 q 410 1079 410 1051 q 435 1142 410 1121 q 496 1163 460 1163 q 567 1093 567 1163 m 778 771 q 807 731 799 746 q 815 701 815 715 q 794 663 815 685 q 751 640 772 640 q 707 649 724 640 q 679 675 690 657 q 625 733 657 708 q 525 757 593 757 q 392 731 467 757 q 286 665 318 704 q 238 560 258 631 q 218 422 218 489 q 253 274 218 342 q 356 167 289 207 q 518 126 424 126 q 624 147 569 126 q 719 213 679 167 l 718 213 q 781 239 743 239 q 823 219 803 239 q 843 181 843 200 q 837 144 843 160 q 814 108 831 128 q 679 21 757 44 q 493 -3 601 -3 q 299 43 397 -3 q 149 154 201 89 q 95 270 121 194 q 69 393 69 346 q 106 623 69 514 q 217 797 143 732 q 357 864 265 842 q 525 886 449 886 q 672 860 618 886 q 778 771 725 835 z "},"D":{"ha":919,"x_min":69,"x_max":869,"o":"m 299 881 q 598 828 488 881 q 765 713 708 776 q 840 591 811 660 q 869 426 869 522 q 838 278 869 356 q 754 154 806 201 q 652 71 700 103 q 523 19 604 39 q 317 -1 442 -1 q 146 20 222 -1 q 69 93 69 42 q 88 126 69 114 q 129 138 107 138 q 146 136 142 138 q 156 331 156 228 q 150 522 156 446 q 135 672 144 597 q 128 726 133 682 q 124 817 124 771 q 153 866 124 846 q 213 886 182 886 q 261 883 231 886 q 299 881 286 881 m 281 129 q 368 124 314 124 q 542 162 460 124 q 674 269 624 200 q 724 428 724 338 q 690 589 724 522 q 588 699 657 656 q 461 745 536 731 q 281 760 386 760 q 285 676 281 726 q 288 618 285 660 q 296 358 296 457 q 281 129 296 215 z "},"Ǳ":{"ha":1710,"x_min":69,"x_max":1690,"o":"m 299 881 q 598 828 488 881 q 765 713 708 776 q 840 591 811 660 q 869 426 869 522 q 838 278 869 356 q 754 154 806 201 q 652 71 700 103 q 523 19 604 39 q 317 -1 442 -1 q 146 20 222 -1 q 69 93 69 42 q 88 126 69 114 q 129 138 107 138 q 146 136 142 138 q 156 331 156 228 q 150 522 156 446 q 135 672 144 597 q 128 726 133 682 q 124 817 124 771 q 153 866 124 846 q 213 886 182 886 q 261 883 231 886 q 299 881 286 881 m 1063 25 q 981 55 1001 31 q 960 106 960 79 q 967 143 960 122 q 981 172 974 164 q 1226 455 1047 251 q 1465 726 1404 658 l 1411 729 q 1288 733 1338 733 q 1196 726 1269 733 q 1113 719 1150 719 q 1034 730 1058 719 q 1005 754 1010 740 q 1000 793 1000 768 q 1015 830 1000 811 q 1050 851 1029 849 q 1199 865 1106 858 q 1350 871 1292 871 q 1599 853 1526 871 q 1629 825 1617 847 q 1642 790 1642 803 q 1637 756 1642 774 q 1624 725 1632 738 q 1540 609 1606 693 q 1401 440 1475 525 q 1242 258 1324 349 q 1138 143 1161 168 q 1257 150 1176 144 q 1453 158 1388 158 q 1567 151 1504 158 q 1663 124 1631 144 q 1681 92 1672 118 q 1690 49 1690 65 q 1673 17 1690 31 q 1625 3 1656 3 q 1564 8 1622 3 q 1404 22 1443 22 l 1306 21 q 1204 18 1239 18 q 1063 25 1119 18 m 281 129 q 368 124 314 124 q 542 162 460 124 q 674 269 624 200 q 724 428 724 338 q 690 589 724 522 q 588 699 657 656 q 461 745 536 731 q 281 760 386 760 q 285 676 281 726 q 288 618 285 660 q 296 358 296 457 q 281 129 296 215 z "},"Ǆ":{"ha":1696,"x_min":69,"x_max":1690,"o":"m 1339 990 q 1291 999 1308 990 q 1253 1029 1274 1008 q 1164 1122 1229 1051 q 1142 1149 1150 1138 q 1133 1167 1133 1160 q 1151 1191 1133 1178 q 1188 1204 1169 1204 q 1242 1187 1219 1204 q 1293 1135 1265 1169 q 1311 1113 1299 1128 q 1336 1089 1324 1099 q 1396 1149 1356 1104 q 1438 1191 1422 1178 q 1471 1204 1454 1204 q 1517 1191 1494 1204 q 1540 1167 1540 1178 q 1485 1096 1540 1149 q 1413 1018 1438 1050 q 1385 999 1404 1007 q 1339 990 1365 990 m 299 881 q 598 828 488 881 q 765 713 708 776 q 840 591 811 660 q 869 426 869 522 q 838 278 869 356 q 754 154 806 201 q 652 71 700 103 q 523 19 604 39 q 317 -1 442 -1 q 146 20 222 -1 q 69 93 69 42 q 88 126 69 114 q 129 138 107 138 q 146 136 142 138 q 156 331 156 228 q 150 522 156 446 q 135 672 144 597 q 128 726 133 682 q 124 817 124 771 q 153 866 124 846 q 213 886 182 886 q 261 883 231 886 q 299 881 286 881 m 1063 25 q 981 55 1001 31 q 960 106 960 79 q 967 143 960 122 q 981 172 974 164 q 1226 455 1047 251 q 1465 726 1404 658 l 1411 729 q 1288 733 1338 733 q 1196 726 1269 733 q 1113 719 1150 719 q 1034 730 1058 719 q 1005 754 1010 740 q 1000 793 1000 768 q 1015 830 1000 811 q 1050 851 1029 849 q 1199 865 1106 858 q 1350 871 1292 871 q 1599 853 1526 871 q 1629 825 1617 847 q 1642 790 1642 803 q 1637 756 1642 774 q 1624 725 1632 738 q 1540 609 1606 693 q 1401 440 1475 525 q 1242 258 1324 349 q 1138 143 1161 168 q 1257 150 1176 144 q 1453 158 1388 158 q 1567 151 1504 158 q 1663 124 1631 144 q 1681 92 1672 118 q 1690 49 1690 65 q 1673 17 1690 31 q 1625 3 1656 3 q 1564 8 1622 3 q 1404 22 1443 22 l 1306 21 q 1204 18 1239 18 q 1063 25 1119 18 m 281 129 q 368 124 314 124 q 542 162 460 124 q 674 269 624 200 q 724 428 724 338 q 690 589 724 522 q 588 699 657 656 q 461 745 536 731 q 281 760 386 760 q 285 676 281 726 q 288 618 285 660 q 296 358 296 457 q 281 129 296 215 z "},"Ð":{"ha":944,"x_min":69,"x_max":894,"o":"m 326 881 q 627 829 518 881 q 793 713 736 778 q 866 590 838 658 q 894 426 894 522 q 863 283 894 357 q 781 158 832 208 q 676 74 724 106 q 547 20 628 42 q 343 -1 465 -1 q 172 20 249 -1 q 96 94 96 42 q 112 126 96 115 q 150 136 128 136 q 171 133 160 136 q 181 331 181 263 l 181 375 l 168 375 q 96 390 122 375 q 69 450 69 406 q 88 489 69 475 q 143 503 107 503 l 176 500 q 158 710 174 569 q 150 814 150 799 q 179 865 150 844 q 240 886 208 886 q 293 883 263 886 q 326 881 315 881 m 301 125 q 357 119 326 119 q 393 119 388 119 q 565 158 483 119 q 698 268 647 197 q 749 428 749 339 q 643 679 749 593 q 303 765 538 765 q 308 621 303 738 l 314 499 q 361 501 347 501 q 429 506 406 506 q 481 486 460 506 q 503 432 503 467 q 481 397 503 410 q 414 381 460 385 q 318 376 389 376 l 318 358 q 301 125 318 215 z "},"Ď":{"ha":919,"x_min":69,"x_max":869,"o":"m 453 990 q 405 999 422 990 q 367 1029 388 1008 q 278 1122 343 1050 q 256 1149 264 1138 q 247 1167 247 1160 q 265 1191 247 1178 q 301 1204 283 1204 q 356 1187 333 1204 q 407 1135 379 1169 q 425 1113 413 1128 q 450 1089 438 1099 q 510 1149 469 1104 q 552 1191 536 1178 q 585 1204 568 1204 q 631 1191 608 1204 q 654 1167 654 1178 q 599 1096 654 1149 q 526 1018 551 1050 q 499 999 518 1007 q 453 990 479 990 m 299 881 q 598 828 488 881 q 765 713 708 776 q 840 591 811 660 q 869 426 869 522 q 838 278 869 356 q 754 154 806 201 q 652 71 700 103 q 523 19 604 39 q 317 -1 442 -1 q 146 20 222 -1 q 69 93 69 42 q 88 126 69 114 q 129 138 107 138 q 146 136 142 138 q 156 331 156 228 q 150 522 156 446 q 135 672 144 597 q 128 726 133 682 q 124 817 124 771 q 153 866 124 846 q 213 886 182 886 q 261 883 231 886 q 299 881 286 881 m 281 129 q 368 124 314 124 q 542 162 460 124 q 674 269 624 200 q 724 428 724 338 q 690 589 724 522 q 588 699 657 656 q 461 745 536 731 q 281 760 386 760 q 285 676 281 726 q 288 618 285 660 q 296 358 296 457 q 281 129 296 215 z "},"Đ":{"ha":944,"x_min":69,"x_max":894,"o":"m 326 881 q 627 829 518 881 q 793 713 736 778 q 866 590 838 658 q 894 426 894 522 q 863 283 894 357 q 781 158 832 208 q 676 74 724 106 q 547 20 628 42 q 343 -1 465 -1 q 172 20 249 -1 q 96 94 96 42 q 112 126 96 115 q 150 136 128 136 q 171 133 160 136 q 181 331 181 263 l 181 375 l 168 375 q 96 390 122 375 q 69 450 69 406 q 88 489 69 475 q 143 503 107 503 l 176 500 q 158 710 174 569 q 150 814 150 799 q 179 865 150 844 q 240 886 208 886 q 293 883 263 886 q 326 881 315 881 m 301 125 q 357 119 326 119 q 393 119 388 119 q 565 158 483 119 q 698 268 647 197 q 749 428 749 339 q 643 679 749 593 q 303 765 538 765 q 308 621 303 738 l 314 499 q 361 501 347 501 q 429 506 406 506 q 481 486 460 506 q 503 432 503 467 q 481 397 503 410 q 414 381 460 385 q 318 376 389 376 l 318 358 q 301 125 318 215 z "},"Ḍ":{"ha":919,"x_min":69,"x_max":869,"o":"m 299 881 q 598 828 488 881 q 765 713 708 776 q 840 591 811 660 q 869 426 869 522 q 838 278 869 356 q 754 154 806 201 q 652 71 700 103 q 523 19 604 39 q 317 -1 442 -1 q 146 20 222 -1 q 69 93 69 42 q 88 126 69 114 q 129 138 107 138 q 146 136 142 138 q 156 331 156 228 q 150 522 156 446 q 135 672 144 597 q 128 726 133 682 q 124 817 124 771 q 153 866 124 846 q 213 886 182 886 q 261 883 231 886 q 299 881 286 881 m 281 129 q 368 124 314 124 q 542 162 460 124 q 674 269 624 200 q 724 428 724 338 q 690 589 724 522 q 588 699 657 656 q 461 745 536 731 q 281 760 386 760 q 285 676 281 726 q 288 618 285 660 q 296 358 296 457 q 281 129 296 215 m 517 -147 q 491 -200 517 -181 q 436 -219 465 -219 q 388 -203 407 -219 q 368 -161 368 -187 q 392 -101 368 -121 q 450 -82 415 -82 q 517 -147 517 -82 z "},"Ḏ":{"ha":919,"x_min":69,"x_max":869,"o":"m 299 881 q 598 828 488 881 q 765 713 708 776 q 840 591 811 660 q 869 426 869 522 q 838 278 869 356 q 754 154 806 201 q 652 71 700 103 q 523 19 604 39 q 317 -1 442 -1 q 146 20 222 -1 q 69 93 69 42 q 88 126 69 114 q 129 138 107 138 q 146 136 142 138 q 156 331 156 228 q 150 522 156 446 q 135 672 144 597 q 128 726 133 682 q 124 817 124 771 q 153 866 124 846 q 213 886 182 886 q 261 883 231 886 q 299 881 286 881 m 281 129 q 368 124 314 124 q 542 162 460 124 q 674 269 624 200 q 724 428 724 338 q 690 589 724 522 q 588 699 657 656 q 461 745 536 731 q 281 760 386 760 q 285 676 281 726 q 288 618 285 660 q 296 358 296 457 q 281 129 296 215 m 397 -187 q 339 -190 369 -187 q 300 -193 308 -193 q 267 -184 275 -193 q 258 -144 258 -175 q 304 -99 258 -108 q 449 -90 350 -90 q 585 -95 533 -90 q 638 -117 638 -100 q 620 -171 638 -158 q 553 -183 603 -183 l 397 -187 z "},"ǲ":{"ha":1564,"x_min":69,"x_max":1546,"o":"m 299 881 q 598 828 488 881 q 765 713 708 776 q 840 591 811 660 q 869 426 869 522 q 838 278 869 356 q 754 154 806 201 q 652 71 700 103 q 523 19 604 39 q 317 -1 442 -1 q 146 20 222 -1 q 69 93 69 42 q 88 126 69 114 q 129 138 107 138 q 146 136 142 138 q 156 331 156 228 q 150 522 156 446 q 135 672 144 597 q 128 726 133 682 q 124 817 124 771 q 153 866 124 846 q 213 886 182 886 q 261 883 231 886 q 299 881 286 881 m 281 129 q 368 124 314 124 q 542 162 460 124 q 674 269 624 200 q 724 428 724 338 q 690 589 724 522 q 588 699 657 656 q 461 745 536 731 q 281 760 386 760 q 285 676 281 726 q 288 618 285 660 q 296 358 296 457 q 281 129 296 215 m 1474 475 q 1394 372 1444 425 q 1267 247 1344 319 q 1185 168 1193 178 l 1138 125 q 1242 119 1165 119 q 1331 131 1272 119 q 1413 142 1386 142 q 1463 135 1435 142 q 1517 114 1492 128 q 1538 92 1529 108 q 1546 63 1546 76 q 1533 22 1546 44 q 1504 0 1521 0 q 1464 6 1489 0 q 1411 13 1426 13 q 1282 6 1363 13 q 1118 -3 1171 -3 q 1013 14 1051 -3 q 975 76 975 31 q 1010 156 975 111 q 1094 251 1044 201 l 1114 272 q 1189 339 1136 294 q 1269 412 1242 385 q 1315 469 1297 439 l 1093 468 q 1013 481 1039 468 q 988 528 988 493 q 1001 565 988 547 q 1038 586 1015 582 q 1242 593 1088 593 q 1454 578 1396 593 q 1478 558 1469 572 q 1488 528 1488 543 q 1474 475 1488 503 z "},"ǅ":{"ha":1564,"x_min":69,"x_max":1546,"o":"m 1253 753 q 1205 762 1222 753 q 1167 792 1188 771 q 1078 885 1143 814 q 1056 911 1064 900 q 1047 929 1047 922 q 1065 953 1047 940 q 1101 967 1083 967 q 1156 949 1133 967 q 1207 897 1179 932 q 1225 876 1213 890 q 1250 851 1238 861 q 1310 911 1269 867 q 1352 953 1336 940 q 1385 967 1368 967 q 1431 953 1408 967 q 1454 929 1454 940 q 1399 858 1454 911 q 1326 781 1351 813 q 1299 761 1318 769 q 1253 753 1279 753 m 299 881 q 598 828 488 881 q 765 713 708 776 q 840 591 811 660 q 869 426 869 522 q 838 278 869 356 q 754 154 806 201 q 652 71 700 103 q 523 19 604 39 q 317 -1 442 -1 q 146 20 222 -1 q 69 93 69 42 q 88 126 69 114 q 129 138 107 138 q 146 136 142 138 q 156 331 156 228 q 150 522 156 446 q 135 672 144 597 q 128 726 133 682 q 124 817 124 771 q 153 866 124 846 q 213 886 182 886 q 261 883 231 886 q 299 881 286 881 m 281 129 q 368 124 314 124 q 542 162 460 124 q 674 269 624 200 q 724 428 724 338 q 690 589 724 522 q 588 699 657 656 q 461 745 536 731 q 281 760 386 760 q 285 676 281 726 q 288 618 285 660 q 296 358 296 457 q 281 129 296 215 m 1474 475 q 1394 372 1444 425 q 1267 247 1344 319 q 1185 168 1193 178 l 1138 125 q 1242 119 1165 119 q 1331 131 1272 119 q 1413 142 1386 142 q 1463 135 1435 142 q 1517 114 1492 128 q 1538 92 1529 108 q 1546 63 1546 76 q 1533 22 1546 44 q 1504 0 1521 0 q 1464 6 1489 0 q 1411 13 1426 13 q 1282 6 1363 13 q 1118 -3 1171 -3 q 1013 14 1051 -3 q 975 76 975 31 q 1010 156 975 111 q 1094 251 1044 201 l 1114 272 q 1189 339 1136 294 q 1269 412 1242 385 q 1315 469 1297 439 l 1093 468 q 1013 481 1039 468 q 988 528 988 493 q 1001 565 988 547 q 1038 586 1015 582 q 1242 593 1088 593 q 1454 578 1396 593 q 1478 558 1469 572 q 1488 528 1488 543 q 1474 475 1488 503 z "},"E":{"ha":767,"x_min":85,"x_max":722,"o":"m 669 189 q 709 169 696 189 q 722 125 722 149 q 713 84 722 96 q 679 60 704 72 q 535 15 621 32 q 350 -1 449 -1 q 169 40 226 -1 q 98 141 111 82 q 85 296 85 200 q 93 498 85 399 q 122 751 101 597 q 175 848 132 818 q 269 878 218 878 q 410 881 313 878 l 531 882 q 639 878 606 882 q 701 859 681 869 q 721 824 721 849 q 702 769 721 796 q 646 743 683 743 q 522 749 603 743 q 401 754 442 754 q 333 750 367 754 q 278 740 294 747 q 258 717 261 733 q 239 506 239 574 q 301 501 271 501 q 385 506 340 501 q 442 511 429 510 q 568 518 515 518 q 615 507 599 518 q 631 476 631 496 q 615 429 631 446 q 558 404 599 413 q 438 389 510 394 q 299 383 367 383 q 233 386 275 383 q 229 229 229 301 q 360 131 229 131 q 475 140 429 131 q 581 168 521 150 q 669 189 636 189 z "},"É":{"ha":767,"x_min":85,"x_max":722,"o":"m 486 1200 q 533 1188 515 1200 q 550 1156 550 1175 q 515 1083 550 1118 q 440 1025 479 1047 q 387 1004 419 1013 q 338 996 354 996 q 308 1024 308 996 q 314 1039 308 1032 q 338 1060 319 1046 q 355 1076 343 1065 q 378 1101 367 1086 q 400 1140 389 1115 q 437 1187 417 1174 q 486 1200 457 1200 m 669 189 q 709 169 696 189 q 722 125 722 149 q 713 84 722 96 q 679 60 704 72 q 535 15 621 32 q 350 -1 449 -1 q 169 40 226 -1 q 98 141 111 82 q 85 296 85 200 q 93 498 85 399 q 122 751 101 597 q 175 848 132 818 q 269 878 218 878 q 410 881 313 878 l 531 882 q 639 878 606 882 q 701 859 681 869 q 721 824 721 849 q 702 769 721 796 q 646 743 683 743 q 522 749 603 743 q 401 754 442 754 q 333 750 367 754 q 278 740 294 747 q 258 717 261 733 q 239 506 239 574 q 301 501 271 501 q 385 506 340 501 q 442 511 429 510 q 568 518 515 518 q 615 507 599 518 q 631 476 631 496 q 615 429 631 446 q 558 404 599 413 q 438 389 510 394 q 299 383 367 383 q 233 386 275 383 q 229 229 229 301 q 360 131 229 131 q 475 140 429 131 q 581 168 521 150 q 669 189 636 189 z "},"Ĕ":{"ha":767,"x_min":85,"x_max":722,"o":"m 253 1106 q 245 1124 249 1113 q 242 1142 242 1135 q 257 1159 242 1150 q 289 1168 272 1168 q 333 1143 306 1168 q 376 1107 354 1121 q 435 1093 399 1093 q 493 1107 468 1093 q 542 1147 518 1121 q 565 1168 554 1163 q 589 1174 575 1174 q 615 1165 600 1174 q 629 1143 629 1156 q 621 1111 629 1128 q 558 1027 599 1063 q 438 992 518 992 q 253 1106 321 992 m 669 189 q 581 168 636 189 q 475 140 521 150 q 360 131 429 131 q 229 229 229 131 q 233 386 229 301 q 299 383 275 383 q 438 389 367 383 q 558 404 510 394 q 615 429 599 413 q 631 476 631 446 q 615 507 631 496 q 568 518 599 518 q 442 511 515 518 q 385 506 429 510 q 301 501 340 501 q 239 506 271 501 q 258 717 239 574 q 278 740 261 733 q 333 750 294 747 q 401 754 367 754 q 522 749 442 754 q 646 743 603 743 q 702 769 683 743 q 721 824 721 796 q 701 859 721 849 q 639 878 681 869 q 531 882 606 882 l 410 881 q 269 878 313 878 q 175 848 218 878 q 122 751 132 818 q 93 498 101 597 q 85 296 85 399 q 98 141 85 200 q 169 40 111 82 q 350 -1 226 -1 q 535 15 449 -1 q 679 60 621 32 q 713 84 704 72 q 722 125 722 96 q 709 169 722 149 q 669 189 696 189 z "},"Ě":{"ha":767,"x_min":85,"x_max":722,"o":"m 435 990 q 387 999 404 990 q 349 1029 369 1008 q 260 1122 325 1051 q 238 1149 246 1138 q 229 1167 229 1160 q 247 1191 229 1178 q 283 1204 265 1204 q 338 1187 315 1204 q 389 1135 361 1169 q 407 1113 394 1128 q 432 1089 419 1099 q 492 1149 451 1104 q 534 1191 518 1178 q 567 1204 550 1204 q 613 1191 590 1204 q 636 1167 636 1178 q 581 1096 636 1149 q 508 1018 533 1050 q 481 999 500 1007 q 435 990 461 990 m 669 189 q 709 169 696 189 q 722 125 722 149 q 713 84 722 96 q 679 60 704 72 q 535 15 621 32 q 350 -1 449 -1 q 169 40 226 -1 q 98 141 111 82 q 85 296 85 200 q 93 498 85 399 q 122 751 101 597 q 175 848 132 818 q 269 878 218 878 q 410 881 313 878 l 531 882 q 639 878 606 882 q 701 859 681 869 q 721 824 721 849 q 702 769 721 796 q 646 743 683 743 q 522 749 603 743 q 401 754 442 754 q 333 750 367 754 q 278 740 294 747 q 258 717 261 733 q 239 506 239 574 q 301 501 271 501 q 385 506 340 501 q 442 511 429 510 q 568 518 515 518 q 615 507 599 518 q 631 476 631 496 q 615 429 631 446 q 558 404 599 413 q 438 389 510 394 q 299 383 367 383 q 233 386 275 383 q 229 229 229 301 q 360 131 229 131 q 475 140 429 131 q 581 168 521 150 q 669 189 636 189 z "},"Ê":{"ha":767,"x_min":85,"x_max":722,"o":"m 432 1194 q 482 1185 464 1194 q 514 1153 500 1175 q 556 1106 528 1132 q 607 1063 583 1079 q 638 1018 638 1040 q 625 993 638 1006 q 596 981 613 981 q 510 1013 549 981 q 435 1097 472 1044 q 358 1018 406 1056 q 272 981 311 981 q 240 992 250 981 q 231 1018 231 1004 q 248 1051 231 1029 q 286 1089 265 1072 q 354 1158 325 1121 q 383 1184 367 1174 q 432 1194 400 1194 m 669 189 q 709 169 696 189 q 722 125 722 149 q 713 84 722 96 q 679 60 704 72 q 535 15 621 32 q 350 -1 449 -1 q 169 40 226 -1 q 98 141 111 82 q 85 296 85 200 q 93 498 85 399 q 122 751 101 597 q 175 848 132 818 q 269 878 218 878 q 410 881 313 878 l 531 882 q 639 878 606 882 q 701 859 681 869 q 721 824 721 849 q 702 769 721 796 q 646 743 683 743 q 522 749 603 743 q 401 754 442 754 q 333 750 367 754 q 278 740 294 747 q 258 717 261 733 q 239 506 239 574 q 301 501 271 501 q 385 506 340 501 q 442 511 429 510 q 568 518 515 518 q 615 507 599 518 q 631 476 631 496 q 615 429 631 446 q 558 404 599 413 q 438 389 510 394 q 299 383 367 383 q 233 386 275 383 q 229 229 229 301 q 360 131 229 131 q 475 140 429 131 q 581 168 521 150 q 669 189 636 189 z "},"Ế":{"ha":767,"x_min":85,"x_max":757,"o":"m 703 1249 q 757 1206 757 1249 q 728 1152 757 1182 q 659 1101 699 1122 q 592 1079 619 1079 q 572 1087 579 1079 q 564 1107 564 1094 q 569 1118 564 1113 q 580 1129 574 1124 q 590 1139 586 1135 q 629 1193 614 1161 q 660 1237 644 1225 q 703 1249 676 1249 m 424 1153 q 474 1143 456 1153 q 506 1113 492 1133 q 546 1070 519 1094 q 596 1031 572 1046 q 626 988 626 1010 q 615 965 626 976 q 586 953 603 953 q 503 983 540 953 q 425 1063 465 1013 q 351 988 397 1024 q 264 953 304 953 q 234 964 243 953 q 225 988 225 975 q 242 1017 225 999 q 279 1053 258 1036 q 346 1119 324 1089 q 375 1143 358 1133 q 424 1153 392 1153 m 669 189 q 709 169 696 189 q 722 125 722 149 q 713 84 722 96 q 679 60 704 72 q 535 15 621 32 q 350 -1 449 -1 q 169 40 226 -1 q 98 141 111 82 q 85 296 85 200 q 93 498 85 399 q 122 751 101 597 q 175 848 132 818 q 269 878 218 878 q 410 881 313 878 l 531 882 q 639 878 606 882 q 701 859 681 869 q 721 824 721 849 q 702 769 721 796 q 646 743 683 743 q 522 749 603 743 q 401 754 442 754 q 333 750 367 754 q 278 740 294 747 q 258 717 261 733 q 239 506 239 574 q 301 501 271 501 q 385 506 340 501 q 442 511 429 510 q 568 518 515 518 q 615 507 599 518 q 631 476 631 496 q 615 429 631 446 q 558 404 599 413 q 438 389 510 394 q 299 383 367 383 q 233 386 275 383 q 229 229 229 301 q 360 131 229 131 q 475 140 429 131 q 581 168 521 150 q 669 189 636 189 z "},"Ệ":{"ha":767,"x_min":85,"x_max":722,"o":"m 421 1164 q 471 1154 453 1164 q 503 1122 489 1144 q 544 1075 517 1101 q 596 1032 572 1049 q 626 988 626 1010 q 614 963 626 975 q 585 950 601 950 q 499 982 538 950 q 424 1067 461 1014 q 347 988 394 1025 q 261 950 300 950 q 229 962 239 950 q 219 988 219 974 q 237 1020 219 999 q 275 1058 254 1042 q 343 1128 314 1090 q 372 1153 356 1143 q 421 1164 389 1164 m 669 189 q 709 169 696 189 q 722 125 722 149 q 713 84 722 96 q 679 60 704 72 q 535 15 621 32 q 350 -1 449 -1 q 169 40 226 -1 q 98 141 111 82 q 85 296 85 200 q 93 498 85 399 q 122 751 101 597 q 175 848 132 818 q 269 878 218 878 q 410 881 313 878 l 531 882 q 639 878 606 882 q 701 859 681 869 q 721 824 721 849 q 702 769 721 796 q 646 743 683 743 q 522 749 603 743 q 401 754 442 754 q 333 750 367 754 q 278 740 294 747 q 258 717 261 733 q 239 506 239 574 q 301 501 271 501 q 385 506 340 501 q 442 511 429 510 q 568 518 515 518 q 615 507 599 518 q 631 476 631 496 q 615 429 631 446 q 558 404 599 413 q 438 389 510 394 q 299 383 367 383 q 233 386 275 383 q 229 229 229 301 q 360 131 229 131 q 475 140 429 131 q 581 168 521 150 q 669 189 636 189 m 486 -147 q 460 -200 486 -181 q 406 -219 435 -219 q 357 -203 376 -219 q 338 -161 338 -187 q 361 -101 338 -121 q 419 -82 385 -82 q 486 -147 486 -82 z "},"Ề":{"ha":767,"x_min":85,"x_max":722,"o":"m 167 1249 q 209 1237 193 1249 q 240 1193 225 1225 q 279 1139 256 1161 q 297 1121 290 1128 q 304 1107 304 1114 q 297 1087 304 1094 q 278 1079 290 1079 q 210 1101 250 1079 q 142 1152 171 1122 q 113 1206 113 1182 q 167 1249 113 1249 m 443 1153 q 493 1144 475 1153 q 526 1113 511 1135 q 566 1070 539 1094 q 617 1031 593 1046 q 647 988 647 1008 q 635 965 647 976 q 606 953 622 953 q 523 983 560 953 q 446 1063 486 1013 q 371 988 418 1024 q 285 953 324 953 q 254 964 264 953 q 244 988 244 975 q 300 1053 244 1007 q 367 1119 350 1094 q 443 1153 386 1153 m 669 189 q 709 169 696 189 q 722 125 722 149 q 713 84 722 96 q 679 60 704 72 q 535 15 621 32 q 350 -1 449 -1 q 169 40 226 -1 q 98 141 111 82 q 85 296 85 200 q 93 498 85 399 q 122 751 101 597 q 175 848 132 818 q 269 878 218 878 q 410 881 313 878 l 531 882 q 639 878 606 882 q 701 859 681 869 q 721 824 721 849 q 702 769 721 796 q 646 743 683 743 q 522 749 603 743 q 401 754 442 754 q 333 750 367 754 q 278 740 294 747 q 258 717 261 733 q 239 506 239 574 q 301 501 271 501 q 385 506 340 501 q 442 511 429 510 q 568 518 515 518 q 615 507 599 518 q 631 476 631 496 q 615 429 631 446 q 558 404 599 413 q 438 389 510 394 q 299 383 367 383 q 233 386 275 383 q 229 229 229 301 q 360 131 229 131 q 475 140 429 131 q 581 168 521 150 q 669 189 636 189 z "},"Ể":{"ha":789,"x_min":85,"x_max":744,"o":"m 549 1232 q 528 1242 536 1232 q 519 1265 519 1251 q 561 1308 519 1294 q 639 1322 603 1322 q 719 1289 674 1322 q 737 1267 729 1283 q 744 1233 744 1251 q 728 1173 744 1192 q 672 1139 713 1154 q 658 1124 658 1133 q 664 1108 658 1117 q 671 1097 669 1100 q 660 1080 671 1088 q 636 1072 650 1072 q 599 1078 613 1072 q 581 1101 586 1083 q 576 1113 579 1104 q 574 1131 574 1122 q 592 1165 574 1154 q 617 1180 599 1171 q 647 1198 636 1189 q 657 1224 657 1207 q 646 1245 657 1240 q 614 1250 635 1250 q 576 1241 600 1250 q 549 1232 553 1232 m 424 1153 q 473 1143 456 1153 q 506 1113 490 1133 q 546 1070 519 1094 q 596 1031 572 1046 q 626 988 626 1010 q 615 965 626 976 q 586 953 603 953 q 503 983 540 953 q 425 1063 465 1013 q 351 988 397 1024 q 264 953 304 953 q 233 964 243 953 q 224 988 224 975 q 279 1053 224 1007 q 346 1119 329 1094 q 424 1153 365 1153 m 669 189 q 709 169 696 189 q 722 125 722 149 q 713 84 722 96 q 679 60 704 72 q 535 15 621 32 q 350 -1 449 -1 q 169 40 226 -1 q 98 141 111 82 q 85 296 85 200 q 93 498 85 399 q 122 751 101 597 q 175 848 132 818 q 269 878 218 878 q 410 881 313 878 l 531 882 q 639 878 606 882 q 701 859 681 869 q 721 824 721 849 q 702 769 721 796 q 646 743 683 743 q 522 749 603 743 q 401 754 442 754 q 333 750 367 754 q 278 740 294 747 q 258 717 261 733 q 239 506 239 574 q 301 501 271 501 q 385 506 340 501 q 442 511 429 510 q 568 518 515 518 q 615 507 599 518 q 631 476 631 496 q 615 429 631 446 q 558 404 599 413 q 438 389 510 394 q 299 383 367 383 q 233 386 275 383 q 229 229 229 301 q 360 131 229 131 q 475 140 429 131 q 581 168 521 150 q 669 189 636 189 z "},"Ễ":{"ha":767,"x_min":85,"x_max":722,"o":"m 222 1208 q 243 1269 222 1242 q 297 1311 264 1296 q 361 1326 329 1326 q 456 1294 410 1326 q 511 1268 488 1268 q 533 1274 525 1268 q 544 1289 540 1281 q 551 1300 549 1297 q 593 1325 569 1325 q 622 1314 608 1325 q 635 1283 635 1303 q 595 1208 635 1243 q 511 1174 556 1174 q 465 1182 485 1174 q 421 1206 444 1190 q 390 1224 401 1218 q 365 1229 378 1229 q 338 1224 349 1229 q 317 1200 328 1218 q 263 1169 297 1169 q 236 1181 250 1169 q 222 1208 222 1192 m 425 1153 q 475 1144 457 1153 q 508 1113 493 1135 q 548 1070 521 1094 q 599 1031 575 1046 q 629 988 629 1008 q 617 965 629 976 q 588 953 604 953 q 505 983 542 953 q 428 1063 468 1013 q 353 988 400 1024 q 267 953 306 953 q 236 964 246 953 q 226 988 226 975 q 282 1053 226 1007 q 349 1119 332 1094 q 425 1153 368 1153 m 669 189 q 709 169 696 189 q 722 125 722 149 q 713 84 722 96 q 679 60 704 72 q 535 15 621 32 q 350 -1 449 -1 q 169 40 226 -1 q 98 141 111 82 q 85 296 85 200 q 93 498 85 399 q 122 751 101 597 q 175 848 132 818 q 269 878 218 878 q 410 881 313 878 l 531 882 q 639 878 606 882 q 701 859 681 869 q 721 824 721 849 q 702 769 721 796 q 646 743 683 743 q 522 749 603 743 q 401 754 442 754 q 333 750 367 754 q 278 740 294 747 q 258 717 261 733 q 239 506 239 574 q 301 501 271 501 q 385 506 340 501 q 442 511 429 510 q 568 518 515 518 q 615 507 599 518 q 631 476 631 496 q 615 429 631 446 q 558 404 599 413 q 438 389 510 394 q 299 383 367 383 q 233 386 275 383 q 229 229 229 301 q 360 131 229 131 q 475 140 429 131 q 581 168 521 150 q 669 189 636 189 z "},"Ȅ":{"ha":767,"x_min":85,"x_max":722,"o":"m 240 1200 q 273 1192 263 1200 q 294 1167 283 1183 q 311 1142 306 1150 q 324 1123 318 1131 q 335 1110 331 1115 q 349 1090 339 1104 q 367 1064 360 1076 q 381 1021 381 1036 q 369 1006 381 1011 q 343 1001 358 1001 q 316 1008 329 1001 q 282 1036 303 1015 q 181 1168 181 1138 q 195 1193 181 1186 q 240 1200 210 1200 m 443 1200 q 476 1192 465 1200 q 499 1167 488 1183 q 515 1142 510 1150 l 538 1113 q 569 1064 558 1085 q 583 1021 583 1036 q 573 1006 583 1011 q 546 1001 563 1001 q 519 1008 532 1001 q 486 1036 507 1015 q 413 1114 443 1079 q 383 1168 383 1149 q 398 1193 383 1186 q 443 1200 413 1200 m 669 189 q 709 169 696 189 q 722 125 722 149 q 713 84 722 96 q 679 60 704 72 q 535 15 621 32 q 350 -1 449 -1 q 169 40 226 -1 q 98 141 111 82 q 85 296 85 200 q 93 498 85 399 q 122 751 101 597 q 175 848 132 818 q 269 878 218 878 q 410 881 313 878 l 531 882 q 639 878 606 882 q 701 859 681 869 q 721 824 721 849 q 702 769 721 796 q 646 743 683 743 q 522 749 603 743 q 401 754 442 754 q 333 750 367 754 q 278 740 294 747 q 258 717 261 733 q 239 506 239 574 q 301 501 271 501 q 385 506 340 501 q 442 511 429 510 q 568 518 515 518 q 615 507 599 518 q 631 476 631 496 q 615 429 631 446 q 558 404 599 413 q 438 389 510 394 q 299 383 367 383 q 233 386 275 383 q 229 229 229 301 q 360 131 229 131 q 475 140 429 131 q 581 168 521 150 q 669 189 636 189 z "},"Ë":{"ha":767,"x_min":85,"x_max":722,"o":"m 285 1156 q 353 1137 324 1156 q 383 1081 383 1118 q 360 1039 383 1054 q 303 1024 338 1024 q 256 1041 269 1024 q 243 1078 243 1058 q 251 1133 243 1110 q 285 1156 258 1156 m 519 1156 q 587 1137 557 1156 q 617 1081 617 1118 q 594 1039 617 1054 q 536 1024 571 1024 q 490 1041 503 1024 q 476 1078 476 1058 q 484 1133 476 1110 q 519 1156 492 1156 m 669 189 q 709 169 696 189 q 722 125 722 149 q 713 84 722 96 q 679 60 704 72 q 535 15 621 32 q 350 -1 449 -1 q 169 40 226 -1 q 98 141 111 82 q 85 296 85 200 q 93 498 85 399 q 122 751 101 597 q 175 848 132 818 q 269 878 218 878 q 410 881 313 878 l 531 882 q 639 878 606 882 q 701 859 681 869 q 721 824 721 849 q 702 769 721 796 q 646 743 683 743 q 522 749 603 743 q 401 754 442 754 q 333 750 367 754 q 278 740 294 747 q 258 717 261 733 q 239 506 239 574 q 301 501 271 501 q 385 506 340 501 q 442 511 429 510 q 568 518 515 518 q 615 507 599 518 q 631 476 631 496 q 615 429 631 446 q 558 404 599 413 q 438 389 510 394 q 299 383 367 383 q 233 386 275 383 q 229 229 229 301 q 360 131 229 131 q 475 140 429 131 q 581 168 521 150 q 669 189 636 189 z "},"Ė":{"ha":767,"x_min":85,"x_max":722,"o":"m 503 1093 q 476 1038 503 1058 q 418 1017 449 1017 q 367 1034 388 1017 q 346 1079 346 1051 q 371 1142 346 1121 q 432 1163 396 1163 q 503 1093 503 1163 m 669 189 q 709 169 696 189 q 722 125 722 149 q 713 84 722 96 q 679 60 704 72 q 535 15 621 32 q 350 -1 449 -1 q 169 40 226 -1 q 98 141 111 82 q 85 296 85 200 q 93 498 85 399 q 122 751 101 597 q 175 848 132 818 q 269 878 218 878 q 410 881 313 878 l 531 882 q 639 878 606 882 q 701 859 681 869 q 721 824 721 849 q 702 769 721 796 q 646 743 683 743 q 522 749 603 743 q 401 754 442 754 q 333 750 367 754 q 278 740 294 747 q 258 717 261 733 q 239 506 239 574 q 301 501 271 501 q 385 506 340 501 q 442 511 429 510 q 568 518 515 518 q 615 507 599 518 q 631 476 631 496 q 615 429 631 446 q 558 404 599 413 q 438 389 510 394 q 299 383 367 383 q 233 386 275 383 q 229 229 229 301 q 360 131 229 131 q 475 140 429 131 q 581 168 521 150 q 669 189 636 189 z "},"Ẹ":{"ha":767,"x_min":85,"x_max":722,"o":"m 669 189 q 709 169 696 189 q 722 125 722 149 q 713 84 722 96 q 679 60 704 72 q 535 15 621 32 q 350 -1 449 -1 q 169 40 226 -1 q 98 141 111 82 q 85 296 85 200 q 93 498 85 399 q 122 751 101 597 q 175 848 132 818 q 269 878 218 878 q 410 881 313 878 l 531 882 q 639 878 606 882 q 701 859 681 869 q 721 824 721 849 q 702 769 721 796 q 646 743 683 743 q 522 749 603 743 q 401 754 442 754 q 333 750 367 754 q 278 740 294 747 q 258 717 261 733 q 239 506 239 574 q 301 501 271 501 q 385 506 340 501 q 442 511 429 510 q 568 518 515 518 q 615 507 599 518 q 631 476 631 496 q 615 429 631 446 q 558 404 599 413 q 438 389 510 394 q 299 383 367 383 q 233 386 275 383 q 229 229 229 301 q 360 131 229 131 q 475 140 429 131 q 581 168 521 150 q 669 189 636 189 m 483 -147 q 458 -200 483 -181 q 403 -219 432 -219 q 354 -203 374 -219 q 335 -161 335 -187 q 358 -101 335 -121 q 417 -82 382 -82 q 483 -147 483 -82 z "},"È":{"ha":767,"x_min":85,"x_max":722,"o":"m 308 1200 q 357 1187 338 1200 q 393 1140 376 1174 q 419 1097 407 1111 q 441 1073 431 1082 q 457 1060 451 1064 q 479 1039 474 1046 q 485 1024 485 1032 q 478 1003 485 1011 q 457 996 471 996 q 406 1004 439 996 q 353 1025 374 1013 q 278 1083 313 1049 q 243 1156 243 1118 q 261 1188 243 1175 q 308 1200 279 1200 m 669 189 q 709 169 696 189 q 722 125 722 149 q 713 84 722 96 q 679 60 704 72 q 535 15 621 32 q 350 -1 449 -1 q 169 40 226 -1 q 98 141 111 82 q 85 296 85 200 q 93 498 85 399 q 122 751 101 597 q 175 848 132 818 q 269 878 218 878 q 410 881 313 878 l 531 882 q 639 878 606 882 q 701 859 681 869 q 721 824 721 849 q 702 769 721 796 q 646 743 683 743 q 522 749 603 743 q 401 754 442 754 q 333 750 367 754 q 278 740 294 747 q 258 717 261 733 q 239 506 239 574 q 301 501 271 501 q 385 506 340 501 q 442 511 429 510 q 568 518 515 518 q 615 507 599 518 q 631 476 631 496 q 615 429 631 446 q 558 404 599 413 q 438 389 510 394 q 299 383 367 383 q 233 386 275 383 q 229 229 229 301 q 360 131 229 131 q 475 140 429 131 q 581 168 521 150 q 669 189 636 189 z "},"Ẻ":{"ha":767,"x_min":85,"x_max":722,"o":"m 333 1147 q 308 1158 318 1147 q 297 1185 297 1169 q 347 1240 297 1222 q 439 1257 396 1257 q 533 1215 479 1257 q 553 1188 543 1208 q 563 1146 563 1168 q 540 1070 563 1094 q 467 1025 517 1046 q 453 1008 453 1019 q 462 988 453 1000 q 471 971 471 975 q 463 950 471 960 q 440 940 456 940 q 369 979 381 940 q 365 996 368 983 q 361 1017 361 1008 q 383 1061 361 1043 q 399 1071 389 1067 q 414 1078 410 1075 q 453 1100 439 1089 q 467 1132 467 1111 q 452 1168 467 1161 q 410 1175 438 1175 q 365 1161 393 1175 q 333 1147 338 1147 m 669 189 q 709 169 696 189 q 722 125 722 149 q 713 84 722 96 q 679 60 704 72 q 535 15 621 32 q 350 -1 449 -1 q 169 40 226 -1 q 98 141 111 82 q 85 296 85 200 q 93 498 85 399 q 122 751 101 597 q 175 848 132 818 q 269 878 218 878 q 410 881 313 878 l 531 882 q 639 878 606 882 q 701 859 681 869 q 721 824 721 849 q 702 769 721 796 q 646 743 683 743 q 522 749 603 743 q 401 754 442 754 q 333 750 367 754 q 278 740 294 747 q 258 717 261 733 q 239 506 239 574 q 301 501 271 501 q 385 506 340 501 q 442 511 429 510 q 568 518 515 518 q 615 507 599 518 q 631 476 631 496 q 615 429 631 446 q 558 404 599 413 q 438 389 510 394 q 299 383 367 383 q 233 386 275 383 q 229 229 229 301 q 360 131 229 131 q 475 140 429 131 q 581 168 521 150 q 669 189 636 189 z "},"Ȇ":{"ha":767,"x_min":85,"x_max":722,"o":"m 622 1046 q 632 1011 632 1026 q 619 994 632 1003 q 590 985 607 985 q 572 990 581 985 q 550 1010 564 996 q 504 1044 533 1028 q 439 1060 475 1060 q 322 1004 369 1060 q 299 984 310 990 q 275 978 289 978 q 256 987 265 978 q 246 1008 246 996 q 253 1040 246 1026 q 315 1121 275 1088 q 436 1154 356 1154 q 622 1046 557 1154 m 669 189 q 709 169 696 189 q 722 125 722 149 q 713 84 722 96 q 679 60 704 72 q 535 15 621 32 q 350 -1 449 -1 q 169 40 226 -1 q 98 141 111 82 q 85 296 85 200 q 93 498 85 399 q 122 751 101 597 q 175 848 132 818 q 269 878 218 878 q 410 881 313 878 l 531 882 q 639 878 606 882 q 701 859 681 869 q 721 824 721 849 q 702 769 721 796 q 646 743 683 743 q 522 749 603 743 q 401 754 442 754 q 333 750 367 754 q 278 740 294 747 q 258 717 261 733 q 239 506 239 574 q 301 501 271 501 q 385 506 340 501 q 442 511 429 510 q 568 518 515 518 q 615 507 599 518 q 631 476 631 496 q 615 429 631 446 q 558 404 599 413 q 438 389 510 394 q 299 383 367 383 q 233 386 275 383 q 229 229 229 301 q 360 131 229 131 q 475 140 429 131 q 581 168 521 150 q 669 189 636 189 z "},"Ē":{"ha":767,"x_min":85,"x_max":722,"o":"m 376 996 q 318 994 349 996 q 279 992 288 992 q 246 1001 254 992 q 238 1040 238 1010 q 284 1084 238 1075 q 429 1093 331 1093 q 565 1088 513 1093 q 617 1068 617 1083 q 599 1013 617 1025 q 532 1000 582 1000 l 376 996 m 669 189 q 709 169 696 189 q 722 125 722 149 q 713 84 722 96 q 679 60 704 72 q 535 15 621 32 q 350 -1 449 -1 q 169 40 226 -1 q 98 141 111 82 q 85 296 85 200 q 93 498 85 399 q 122 751 101 597 q 175 848 132 818 q 269 878 218 878 q 410 881 313 878 l 531 882 q 639 878 606 882 q 701 859 681 869 q 721 824 721 849 q 702 769 721 796 q 646 743 683 743 q 522 749 603 743 q 401 754 442 754 q 333 750 367 754 q 278 740 294 747 q 258 717 261 733 q 239 506 239 574 q 301 501 271 501 q 385 506 340 501 q 442 511 429 510 q 568 518 515 518 q 615 507 599 518 q 631 476 631 496 q 615 429 631 446 q 558 404 599 413 q 438 389 510 394 q 299 383 367 383 q 233 386 275 383 q 229 229 229 301 q 360 131 229 131 q 475 140 429 131 q 581 168 521 150 q 669 189 636 189 z "},"Ę":{"ha":767,"x_min":85,"x_max":722,"o":"m 669 189 q 709 169 696 189 q 722 125 722 149 q 713 84 722 96 q 679 60 704 72 q 593 18 621 35 q 512 -67 550 -11 q 474 -167 474 -122 q 522 -203 474 -203 q 556 -197 540 -203 q 576 -192 571 -192 q 599 -201 592 -192 q 606 -232 606 -210 q 577 -277 606 -260 q 506 -294 549 -294 q 413 -266 449 -294 q 376 -187 376 -237 q 390 -104 376 -137 q 426 -43 404 -71 q 474 6 451 -10 q 350 -1 408 -1 q 169 40 226 -1 q 98 141 111 82 q 85 296 85 200 q 93 498 85 399 q 122 751 101 597 q 175 848 132 818 q 269 878 218 878 q 410 881 313 878 l 531 882 q 639 878 606 882 q 701 859 681 869 q 721 824 721 849 q 702 769 721 796 q 646 743 683 743 q 522 749 603 743 q 401 754 442 754 q 333 750 367 754 q 278 740 294 747 q 258 717 261 733 q 239 506 239 574 q 301 501 271 501 q 385 506 340 501 q 442 511 429 510 q 568 518 515 518 q 615 507 599 518 q 631 476 631 496 q 615 429 631 446 q 558 404 599 413 q 438 389 510 394 q 299 383 367 383 q 233 386 275 383 q 229 229 229 301 q 360 131 229 131 q 475 140 429 131 q 581 168 521 150 q 669 189 636 189 z "},"Ẽ":{"ha":767,"x_min":85,"x_max":722,"o":"m 213 1001 q 238 1064 213 1036 q 300 1108 263 1092 q 372 1124 338 1124 q 474 1090 425 1124 q 538 1064 513 1063 q 560 1071 551 1064 q 573 1086 568 1078 q 579 1097 578 1094 q 597 1116 588 1110 q 622 1122 607 1122 q 655 1112 640 1122 q 669 1081 669 1101 q 649 1026 669 1053 q 598 981 629 999 q 535 964 567 964 q 476 974 499 964 q 428 1003 454 983 q 401 1021 411 1015 q 378 1026 390 1026 q 314 993 336 1026 q 257 961 292 961 q 228 972 243 961 q 213 1001 213 983 m 669 189 q 709 169 696 189 q 722 125 722 149 q 713 84 722 96 q 679 60 704 72 q 535 15 621 32 q 350 -1 449 -1 q 169 40 226 -1 q 98 141 111 82 q 85 296 85 200 q 93 498 85 399 q 122 751 101 597 q 175 848 132 818 q 269 878 218 878 q 410 881 313 878 l 531 882 q 639 878 606 882 q 701 859 681 869 q 721 824 721 849 q 702 769 721 796 q 646 743 683 743 q 522 749 603 743 q 401 754 442 754 q 333 750 367 754 q 278 740 294 747 q 258 717 261 733 q 239 506 239 574 q 301 501 271 501 q 385 506 340 501 q 442 511 429 510 q 568 518 515 518 q 615 507 599 518 q 631 476 631 496 q 615 429 631 446 q 558 404 599 413 q 438 389 510 394 q 299 383 367 383 q 233 386 275 383 q 229 229 229 301 q 360 131 229 131 q 475 140 429 131 q 581 168 521 150 q 669 189 636 189 z "},"F":{"ha":713,"x_min":100,"x_max":706,"o":"m 257 50 q 233 15 253 29 q 176 0 213 0 q 128 17 146 0 q 110 51 111 33 q 118 226 118 110 q 110 440 118 296 q 100 682 100 576 q 106 799 100 739 q 128 840 106 818 q 192 868 151 863 q 515 882 324 882 l 560 882 q 658 864 610 882 q 706 801 706 846 q 692 756 706 772 q 640 739 678 739 q 599 742 622 739 q 565 746 575 744 q 483 754 513 754 q 240 732 322 754 q 243 583 240 686 l 244 494 q 374 501 317 494 q 439 508 431 507 q 535 517 511 517 q 591 502 568 517 q 614 457 614 488 q 517 388 614 388 q 475 386 493 388 q 444 383 457 385 q 365 378 394 378 q 257 374 301 378 q 261 265 257 322 q 263 210 261 247 q 265 142 265 172 q 264 93 265 115 q 257 50 263 71 z "},"G":{"ha":958,"x_min":69,"x_max":886,"o":"m 738 668 q 635 731 678 711 q 535 751 592 751 q 339 693 421 751 q 246 574 276 647 q 215 408 215 500 q 256 255 215 321 q 360 154 296 189 q 493 119 424 119 q 613 141 563 119 q 694 197 664 163 q 742 356 742 257 q 719 375 742 369 q 656 381 697 381 l 556 379 q 492 394 515 379 q 468 433 468 410 q 490 483 468 467 q 550 499 513 499 q 669 493 594 499 q 778 488 744 488 q 856 457 826 488 q 886 368 886 426 q 863 242 886 314 q 796 113 839 169 q 673 28 754 57 q 493 0 592 0 q 335 26 411 0 q 207 100 258 53 q 106 242 143 160 q 69 407 69 325 q 126 640 69 526 q 278 815 182 753 q 394 861 319 843 q 532 879 469 879 q 703 849 629 879 q 815 764 776 819 q 832 719 832 739 q 813 678 832 697 q 774 658 793 658 q 754 661 765 658 q 738 668 743 664 z "},"Ǵ":{"ha":958,"x_min":69,"x_max":886,"o":"m 621 1208 q 667 1196 650 1208 q 685 1164 685 1183 q 649 1091 685 1126 q 575 1033 614 1056 q 522 1013 554 1021 q 472 1004 489 1004 q 443 1032 443 1004 q 449 1047 443 1040 q 472 1068 454 1054 q 490 1084 478 1074 q 513 1109 501 1094 q 535 1149 524 1124 q 572 1195 551 1182 q 621 1208 592 1208 m 738 668 q 635 731 678 711 q 535 751 592 751 q 339 693 421 751 q 246 574 276 647 q 215 408 215 500 q 256 255 215 321 q 360 154 296 189 q 493 119 424 119 q 613 141 563 119 q 694 197 664 163 q 742 356 742 257 q 719 375 742 369 q 656 381 697 381 l 556 379 q 492 394 515 379 q 468 433 468 410 q 490 483 468 467 q 550 499 513 499 q 669 493 594 499 q 778 488 744 488 q 856 457 826 488 q 886 368 886 426 q 863 242 886 314 q 796 113 839 169 q 673 28 754 57 q 493 0 592 0 q 335 26 411 0 q 207 100 258 53 q 106 242 143 160 q 69 407 69 325 q 126 640 69 526 q 278 815 182 753 q 394 861 319 843 q 532 879 469 879 q 703 849 629 879 q 815 764 776 819 q 832 719 832 739 q 813 678 832 697 q 774 658 793 658 q 754 661 765 658 q 738 668 743 664 z "},"Ğ":{"ha":946,"x_min":69,"x_max":886,"o":"m 308 1075 q 301 1093 304 1082 q 297 1111 297 1104 q 313 1128 297 1119 q 344 1138 328 1138 q 389 1113 361 1138 q 432 1076 410 1090 q 490 1063 454 1063 q 549 1076 524 1063 q 597 1117 574 1090 q 620 1138 610 1132 q 644 1143 631 1143 q 670 1134 656 1143 q 685 1113 685 1125 q 676 1081 685 1097 q 614 997 654 1032 q 493 961 574 961 q 308 1075 376 961 m 738 668 q 754 661 743 664 q 774 658 765 658 q 813 678 793 658 q 832 719 832 697 q 815 764 832 739 q 703 849 776 819 q 532 879 629 879 q 394 861 469 879 q 278 815 319 843 q 126 640 182 753 q 69 407 69 526 q 106 242 69 325 q 207 100 143 160 q 335 26 258 53 q 493 0 411 0 q 673 28 592 0 q 796 113 754 57 q 863 242 839 169 q 886 368 886 314 q 856 457 886 426 q 778 488 826 488 q 669 493 744 488 q 550 499 594 499 q 490 483 513 499 q 468 433 468 467 q 492 394 468 410 q 556 379 515 379 l 656 381 q 719 375 697 381 q 742 356 742 369 q 694 197 742 257 q 613 141 664 163 q 493 119 563 119 q 360 154 424 119 q 256 255 296 189 q 215 408 215 321 q 246 574 215 500 q 339 693 276 647 q 535 751 421 751 q 635 731 592 751 q 738 668 678 711 z "},"Ǧ":{"ha":946,"x_min":69,"x_max":886,"o":"m 486 975 q 438 984 456 975 q 400 1014 421 993 q 311 1107 376 1035 q 289 1133 297 1122 q 281 1151 281 1144 q 299 1176 281 1163 q 335 1189 317 1189 q 390 1172 367 1189 q 440 1119 413 1154 q 458 1098 446 1113 q 483 1074 471 1083 q 543 1133 503 1089 q 585 1176 569 1163 q 618 1189 601 1189 q 665 1176 642 1189 q 688 1151 688 1163 q 632 1081 688 1133 q 560 1003 585 1035 q 532 983 551 992 q 486 975 513 975 m 738 668 q 635 731 678 711 q 535 751 592 751 q 339 693 421 751 q 246 574 276 647 q 215 408 215 500 q 256 255 215 321 q 360 154 296 189 q 493 119 424 119 q 613 141 563 119 q 694 197 664 163 q 742 356 742 257 q 719 375 742 369 q 656 381 697 381 l 556 379 q 492 394 515 379 q 468 433 468 410 q 490 483 468 467 q 550 499 513 499 q 669 493 594 499 q 778 488 744 488 q 856 457 826 488 q 886 368 886 426 q 863 242 886 314 q 796 113 839 169 q 673 28 754 57 q 493 0 592 0 q 335 26 411 0 q 207 100 258 53 q 106 242 143 160 q 69 407 69 325 q 126 640 69 526 q 278 815 182 753 q 394 861 319 843 q 532 879 469 879 q 703 849 629 879 q 815 764 776 819 q 832 719 832 739 q 813 678 832 697 q 774 658 793 658 q 754 661 765 658 q 738 668 743 664 z "},"Ĝ":{"ha":946,"x_min":69,"x_max":886,"o":"m 494 1164 q 544 1154 526 1164 q 576 1122 563 1144 q 618 1075 590 1101 q 669 1032 646 1049 q 700 988 700 1010 q 688 963 700 975 q 658 950 675 950 q 573 982 611 950 q 497 1067 535 1014 q 421 988 468 1025 q 335 950 374 950 q 303 962 313 950 q 293 988 293 974 q 310 1020 293 999 q 349 1058 328 1042 q 417 1128 388 1090 q 446 1153 429 1143 q 494 1164 463 1164 m 738 668 q 635 731 678 711 q 535 751 592 751 q 339 693 421 751 q 246 574 276 647 q 215 408 215 500 q 256 255 215 321 q 360 154 296 189 q 493 119 424 119 q 613 141 563 119 q 694 197 664 163 q 742 356 742 257 q 719 375 742 369 q 656 381 697 381 l 556 379 q 492 394 515 379 q 468 433 468 410 q 490 483 468 467 q 550 499 513 499 q 669 493 594 499 q 778 488 744 488 q 856 457 826 488 q 886 368 886 426 q 863 242 886 314 q 796 113 839 169 q 673 28 754 57 q 493 0 592 0 q 335 26 411 0 q 207 100 258 53 q 106 242 143 160 q 69 407 69 325 q 126 640 69 526 q 278 815 182 753 q 394 861 319 843 q 532 879 469 879 q 703 849 629 879 q 815 764 776 819 q 832 719 832 739 q 813 678 832 697 q 774 658 793 658 q 754 661 765 658 q 738 668 743 664 z "},"Ģ":{"ha":946,"x_min":69,"x_max":886,"o":"m 738 668 q 635 731 678 711 q 535 751 592 751 q 339 693 421 751 q 246 574 276 647 q 215 408 215 500 q 256 255 215 321 q 360 154 296 189 q 493 119 424 119 q 613 141 563 119 q 694 197 664 163 q 742 356 742 257 q 719 375 742 369 q 656 381 697 381 l 556 379 q 492 394 515 379 q 468 433 468 410 q 490 483 468 467 q 550 499 513 499 q 669 493 594 499 q 778 488 744 488 q 856 457 826 488 q 886 368 886 426 q 863 242 886 314 q 796 113 839 169 q 673 28 754 57 q 493 0 592 0 q 335 26 411 0 q 207 100 258 53 q 106 242 143 160 q 69 407 69 325 q 126 640 69 526 q 278 815 182 753 q 394 861 319 843 q 532 879 469 879 q 703 849 629 879 q 815 764 776 819 q 832 719 832 739 q 813 678 832 697 q 774 658 793 658 q 754 661 765 658 q 738 668 743 664 m 493 -207 q 481 -206 490 -207 q 467 -201 472 -206 q 428 -133 428 -179 q 437 -100 428 -115 q 461 -79 446 -85 q 492 -68 474 -72 q 528 -64 511 -64 q 575 -86 558 -64 q 592 -143 592 -108 q 572 -222 592 -183 q 525 -283 551 -261 q 449 -332 474 -332 q 414 -326 421 -332 q 407 -300 407 -321 q 430 -272 407 -289 q 460 -249 453 -254 q 493 -207 479 -232 z "},"Ġ":{"ha":946,"x_min":69,"x_max":886,"o":"m 571 1044 q 544 989 571 1010 q 486 968 517 968 q 435 985 456 968 q 414 1031 414 1003 q 439 1093 414 1072 q 500 1114 464 1114 q 571 1044 571 1114 m 738 668 q 635 731 678 711 q 535 751 592 751 q 339 693 421 751 q 246 574 276 647 q 215 408 215 500 q 256 255 215 321 q 360 154 296 189 q 493 119 424 119 q 613 141 563 119 q 694 197 664 163 q 742 356 742 257 q 719 375 742 369 q 656 381 697 381 l 556 379 q 492 394 515 379 q 468 433 468 410 q 490 483 468 467 q 550 499 513 499 q 669 493 594 499 q 778 488 744 488 q 856 457 826 488 q 886 368 886 426 q 863 242 886 314 q 796 113 839 169 q 673 28 754 57 q 493 0 592 0 q 335 26 411 0 q 207 100 258 53 q 106 242 143 160 q 69 407 69 325 q 126 640 69 526 q 278 815 182 753 q 394 861 319 843 q 532 879 469 879 q 703 849 629 879 q 815 764 776 819 q 832 719 832 739 q 813 678 832 697 q 774 658 793 658 q 754 661 765 658 q 738 668 743 664 z "},"Ḡ":{"ha":946,"x_min":69,"x_max":886,"o":"m 433 981 q 375 978 406 981 q 336 976 344 976 q 303 985 311 976 q 294 1025 294 994 q 341 1069 294 1060 q 486 1078 388 1078 q 622 1073 569 1078 q 674 1053 674 1068 q 656 997 674 1010 q 589 985 639 985 l 433 981 m 738 668 q 635 731 678 711 q 535 751 592 751 q 339 693 421 751 q 246 574 276 647 q 215 408 215 500 q 256 255 215 321 q 360 154 296 189 q 493 119 424 119 q 613 141 563 119 q 694 197 664 163 q 742 356 742 257 q 719 375 742 369 q 656 381 697 381 l 556 379 q 492 394 515 379 q 468 433 468 410 q 490 483 468 467 q 550 499 513 499 q 669 493 594 499 q 778 488 744 488 q 856 457 826 488 q 886 368 886 426 q 863 242 886 314 q 796 113 839 169 q 673 28 754 57 q 493 0 592 0 q 335 26 411 0 q 207 100 258 53 q 106 242 143 160 q 69 407 69 325 q 126 640 69 526 q 278 815 182 753 q 394 861 319 843 q 532 879 469 879 q 703 849 629 879 q 815 764 776 819 q 832 719 832 739 q 813 678 832 697 q 774 658 793 658 q 754 661 765 658 q 738 668 743 664 z "},"H":{"ha":961,"x_min":100,"x_max":861,"o":"m 713 497 q 711 564 711 519 l 711 617 q 708 696 711 669 q 706 811 706 718 q 726 863 706 844 q 781 882 746 882 q 840 863 825 882 q 856 799 856 843 l 856 746 l 854 593 q 853 460 853 549 l 854 346 q 856 272 856 319 q 858 165 856 235 q 861 69 861 101 q 847 21 861 43 q 807 -1 832 -1 q 710 64 710 -1 q 713 144 710 100 q 715 242 715 176 q 713 374 715 288 q 488 368 647 368 q 332 369 388 368 q 251 375 276 369 l 250 215 q 257 133 250 200 q 264 56 264 89 q 240 16 264 35 q 194 -3 215 -3 q 126 22 144 -3 q 108 96 108 46 l 107 206 q 106 260 106 225 q 103 400 106 311 q 100 517 100 481 q 103 668 100 571 q 106 804 106 760 q 128 864 106 849 q 178 879 150 879 q 256 828 256 879 q 251 653 256 736 q 249 499 249 547 q 333 486 289 489 q 458 483 378 483 q 713 497 622 483 z "},"Ħ":{"ha":1000,"x_min":22,"x_max":978,"o":"m 474 743 q 724 749 625 743 l 724 808 q 745 863 724 843 q 803 882 767 882 q 863 861 847 882 q 879 796 879 840 l 879 757 l 913 758 q 978 693 978 758 q 955 650 978 669 q 901 631 932 631 l 879 631 q 876 528 879 606 q 875 464 875 507 l 876 369 q 879 274 879 306 l 883 74 q 868 24 883 47 q 828 0 853 0 q 729 68 729 0 l 731 147 q 732 189 732 164 q 731 371 732 332 q 550 365 678 365 l 482 365 l 394 365 q 274 372 317 365 l 272 224 q 279 133 271 192 q 283 99 281 122 q 286 57 286 75 q 263 16 286 35 q 218 -3 239 -3 q 149 22 167 -3 q 131 99 131 47 l 129 261 l 131 374 l 128 419 q 122 517 122 481 q 124 628 122 592 l 104 628 q 43 646 64 628 q 22 710 22 664 q 40 745 22 735 q 96 756 57 756 l 129 756 l 129 801 q 201 879 129 879 q 278 825 278 879 l 276 749 q 474 743 393 743 m 731 542 l 731 628 l 494 626 l 272 626 q 271 501 271 588 q 435 486 339 486 l 482 486 q 731 500 615 486 l 731 542 z "},"Ḫ":{"ha":961,"x_min":100,"x_max":861,"o":"m 713 497 q 711 564 711 519 l 711 617 q 708 696 711 669 q 706 811 706 718 q 726 863 706 844 q 781 882 746 882 q 840 863 825 882 q 856 799 856 843 l 856 746 l 854 593 q 853 460 853 549 l 854 346 q 856 272 856 319 q 858 165 856 235 q 861 69 861 101 q 847 21 861 43 q 807 -1 832 -1 q 710 64 710 -1 q 713 144 710 100 q 715 242 715 176 q 713 374 715 288 q 488 368 647 368 q 332 369 388 368 q 251 375 276 369 l 250 215 q 257 133 250 200 q 264 56 264 89 q 240 16 264 35 q 194 -3 215 -3 q 126 22 144 -3 q 108 96 108 46 l 107 206 q 106 260 106 225 q 103 400 106 311 q 100 517 100 481 q 103 668 100 571 q 106 804 106 760 q 128 864 106 849 q 178 879 150 879 q 256 828 256 879 q 251 653 256 736 q 249 499 249 547 q 333 486 289 489 q 458 483 378 483 q 713 497 622 483 m 308 -128 q 297 -93 297 -110 q 310 -76 297 -85 q 339 -67 322 -67 q 357 -72 349 -67 q 379 -92 365 -78 q 490 -142 429 -142 q 607 -86 558 -142 q 630 -66 619 -72 q 654 -60 640 -60 q 674 -69 664 -60 q 685 -90 685 -78 q 676 -122 685 -106 q 614 -203 654 -169 q 493 -236 574 -236 q 308 -128 372 -236 z "},"Ĥ":{"ha":961,"x_min":100,"x_max":861,"o":"m 482 1179 q 532 1169 514 1179 q 564 1138 550 1160 q 606 1090 578 1117 q 657 1047 633 1064 q 688 1003 688 1025 q 675 978 688 990 q 646 965 663 965 q 560 997 599 965 q 485 1082 522 1029 q 408 1003 456 1040 q 322 965 361 965 q 290 977 300 965 q 281 1003 281 989 q 298 1035 281 1014 q 336 1074 315 1057 q 404 1143 375 1106 q 433 1169 417 1158 q 482 1179 450 1179 m 713 497 q 711 564 711 519 l 711 617 q 708 696 711 669 q 706 811 706 718 q 726 863 706 844 q 781 882 746 882 q 840 863 825 882 q 856 799 856 843 l 856 746 l 854 593 q 853 460 853 549 l 854 346 q 856 272 856 319 q 858 165 856 235 q 861 69 861 101 q 847 21 861 43 q 807 -1 832 -1 q 710 64 710 -1 q 713 144 710 100 q 715 242 715 176 q 713 374 715 288 q 488 368 647 368 q 332 369 388 368 q 251 375 276 369 l 250 215 q 257 133 250 200 q 264 56 264 89 q 240 16 264 35 q 194 -3 215 -3 q 126 22 144 -3 q 108 96 108 46 l 107 206 q 106 260 106 225 q 103 400 106 311 q 100 517 100 481 q 103 668 100 571 q 106 804 106 760 q 128 864 106 849 q 178 879 150 879 q 256 828 256 879 q 251 653 256 736 q 249 499 249 547 q 333 486 289 489 q 458 483 378 483 q 713 497 622 483 z "},"Ḥ":{"ha":961,"x_min":100,"x_max":861,"o":"m 713 497 q 711 564 711 519 l 711 617 q 708 696 711 669 q 706 811 706 718 q 726 863 706 844 q 781 882 746 882 q 840 863 825 882 q 856 799 856 843 l 856 746 l 854 593 q 853 460 853 549 l 854 346 q 856 272 856 319 q 858 165 856 235 q 861 69 861 101 q 847 21 861 43 q 807 -1 832 -1 q 710 64 710 -1 q 713 144 710 100 q 715 242 715 176 q 713 374 715 288 q 488 368 647 368 q 332 369 388 368 q 251 375 276 369 l 250 215 q 257 133 250 200 q 264 56 264 89 q 240 16 264 35 q 194 -3 215 -3 q 126 22 144 -3 q 108 96 108 46 l 107 206 q 106 260 106 225 q 103 400 106 311 q 100 517 100 481 q 103 668 100 571 q 106 804 106 760 q 128 864 106 849 q 178 879 150 879 q 256 828 256 879 q 251 653 256 736 q 249 499 249 547 q 333 486 289 489 q 458 483 378 483 q 713 497 622 483 m 567 -147 q 541 -200 567 -181 q 486 -219 515 -219 q 438 -203 457 -219 q 418 -161 418 -187 q 442 -101 418 -121 q 500 -82 465 -82 q 567 -147 567 -82 z "},"I":{"ha":518,"x_min":63,"x_max":461,"o":"m 324 767 q 319 596 319 678 q 331 347 319 511 q 336 247 332 322 q 340 108 340 171 q 370 113 354 110 q 394 115 386 115 q 443 100 425 115 q 461 53 461 85 q 444 21 461 32 q 387 5 428 10 q 268 0 346 0 q 139 6 182 0 q 79 27 96 11 q 63 75 63 43 q 78 107 63 99 q 121 115 93 115 l 150 114 l 196 111 l 189 275 q 181 519 181 408 q 185 683 181 579 l 188 760 q 114 757 140 757 q 73 768 83 757 q 63 814 63 779 q 116 864 63 853 q 279 875 169 875 q 406 869 364 875 q 449 844 449 864 q 428 783 449 797 q 351 768 408 768 l 324 767 z "},"Ĳ":{"ha":1154,"x_min":63,"x_max":1117,"o":"m 628 231 q 646 138 628 167 q 703 110 664 110 q 835 189 800 110 q 871 406 871 268 q 863 592 871 472 q 854 761 854 706 q 706 819 706 761 q 717 865 706 854 q 754 876 729 876 q 788 874 769 876 q 814 872 806 872 q 867 868 842 868 q 951 872 913 868 q 1026 875 1001 875 q 1097 865 1076 875 q 1117 828 1117 856 q 1102 787 1117 799 q 1060 769 1088 775 l 996 763 q 1007 543 994 671 q 1013 470 1008 524 q 1017 372 1017 417 q 940 94 1017 192 q 713 -4 864 -4 q 555 51 618 -4 q 492 215 492 106 q 514 265 492 246 q 574 283 536 283 q 614 265 600 283 q 628 231 628 247 m 324 767 q 319 596 319 678 q 331 347 319 511 q 336 247 332 322 q 340 108 340 171 q 370 113 354 110 q 394 115 386 115 q 443 100 425 115 q 461 53 461 85 q 444 21 461 32 q 387 5 428 10 q 268 0 346 0 q 139 6 182 0 q 79 27 96 11 q 63 75 63 43 q 78 107 63 99 q 121 115 93 115 l 150 114 l 196 111 l 189 275 q 181 519 181 408 q 185 683 181 579 l 188 760 q 114 757 140 757 q 73 768 83 757 q 63 814 63 779 q 116 864 63 853 q 279 875 169 875 q 406 869 364 875 q 449 844 449 864 q 428 783 449 797 q 351 768 408 768 l 324 767 z "},"Í":{"ha":518,"x_min":63,"x_max":461,"o":"m 328 1200 q 374 1188 357 1200 q 392 1156 392 1175 q 356 1083 392 1118 q 282 1025 321 1047 q 228 1004 261 1013 q 179 996 196 996 q 150 1024 150 996 q 156 1039 150 1032 q 179 1060 161 1046 q 197 1076 185 1065 q 219 1101 208 1086 q 242 1140 231 1115 q 278 1187 258 1174 q 328 1200 299 1200 m 324 767 q 319 596 319 678 q 331 347 319 511 q 336 247 332 322 q 340 108 340 171 q 370 113 354 110 q 394 115 386 115 q 443 100 425 115 q 461 53 461 85 q 444 21 461 32 q 387 5 428 10 q 268 0 346 0 q 139 6 182 0 q 79 27 96 11 q 63 75 63 43 q 78 107 63 99 q 121 115 93 115 l 150 114 l 196 111 l 189 275 q 181 519 181 408 q 185 683 181 579 l 188 760 q 114 757 140 757 q 73 768 83 757 q 63 814 63 779 q 116 864 63 853 q 279 875 169 875 q 406 869 364 875 q 449 844 449 864 q 428 783 449 797 q 351 768 408 768 l 324 767 z "},"Ĭ":{"ha":518,"x_min":63,"x_max":461,"o":"m 74 1106 q 66 1124 69 1113 q 63 1142 63 1135 q 78 1159 63 1150 q 110 1168 93 1168 q 154 1143 126 1168 q 197 1107 175 1121 q 256 1093 219 1093 q 314 1107 289 1093 q 363 1147 339 1121 q 385 1168 375 1163 q 410 1174 396 1174 q 435 1165 421 1174 q 450 1143 450 1156 q 442 1111 450 1128 q 379 1027 419 1063 q 258 992 339 992 q 74 1106 142 992 m 351 768 q 428 783 408 768 q 449 844 449 797 q 406 869 449 864 q 279 875 364 875 q 116 864 169 875 q 63 814 63 853 q 73 768 63 779 q 114 757 83 757 q 188 760 140 757 l 185 683 q 181 519 181 579 q 189 275 181 408 l 196 111 l 150 114 l 121 115 q 78 107 93 115 q 63 75 63 99 q 79 27 63 43 q 139 6 96 11 q 268 0 182 0 q 387 5 346 0 q 444 21 428 10 q 461 53 461 32 q 443 100 461 85 q 394 115 425 115 q 370 113 386 115 q 340 108 354 110 q 336 247 340 171 q 331 347 332 322 q 319 596 319 511 q 324 767 319 678 l 351 768 z "},"Ǐ":{"ha":518,"x_min":51,"x_max":461,"o":"m 257 975 q 209 984 226 975 q 171 1014 192 993 q 82 1107 147 1036 q 60 1133 68 1122 q 51 1151 51 1144 q 69 1176 51 1163 q 106 1189 88 1189 q 160 1172 138 1189 q 211 1119 183 1154 q 229 1098 217 1113 q 254 1074 242 1083 q 314 1133 274 1089 q 356 1176 340 1163 q 389 1189 372 1189 q 435 1176 413 1189 q 458 1151 458 1163 q 403 1081 458 1133 q 331 1003 356 1035 q 303 983 322 992 q 257 975 283 975 m 324 767 q 319 596 319 678 q 331 347 319 511 q 336 247 332 322 q 340 108 340 171 q 370 113 354 110 q 394 115 386 115 q 443 100 425 115 q 461 53 461 85 q 444 21 461 32 q 387 5 428 10 q 268 0 346 0 q 139 6 182 0 q 79 27 96 11 q 63 75 63 43 q 78 107 63 99 q 121 115 93 115 l 150 114 l 196 111 l 189 275 q 181 519 181 408 q 185 683 181 579 l 188 760 q 114 757 140 757 q 73 768 83 757 q 63 814 63 779 q 116 864 63 853 q 279 875 169 875 q 406 869 364 875 q 449 844 449 864 q 428 783 449 797 q 351 768 408 768 l 324 767 z "},"Î":{"ha":518,"x_min":60,"x_max":467,"o":"m 261 1194 q 311 1185 293 1194 q 343 1153 329 1175 q 385 1106 357 1132 q 436 1063 413 1079 q 467 1018 467 1040 q 454 993 467 1006 q 425 981 442 981 q 340 1013 378 981 q 264 1097 301 1044 q 188 1018 235 1056 q 101 981 140 981 q 69 992 79 981 q 60 1018 60 1004 q 77 1051 60 1029 q 115 1089 94 1072 q 183 1158 154 1121 q 213 1184 196 1174 q 261 1194 229 1194 m 324 767 q 319 596 319 678 q 331 347 319 511 q 336 247 332 322 q 340 108 340 171 q 370 113 354 110 q 394 115 386 115 q 443 100 425 115 q 461 53 461 85 q 444 21 461 32 q 387 5 428 10 q 268 0 346 0 q 139 6 182 0 q 79 27 96 11 q 63 75 63 43 q 78 107 63 99 q 121 115 93 115 l 150 114 l 196 111 l 189 275 q 181 519 181 408 q 185 683 181 579 l 188 760 q 114 757 140 757 q 73 768 83 757 q 63 814 63 779 q 116 864 63 853 q 279 875 169 875 q 406 869 364 875 q 449 844 449 864 q 428 783 449 797 q 351 768 408 768 l 324 767 z "},"Ȉ":{"ha":518,"x_min":29,"x_max":461,"o":"m 89 1200 q 122 1192 111 1200 q 143 1167 132 1183 q 160 1142 154 1150 q 173 1123 167 1131 q 183 1110 179 1115 q 198 1090 188 1104 q 215 1064 208 1076 q 229 1021 229 1036 q 218 1006 229 1011 q 192 1001 207 1001 q 165 1008 178 1001 q 131 1036 151 1015 q 29 1168 29 1138 q 44 1193 29 1186 q 89 1200 58 1200 m 292 1200 q 325 1192 314 1200 q 347 1167 336 1183 q 364 1142 358 1150 l 386 1113 q 418 1064 407 1085 q 432 1021 432 1036 q 422 1006 432 1011 q 394 1001 411 1001 q 368 1008 381 1001 q 335 1036 356 1015 q 262 1114 292 1079 q 232 1168 232 1149 q 247 1193 232 1186 q 292 1200 261 1200 m 324 767 q 319 596 319 678 q 331 347 319 511 q 336 247 332 322 q 340 108 340 171 q 370 113 354 110 q 394 115 386 115 q 443 100 425 115 q 461 53 461 85 q 444 21 461 32 q 387 5 428 10 q 268 0 346 0 q 139 6 182 0 q 79 27 96 11 q 63 75 63 43 q 78 107 63 99 q 121 115 93 115 l 150 114 l 196 111 l 189 275 q 181 519 181 408 q 185 683 181 579 l 188 760 q 114 757 140 757 q 73 768 83 757 q 63 814 63 779 q 116 864 63 853 q 279 875 169 875 q 406 869 364 875 q 449 844 449 864 q 428 783 449 797 q 351 768 408 768 l 324 767 z "},"Ï":{"ha":518,"x_min":63,"x_max":461,"o":"m 110 1156 q 178 1137 149 1156 q 208 1081 208 1118 q 185 1039 208 1054 q 128 1024 163 1024 q 81 1041 94 1024 q 68 1078 68 1058 q 76 1133 68 1110 q 110 1156 83 1156 m 344 1156 q 412 1137 382 1156 q 442 1081 442 1118 q 419 1039 442 1054 q 361 1024 396 1024 q 315 1041 328 1024 q 301 1078 301 1058 q 309 1133 301 1110 q 344 1156 317 1156 m 324 767 q 319 596 319 678 q 331 347 319 511 q 336 247 332 322 q 340 108 340 171 q 370 113 354 110 q 394 115 386 115 q 443 100 425 115 q 461 53 461 85 q 444 21 461 32 q 387 5 428 10 q 268 0 346 0 q 139 6 182 0 q 79 27 96 11 q 63 75 63 43 q 78 107 63 99 q 121 115 93 115 l 150 114 l 196 111 l 189 275 q 181 519 181 408 q 185 683 181 579 l 188 760 q 114 757 140 757 q 73 768 83 757 q 63 814 63 779 q 116 864 63 853 q 279 875 169 875 q 406 869 364 875 q 449 844 449 864 q 428 783 449 797 q 351 768 408 768 l 324 767 z "},"İ":{"ha":518,"x_min":63,"x_max":461,"o":"m 338 1093 q 310 1038 338 1058 q 253 1017 283 1017 q 201 1034 222 1017 q 181 1079 181 1051 q 206 1142 181 1121 q 267 1163 231 1163 q 338 1093 338 1163 m 324 767 q 319 596 319 678 q 331 347 319 511 q 336 247 332 322 q 340 108 340 171 q 370 113 354 110 q 394 115 386 115 q 443 100 425 115 q 461 53 461 85 q 444 21 461 32 q 387 5 428 10 q 268 0 346 0 q 139 6 182 0 q 79 27 96 11 q 63 75 63 43 q 78 107 63 99 q 121 115 93 115 l 150 114 l 196 111 l 189 275 q 181 519 181 408 q 185 683 181 579 l 188 760 q 114 757 140 757 q 73 768 83 757 q 63 814 63 779 q 116 864 63 853 q 279 875 169 875 q 406 869 364 875 q 449 844 449 864 q 428 783 449 797 q 351 768 408 768 l 324 767 z "},"Ị":{"ha":518,"x_min":63,"x_max":461,"o":"m 324 767 q 319 596 319 678 q 331 347 319 511 q 336 247 332 322 q 340 108 340 171 q 370 113 354 110 q 394 115 386 115 q 443 100 425 115 q 461 53 461 85 q 444 21 461 32 q 387 5 428 10 q 268 0 346 0 q 139 6 182 0 q 79 27 96 11 q 63 75 63 43 q 78 107 63 99 q 121 115 93 115 l 150 114 l 196 111 l 189 275 q 181 519 181 408 q 185 683 181 579 l 188 760 q 114 757 140 757 q 73 768 83 757 q 63 814 63 779 q 116 864 63 853 q 279 875 169 875 q 406 869 364 875 q 449 844 449 864 q 428 783 449 797 q 351 768 408 768 l 324 767 m 342 -147 q 316 -200 342 -181 q 261 -219 290 -219 q 213 -203 232 -219 q 193 -161 193 -187 q 217 -101 193 -121 q 275 -82 240 -82 q 342 -147 342 -82 z "},"Ì":{"ha":518,"x_min":63,"x_max":461,"o":"m 171 1200 q 219 1187 200 1200 q 256 1140 239 1174 q 281 1097 269 1111 q 303 1073 293 1082 q 319 1060 314 1064 q 342 1039 336 1046 q 347 1024 347 1032 q 340 1003 347 1011 q 319 996 333 996 q 269 1004 301 996 q 215 1025 236 1013 q 140 1083 175 1049 q 106 1156 106 1118 q 124 1188 106 1175 q 171 1200 142 1200 m 324 767 q 319 596 319 678 q 331 347 319 511 q 336 247 332 322 q 340 108 340 171 q 370 113 354 110 q 394 115 386 115 q 443 100 425 115 q 461 53 461 85 q 444 21 461 32 q 387 5 428 10 q 268 0 346 0 q 139 6 182 0 q 79 27 96 11 q 63 75 63 43 q 78 107 63 99 q 121 115 93 115 l 150 114 l 196 111 l 189 275 q 181 519 181 408 q 185 683 181 579 l 188 760 q 114 757 140 757 q 73 768 83 757 q 63 814 63 779 q 116 864 63 853 q 279 875 169 875 q 406 869 364 875 q 449 844 449 864 q 428 783 449 797 q 351 768 408 768 l 324 767 z "},"Ỉ":{"ha":518,"x_min":63,"x_max":461,"o":"m 161 1147 q 135 1158 146 1147 q 125 1185 125 1169 q 174 1240 125 1222 q 267 1257 224 1257 q 361 1215 307 1257 q 381 1188 371 1208 q 390 1146 390 1168 q 367 1070 390 1094 q 294 1025 344 1046 q 281 1008 281 1019 q 290 988 281 1000 q 299 971 299 975 q 291 950 299 960 q 268 940 283 940 q 197 979 208 940 q 192 996 196 983 q 189 1017 189 1008 q 211 1061 189 1043 q 227 1071 217 1067 q 242 1078 238 1075 q 281 1100 267 1089 q 294 1132 294 1111 q 280 1168 294 1161 q 238 1175 265 1175 q 193 1161 221 1175 q 161 1147 165 1147 m 324 767 q 319 596 319 678 q 331 347 319 511 q 336 247 332 322 q 340 108 340 171 q 370 113 354 110 q 394 115 386 115 q 443 100 425 115 q 461 53 461 85 q 444 21 461 32 q 387 5 428 10 q 268 0 346 0 q 139 6 182 0 q 79 27 96 11 q 63 75 63 43 q 78 107 63 99 q 121 115 93 115 l 150 114 l 196 111 l 189 275 q 181 519 181 408 q 185 683 181 579 l 188 760 q 114 757 140 757 q 73 768 83 757 q 63 814 63 779 q 116 864 63 853 q 279 875 169 875 q 406 869 364 875 q 449 844 449 864 q 428 783 449 797 q 351 768 408 768 l 324 767 z "},"Ȋ":{"ha":518,"x_min":63,"x_max":461,"o":"m 450 1046 q 460 1011 460 1026 q 447 994 460 1003 q 418 985 435 985 q 400 990 408 985 q 378 1010 392 996 q 332 1044 361 1028 q 267 1060 303 1060 q 150 1004 197 1060 q 127 984 138 990 q 103 978 117 978 q 83 987 93 978 q 74 1008 74 996 q 81 1040 74 1026 q 143 1121 103 1088 q 264 1154 183 1154 q 450 1046 385 1154 m 324 767 q 319 596 319 678 q 331 347 319 511 q 336 247 332 322 q 340 108 340 171 q 370 113 354 110 q 394 115 386 115 q 443 100 425 115 q 461 53 461 85 q 444 21 461 32 q 387 5 428 10 q 268 0 346 0 q 139 6 182 0 q 79 27 96 11 q 63 75 63 43 q 78 107 63 99 q 121 115 93 115 l 150 114 l 196 111 l 189 275 q 181 519 181 408 q 185 683 181 579 l 188 760 q 114 757 140 757 q 73 768 83 757 q 63 814 63 779 q 116 864 63 853 q 279 875 169 875 q 406 869 364 875 q 449 844 449 864 q 428 783 449 797 q 351 768 408 768 l 324 767 z "},"Ī":{"ha":518,"x_min":63,"x_max":461,"o":"m 207 996 q 149 994 181 996 q 108 992 118 992 q 76 1001 83 992 q 68 1040 68 1010 q 115 1084 68 1075 q 258 1093 161 1093 q 394 1088 343 1093 q 446 1068 446 1083 q 429 1013 446 1025 q 361 1000 413 1000 l 207 996 m 324 767 q 319 596 319 678 q 331 347 319 511 q 336 247 332 322 q 340 108 340 171 q 370 113 354 110 q 394 115 386 115 q 443 100 425 115 q 461 53 461 85 q 444 21 461 32 q 387 5 428 10 q 268 0 346 0 q 139 6 182 0 q 79 27 96 11 q 63 75 63 43 q 78 107 63 99 q 121 115 93 115 l 150 114 l 196 111 l 189 275 q 181 519 181 408 q 185 683 181 579 l 188 760 q 114 757 140 757 q 73 768 83 757 q 63 814 63 779 q 116 864 63 853 q 279 875 169 875 q 406 869 364 875 q 449 844 449 864 q 428 783 449 797 q 351 768 408 768 l 324 767 z "},"Į":{"ha":518,"x_min":63,"x_max":461,"o":"m 324 767 q 319 596 319 678 q 331 347 319 511 q 336 247 332 322 q 340 108 340 171 q 370 113 354 110 q 394 115 386 115 q 443 100 425 115 q 461 53 461 85 q 444 21 461 32 q 385 -3 428 10 q 305 -69 338 -17 q 272 -167 272 -121 q 321 -203 272 -203 q 354 -197 339 -203 q 375 -192 369 -192 q 397 -201 390 -192 q 404 -232 404 -210 q 376 -277 404 -260 q 304 -294 347 -294 q 211 -266 247 -294 q 175 -187 175 -237 q 268 0 175 -71 q 139 6 182 0 q 79 27 96 11 q 63 75 63 43 q 78 107 63 99 q 121 115 93 115 l 150 114 l 196 111 l 189 275 q 181 519 181 408 q 185 683 181 579 l 188 760 q 114 757 140 757 q 73 768 83 757 q 63 814 63 779 q 116 864 63 853 q 279 875 169 875 q 406 869 364 875 q 449 844 449 864 q 428 783 449 797 q 351 768 408 768 l 324 767 z "},"Ĩ":{"ha":518,"x_min":29,"x_max":486,"o":"m 29 1035 q 54 1097 29 1069 q 117 1141 79 1125 q 189 1157 154 1157 q 290 1124 242 1157 q 354 1097 329 1096 q 376 1104 368 1097 q 390 1119 385 1111 q 396 1131 394 1128 q 414 1149 404 1143 q 439 1156 424 1156 q 472 1145 457 1156 q 486 1114 486 1135 q 466 1059 486 1086 q 415 1015 446 1032 q 351 997 383 997 q 293 1007 315 997 q 244 1036 271 1017 q 217 1054 228 1049 q 194 1060 207 1060 q 131 1026 153 1060 q 74 994 108 994 q 44 1006 60 994 q 29 1035 29 1017 m 351 768 q 428 783 408 768 q 449 844 449 797 q 406 869 449 864 q 279 875 364 875 q 116 864 169 875 q 63 814 63 853 q 73 768 63 779 q 114 757 83 757 q 188 760 140 757 l 185 683 q 181 519 181 579 q 189 275 181 408 l 196 111 l 150 114 l 121 115 q 78 107 93 115 q 63 75 63 99 q 79 27 63 43 q 139 6 96 11 q 268 0 182 0 q 387 5 346 0 q 444 21 428 10 q 461 53 461 32 q 443 100 461 85 q 394 115 425 115 q 370 113 386 115 q 340 108 354 110 q 336 247 340 171 q 331 347 332 322 q 319 596 319 511 q 324 767 319 678 l 351 768 z "},"J":{"ha":681,"x_min":18,"x_max":643,"o":"m 154 231 q 172 138 154 167 q 229 110 190 110 q 362 189 326 110 q 397 406 397 268 q 389 592 397 472 q 381 761 381 706 q 232 819 232 761 q 244 865 232 854 q 281 876 256 876 q 314 874 296 876 q 340 872 332 872 q 393 868 368 868 q 478 872 439 868 q 553 875 528 875 q 623 865 603 875 q 643 828 643 856 q 628 787 643 799 q 586 769 614 775 l 522 763 q 533 543 521 671 q 539 470 535 524 q 543 372 543 417 q 467 94 543 192 q 239 -4 390 -4 q 81 51 144 -4 q 18 215 18 106 q 40 265 18 246 q 100 283 63 283 q 140 265 126 283 q 154 231 154 247 z "},"Ĵ":{"ha":681,"x_min":18,"x_max":643,"o":"m 433 1194 q 483 1185 465 1194 q 515 1153 501 1175 q 557 1106 529 1132 q 608 1063 585 1079 q 639 1018 639 1040 q 626 993 639 1006 q 597 981 614 981 q 512 1013 550 981 q 436 1097 474 1044 q 360 1018 407 1056 q 274 981 313 981 q 242 992 251 981 q 232 1018 232 1004 q 249 1051 232 1029 q 288 1089 267 1072 q 356 1158 326 1121 q 385 1184 368 1174 q 433 1194 401 1194 m 154 231 q 172 138 154 167 q 229 110 190 110 q 362 189 326 110 q 397 406 397 268 q 389 592 397 472 q 381 761 381 706 q 232 819 232 761 q 244 865 232 854 q 281 876 256 876 q 314 874 296 876 q 340 872 332 872 q 393 868 368 868 q 478 872 439 868 q 553 875 528 875 q 623 865 603 875 q 643 828 643 856 q 628 787 643 799 q 586 769 614 775 l 522 763 q 533 543 521 671 q 539 470 535 524 q 543 372 543 417 q 467 94 543 192 q 239 -4 390 -4 q 81 51 144 -4 q 18 215 18 106 q 40 265 18 246 q 100 283 63 283 q 140 265 126 283 q 154 231 154 247 z "},"K":{"ha":888,"x_min":97,"x_max":878,"o":"m 849 106 q 870 88 863 99 q 878 56 878 76 q 858 13 878 29 q 811 -3 838 -3 q 742 13 781 -3 q 590 141 664 47 q 411 411 515 235 q 250 297 332 350 q 252 230 250 268 q 254 174 254 192 q 257 67 257 93 q 242 22 257 43 q 196 0 226 0 q 132 15 151 0 q 108 57 113 29 q 97 190 97 126 q 108 399 97 263 q 119 594 119 529 q 117 667 119 619 q 108 736 115 704 q 103 799 103 781 q 122 863 103 843 q 182 882 142 882 q 233 865 213 882 q 256 818 253 847 q 263 636 263 700 q 258 537 261 601 q 251 456 254 472 q 437 608 299 482 q 633 806 575 733 l 651 826 q 689 867 674 856 q 731 878 704 878 q 778 860 757 878 q 800 819 800 843 q 753 726 800 774 q 522 504 638 607 q 849 106 685 200 z "},"Ķ":{"ha":888,"x_min":97,"x_max":878,"o":"m 849 106 q 870 88 863 99 q 878 56 878 76 q 858 13 878 29 q 811 -3 838 -3 q 742 13 781 -3 q 590 141 664 47 q 411 411 515 235 q 250 297 332 350 q 252 230 250 268 q 254 174 254 192 q 257 67 257 93 q 242 22 257 43 q 196 0 226 0 q 132 15 151 0 q 108 57 113 29 q 97 190 97 126 q 108 399 97 263 q 119 594 119 529 q 117 667 119 619 q 108 736 115 704 q 103 799 103 781 q 122 863 103 843 q 182 882 142 882 q 233 865 213 882 q 256 818 253 847 q 263 636 263 700 q 258 537 261 601 q 251 456 254 472 q 437 608 299 482 q 633 806 575 733 l 651 826 q 689 867 674 856 q 731 878 704 878 q 778 860 757 878 q 800 819 800 843 q 753 726 800 774 q 522 504 638 607 q 849 106 685 200 m 411 -207 q 399 -206 408 -207 q 385 -201 390 -206 q 346 -133 346 -179 q 355 -100 346 -115 q 379 -79 364 -85 q 410 -68 392 -72 q 446 -64 429 -64 q 493 -86 476 -64 q 510 -143 510 -108 q 490 -222 510 -183 q 443 -283 469 -261 q 367 -332 392 -332 q 332 -326 339 -332 q 325 -300 325 -321 q 348 -272 325 -289 q 378 -249 371 -254 q 411 -207 397 -232 z "},"L":{"ha":701,"x_min":97,"x_max":694,"o":"m 171 882 q 219 868 197 882 q 244 819 240 854 q 266 601 261 710 q 271 354 271 492 q 261 142 271 296 q 356 136 322 136 q 463 143 379 136 q 547 150 511 150 q 608 144 581 150 q 665 124 636 138 q 694 72 694 107 q 677 22 694 44 q 636 0 660 0 q 583 6 619 0 q 458 15 518 15 q 415 13 439 15 q 379 11 390 11 q 313 7 346 7 q 190 14 244 7 q 135 35 163 17 q 107 90 107 54 q 113 197 107 111 q 122 415 122 340 q 117 538 122 474 q 110 618 111 601 q 97 813 97 736 q 115 865 97 849 q 171 882 132 882 z "},"Ǉ":{"ha":1382,"x_min":97,"x_max":1344,"o":"m 171 882 q 219 868 197 882 q 244 819 240 854 q 266 601 261 710 q 271 354 271 492 q 261 142 271 296 q 356 136 322 136 q 463 143 379 136 q 547 150 511 150 q 608 144 581 150 q 665 124 636 138 q 694 72 694 107 q 677 22 694 44 q 636 0 660 0 q 583 6 619 0 q 458 15 518 15 q 415 13 439 15 q 379 11 390 11 q 313 7 346 7 q 190 14 244 7 q 135 35 163 17 q 107 90 107 54 q 113 197 107 111 q 122 415 122 340 q 117 538 122 474 q 110 618 111 601 q 97 813 97 736 q 115 865 97 849 q 171 882 132 882 m 856 231 q 874 138 856 167 q 931 110 892 110 q 1063 189 1028 110 q 1099 406 1099 268 q 1090 592 1099 472 q 1082 761 1082 706 q 933 819 933 761 q 945 865 933 854 q 982 876 957 876 q 1015 874 997 876 q 1042 872 1033 872 q 1094 868 1068 868 q 1179 872 1139 868 q 1254 875 1229 875 q 1324 865 1304 875 q 1344 828 1344 856 q 1330 787 1344 799 q 1288 769 1315 775 l 1224 763 q 1235 543 1222 671 q 1240 470 1236 524 q 1244 372 1244 417 q 1168 94 1244 192 q 940 -4 1092 -4 q 783 51 846 -4 q 719 215 719 106 q 742 265 719 246 q 801 283 764 283 q 842 265 828 283 q 856 231 856 247 z "},"Ĺ":{"ha":701,"x_min":97,"x_max":694,"o":"m 338 1169 q 384 1157 367 1169 q 401 1125 401 1144 q 366 1052 401 1088 q 292 994 331 1017 q 238 974 271 982 q 189 965 206 965 q 160 993 160 965 q 165 1008 160 1001 q 189 1029 171 1015 q 206 1045 194 1035 q 229 1070 218 1056 q 251 1110 240 1085 q 288 1156 268 1143 q 338 1169 308 1169 m 171 882 q 219 868 197 882 q 244 819 240 854 q 266 601 261 710 q 271 354 271 492 q 261 142 271 296 q 356 136 322 136 q 463 143 379 136 q 547 150 511 150 q 608 144 581 150 q 665 124 636 138 q 694 72 694 107 q 677 22 694 44 q 636 0 660 0 q 583 6 619 0 q 458 15 518 15 q 415 13 439 15 q 379 11 390 11 q 313 7 346 7 q 190 14 244 7 q 135 35 163 17 q 107 90 107 54 q 113 197 107 111 q 122 415 122 340 q 117 538 122 474 q 110 618 111 601 q 97 813 97 736 q 115 865 97 849 q 171 882 132 882 z "},"Ľ":{"ha":701,"x_min":97,"x_max":694,"o":"m 471 747 q 459 749 468 747 q 444 753 450 750 q 406 821 406 775 q 415 855 406 840 q 439 875 424 869 q 470 886 451 882 q 506 890 489 890 q 553 868 536 890 q 569 811 569 846 q 549 732 569 771 q 503 671 529 693 q 426 622 451 622 q 392 628 399 622 q 385 654 385 633 q 408 683 385 665 q 438 706 431 700 q 471 747 457 722 m 171 882 q 219 868 197 882 q 244 819 240 854 q 266 601 261 710 q 271 354 271 492 q 261 142 271 296 q 356 136 322 136 q 463 143 379 136 q 547 150 511 150 q 608 144 581 150 q 665 124 636 138 q 694 72 694 107 q 677 22 694 44 q 636 0 660 0 q 583 6 619 0 q 458 15 518 15 q 415 13 439 15 q 379 11 390 11 q 313 7 346 7 q 190 14 244 7 q 135 35 163 17 q 107 90 107 54 q 113 197 107 111 q 122 415 122 340 q 117 538 122 474 q 110 618 111 601 q 97 813 97 736 q 115 865 97 849 q 171 882 132 882 z "},"Ļ":{"ha":701,"x_min":97,"x_max":694,"o":"m 171 882 q 219 868 197 882 q 244 819 240 854 q 266 601 261 710 q 271 354 271 492 q 261 142 271 296 q 356 136 322 136 q 463 143 379 136 q 547 150 511 150 q 608 144 581 150 q 665 124 636 138 q 694 72 694 107 q 677 22 694 44 q 636 0 660 0 q 583 6 619 0 q 458 15 518 15 q 415 13 439 15 q 379 11 390 11 q 313 7 346 7 q 190 14 244 7 q 135 35 163 17 q 107 90 107 54 q 113 197 107 111 q 122 415 122 340 q 117 538 122 474 q 110 618 111 601 q 97 813 97 736 q 115 865 97 849 q 171 882 132 882 m 375 -207 q 363 -206 372 -207 q 349 -201 354 -204 q 310 -133 310 -179 q 319 -100 310 -115 q 343 -79 328 -85 q 374 -68 356 -72 q 410 -64 393 -64 q 457 -86 440 -64 q 474 -143 474 -108 q 453 -222 474 -183 q 407 -283 433 -261 q 331 -332 356 -332 q 296 -326 303 -332 q 289 -300 289 -321 q 312 -272 289 -289 q 342 -249 335 -254 q 375 -207 361 -232 z "},"Ŀ":{"ha":701,"x_min":97,"x_max":694,"o":"m 171 882 q 219 868 197 882 q 244 819 240 854 q 266 601 261 710 q 271 354 271 492 q 261 142 271 296 q 356 136 322 136 q 463 143 379 136 q 547 150 511 150 q 608 144 581 150 q 665 124 636 138 q 694 72 694 107 q 677 22 694 44 q 636 0 660 0 q 583 6 619 0 q 458 15 518 15 q 415 13 439 15 q 379 11 390 11 q 313 7 346 7 q 190 14 244 7 q 135 35 163 17 q 107 90 107 54 q 113 197 107 111 q 122 415 122 340 q 117 538 122 474 q 110 618 111 601 q 97 813 97 736 q 115 865 97 849 q 171 882 132 882 m 535 454 q 508 399 535 419 q 451 378 481 378 q 399 395 421 378 q 378 440 378 413 q 403 503 378 482 q 464 524 428 524 q 535 454 535 524 z "},"Ḷ":{"ha":701,"x_min":97,"x_max":694,"o":"m 171 882 q 219 868 197 882 q 244 819 240 854 q 266 601 261 710 q 271 354 271 492 q 261 142 271 296 q 356 136 322 136 q 463 143 379 136 q 547 150 511 150 q 608 144 581 150 q 665 124 636 138 q 694 72 694 107 q 677 22 694 44 q 636 0 660 0 q 583 6 619 0 q 458 15 518 15 q 415 13 439 15 q 379 11 390 11 q 313 7 346 7 q 190 14 244 7 q 135 35 163 17 q 107 90 107 54 q 113 197 107 111 q 122 415 122 340 q 117 538 122 474 q 110 618 111 601 q 97 813 97 736 q 115 865 97 849 q 171 882 132 882 m 468 -147 q 442 -200 468 -181 q 388 -219 417 -219 q 339 -203 358 -219 q 319 -161 319 -187 q 343 -101 319 -121 q 401 -82 367 -82 q 468 -147 468 -82 z "},"Ḹ":{"ha":701,"x_min":15,"x_max":694,"o":"m 154 981 q 96 978 126 981 q 57 976 65 976 q 24 985 32 976 q 15 1025 15 994 q 62 1069 15 1060 q 207 1078 108 1078 q 342 1073 290 1078 q 394 1053 394 1068 q 377 997 394 1010 q 310 985 360 985 l 154 981 m 171 882 q 219 868 197 882 q 244 819 240 854 q 266 601 261 710 q 271 354 271 492 q 261 142 271 296 q 356 136 322 136 q 463 143 379 136 q 547 150 511 150 q 608 144 581 150 q 665 124 636 138 q 694 72 694 107 q 677 22 694 44 q 636 0 660 0 q 583 6 619 0 q 458 15 518 15 q 415 13 439 15 q 379 11 390 11 q 313 7 346 7 q 190 14 244 7 q 135 35 163 17 q 107 90 107 54 q 113 197 107 111 q 122 415 122 340 q 117 538 122 474 q 110 618 111 601 q 97 813 97 736 q 115 865 97 849 q 171 882 132 882 m 475 -147 q 449 -200 475 -181 q 394 -219 424 -219 q 346 -203 365 -219 q 326 -161 326 -187 q 350 -101 326 -121 q 408 -82 374 -82 q 475 -147 475 -82 z "},"ǈ":{"ha":1044,"x_min":97,"x_max":957,"o":"m 836 892 q 918 868 885 888 q 951 806 951 849 q 924 755 951 774 q 857 736 897 736 q 799 756 815 736 q 783 796 783 775 q 793 865 783 836 q 836 892 803 893 m 171 882 q 219 868 197 882 q 244 819 240 854 q 266 601 261 710 q 271 354 271 492 q 261 142 271 296 q 356 136 322 136 q 463 143 379 136 q 547 150 511 150 q 608 144 581 150 q 665 124 636 138 q 694 72 694 107 q 677 22 694 44 q 636 0 660 0 q 583 6 619 0 q 458 15 518 15 q 415 13 439 15 q 379 11 390 11 q 313 7 346 7 q 190 14 244 7 q 135 35 163 17 q 107 90 107 54 q 113 197 107 111 q 122 415 122 340 q 117 538 122 474 q 110 618 111 601 q 97 813 97 736 q 115 865 97 849 q 171 882 132 882 m 882 603 q 933 584 915 603 q 951 544 951 565 q 949 501 951 532 q 944 410 944 456 q 949 294 944 351 q 951 210 951 236 q 957 -71 957 38 q 905 -230 957 -176 q 761 -283 853 -283 q 701 -262 733 -283 q 669 -215 669 -240 q 681 -182 669 -194 q 707 -169 692 -169 q 733 -174 717 -169 q 757 -178 749 -178 q 794 -171 781 -178 q 817 -136 808 -164 q 825 -50 825 -108 q 810 424 825 257 q 801 550 801 507 q 822 586 801 569 q 882 603 842 603 z "},"Ḻ":{"ha":701,"x_min":97,"x_max":694,"o":"m 171 882 q 219 868 197 882 q 244 819 240 854 q 266 601 261 710 q 271 354 271 492 q 261 142 271 296 q 356 136 322 136 q 463 143 379 136 q 547 150 511 150 q 608 144 581 150 q 665 124 636 138 q 694 72 694 107 q 677 22 694 44 q 636 0 660 0 q 583 6 619 0 q 458 15 518 15 q 415 13 439 15 q 379 11 390 11 q 313 7 346 7 q 190 14 244 7 q 135 35 163 17 q 107 90 107 54 q 113 197 107 111 q 122 415 122 340 q 117 538 122 474 q 110 618 111 601 q 97 813 97 736 q 115 865 97 849 q 171 882 132 882 m 329 -187 q 271 -190 301 -187 q 232 -193 240 -193 q 199 -184 207 -193 q 190 -144 190 -175 q 236 -99 190 -108 q 381 -90 282 -90 q 517 -95 465 -90 q 569 -117 569 -100 q 552 -171 569 -158 q 485 -183 535 -183 l 329 -187 z "},"Ł":{"ha":722,"x_min":15,"x_max":717,"o":"m 193 882 q 265 818 256 882 q 293 528 283 685 l 347 560 q 366 570 351 563 q 393 582 381 578 q 415 586 406 586 q 454 567 436 586 q 472 526 472 547 q 428 468 472 492 q 296 394 388 447 l 296 354 q 293 258 296 311 q 289 183 290 206 l 286 143 q 375 138 347 138 q 482 144 406 138 q 567 150 538 150 q 628 144 600 150 q 685 124 656 138 q 717 71 717 106 q 699 22 717 43 q 656 0 681 0 q 619 4 643 0 q 479 17 551 17 q 407 15 431 17 l 333 14 q 214 19 271 14 q 157 42 185 22 q 129 99 129 61 q 133 161 129 119 l 142 304 l 119 292 q 79 281 103 281 q 35 295 56 281 q 15 331 15 310 q 75 399 15 357 q 114 424 90 410 l 143 442 q 126 676 142 521 q 117 810 117 776 q 135 865 117 847 q 193 882 153 882 z "},"M":{"ha":1092,"x_min":100,"x_max":993,"o":"m 901 878 q 949 852 921 878 q 978 808 978 826 q 972 576 978 724 q 969 490 971 540 q 968 372 968 439 q 993 61 968 161 q 967 13 992 28 q 917 -1 942 -1 q 844 38 861 -1 q 826 149 826 76 q 832 642 826 417 q 583 343 672 464 q 558 326 583 343 q 519 306 535 306 q 460 324 483 306 q 414 376 436 342 l 347 471 q 246 618 278 568 q 258 271 246 490 q 268 81 268 144 q 251 24 268 47 q 199 1 235 1 q 140 15 163 1 q 115 57 117 29 q 117 135 117 81 q 110 399 117 243 l 107 474 l 104 571 q 101 672 103 614 q 100 797 100 729 q 190 881 100 881 q 247 867 218 881 q 289 826 275 853 q 371 665 300 778 q 510 454 442 553 q 610 571 571 532 q 720 697 676 639 q 815 838 764 756 q 851 866 828 854 q 901 878 875 878 z "},"Ṃ":{"ha":1092,"x_min":100,"x_max":993,"o":"m 901 878 q 949 852 921 878 q 978 808 978 826 q 972 576 978 724 q 969 490 971 540 q 968 372 968 439 q 993 61 968 161 q 967 13 992 28 q 917 -1 942 -1 q 844 38 861 -1 q 826 149 826 76 q 832 642 826 417 q 583 343 672 464 q 558 326 583 343 q 519 306 535 306 q 460 324 483 306 q 414 376 436 342 l 347 471 q 246 618 278 568 q 258 271 246 490 q 268 81 268 144 q 251 24 268 47 q 199 1 235 1 q 140 15 163 1 q 115 57 117 29 q 117 135 117 81 q 110 399 117 243 l 107 474 l 104 571 q 101 672 103 614 q 100 797 100 729 q 190 881 100 881 q 247 867 218 881 q 289 826 275 853 q 371 665 300 778 q 510 454 442 553 q 610 571 571 532 q 720 697 676 639 q 815 838 764 756 q 851 866 828 854 q 901 878 875 878 m 614 -147 q 588 -200 614 -181 q 533 -219 563 -219 q 485 -203 504 -219 q 465 -161 465 -187 q 489 -101 465 -121 q 547 -82 513 -82 q 614 -147 614 -82 z "},"N":{"ha":938,"x_min":100,"x_max":838,"o":"m 681 781 q 699 851 681 821 q 756 881 718 881 q 813 868 788 881 q 838 826 838 856 q 832 667 838 769 q 826 518 826 567 q 832 314 826 442 q 838 135 838 192 q 836 67 838 89 q 812 23 836 44 q 738 1 788 1 q 692 10 711 1 q 667 31 674 19 q 476 300 601 110 q 247 625 336 513 q 258 381 258 525 q 256 215 258 317 q 250 81 254 113 q 226 19 244 40 q 167 -3 207 -3 q 122 15 136 -3 q 104 75 107 32 q 111 246 103 132 q 115 308 113 264 q 118 388 118 353 q 108 607 118 483 q 100 808 100 743 q 124 860 100 842 q 181 878 149 878 q 239 864 208 878 q 563 417 358 714 l 693 217 q 694 279 694 239 q 692 432 694 350 q 688 543 689 514 q 681 781 681 678 z "},"Ǌ":{"ha":1618,"x_min":100,"x_max":1581,"o":"m 681 781 q 699 851 681 821 q 756 881 718 881 q 813 868 788 881 q 838 826 838 856 q 832 667 838 769 q 826 518 826 567 q 832 314 826 442 q 838 135 838 192 q 836 67 838 89 q 812 23 836 44 q 738 1 788 1 q 692 10 711 1 q 667 31 674 19 q 476 300 601 110 q 247 625 336 513 q 258 381 258 525 q 256 215 258 317 q 250 81 254 113 q 226 19 244 40 q 167 -3 207 -3 q 122 15 136 -3 q 104 75 107 32 q 111 246 103 132 q 115 308 113 264 q 118 388 118 353 q 108 607 118 483 q 100 808 100 743 q 124 860 100 842 q 181 878 149 878 q 239 864 208 878 q 563 417 358 714 l 693 217 q 694 279 694 239 q 692 432 694 350 q 688 543 689 514 q 681 781 681 678 m 1092 231 q 1110 138 1092 167 q 1167 110 1128 110 q 1299 189 1264 110 q 1335 406 1335 268 q 1326 592 1335 472 q 1318 761 1318 706 q 1169 819 1169 761 q 1181 865 1169 854 q 1218 876 1193 876 q 1251 874 1233 876 q 1278 872 1269 872 q 1331 868 1306 868 q 1415 872 1376 868 q 1490 875 1465 875 q 1560 865 1540 875 q 1581 828 1581 856 q 1566 787 1581 799 q 1524 769 1551 775 l 1460 763 q 1471 543 1458 671 q 1476 470 1472 524 q 1481 372 1481 417 q 1404 94 1481 192 q 1176 -4 1328 -4 q 1019 51 1082 -4 q 956 215 956 106 q 978 265 956 246 q 1038 283 1000 283 q 1078 265 1064 283 q 1092 231 1092 247 z "},"Ń":{"ha":938,"x_min":100,"x_max":838,"o":"m 569 1181 q 616 1168 599 1181 q 633 1136 633 1156 q 598 1063 633 1099 q 524 1006 563 1028 q 470 985 503 993 q 421 976 438 976 q 392 1004 392 976 q 397 1019 392 1013 q 421 1040 403 1026 q 438 1056 426 1046 q 461 1081 450 1067 q 483 1121 472 1096 q 520 1167 500 1154 q 569 1181 540 1181 m 681 781 q 699 851 681 821 q 756 881 718 881 q 813 868 788 881 q 838 826 838 856 q 832 667 838 769 q 826 518 826 567 q 832 314 826 442 q 838 135 838 192 q 836 67 838 89 q 812 23 836 44 q 738 1 788 1 q 692 10 711 1 q 667 31 674 19 q 476 300 601 110 q 247 625 336 513 q 258 381 258 525 q 256 215 258 317 q 250 81 254 113 q 226 19 244 40 q 167 -3 207 -3 q 122 15 136 -3 q 104 75 107 32 q 111 246 103 132 q 115 308 113 264 q 118 388 118 353 q 108 607 118 483 q 100 808 100 743 q 124 860 100 842 q 181 878 149 878 q 239 864 208 878 q 563 417 358 714 l 693 217 q 694 279 694 239 q 692 432 694 350 q 688 543 689 514 q 681 781 681 678 z "},"Ň":{"ha":938,"x_min":100,"x_max":838,"o":"m 474 972 q 426 981 443 972 q 388 1011 408 990 q 299 1104 364 1032 q 276 1131 285 1119 q 268 1149 268 1142 q 286 1173 268 1160 q 322 1186 304 1186 q 377 1169 354 1186 q 428 1117 400 1151 q 446 1095 433 1110 q 471 1071 458 1081 q 531 1131 490 1086 q 573 1173 557 1160 q 606 1186 589 1186 q 652 1173 629 1186 q 675 1149 675 1160 q 619 1078 675 1131 q 547 1000 572 1032 q 519 981 539 989 q 474 972 500 972 m 681 781 q 699 851 681 821 q 756 881 718 881 q 813 868 788 881 q 838 826 838 856 q 832 667 838 769 q 826 518 826 567 q 832 314 826 442 q 838 135 838 192 q 836 67 838 89 q 812 23 836 44 q 738 1 788 1 q 692 10 711 1 q 667 31 674 19 q 476 300 601 110 q 247 625 336 513 q 258 381 258 525 q 256 215 258 317 q 250 81 254 113 q 226 19 244 40 q 167 -3 207 -3 q 122 15 136 -3 q 104 75 107 32 q 111 246 103 132 q 115 308 113 264 q 118 388 118 353 q 108 607 118 483 q 100 808 100 743 q 124 860 100 842 q 181 878 149 878 q 239 864 208 878 q 563 417 358 714 l 693 217 q 694 279 694 239 q 692 432 694 350 q 688 543 689 514 q 681 781 681 678 z "},"Ņ":{"ha":938,"x_min":100,"x_max":838,"o":"m 681 781 q 699 851 681 821 q 756 881 718 881 q 813 868 788 881 q 838 826 838 856 q 832 667 838 769 q 826 518 826 567 q 832 314 826 442 q 838 135 838 192 q 836 67 838 89 q 812 23 836 44 q 738 1 788 1 q 692 10 711 1 q 667 31 674 19 q 476 300 601 110 q 247 625 336 513 q 258 381 258 525 q 256 215 258 317 q 250 81 254 113 q 226 19 244 40 q 167 -3 207 -3 q 122 15 136 -3 q 104 75 107 32 q 111 246 103 132 q 115 308 113 264 q 118 388 118 353 q 108 607 118 483 q 100 808 100 743 q 124 860 100 842 q 181 878 149 878 q 239 864 208 878 q 563 417 358 714 l 693 217 q 694 279 694 239 q 692 432 694 350 q 688 543 689 514 q 681 781 681 678 m 475 -207 q 463 -206 472 -207 q 449 -201 454 -204 q 410 -133 410 -179 q 419 -100 410 -115 q 443 -79 428 -85 q 474 -68 456 -72 q 510 -64 493 -64 q 557 -86 540 -64 q 574 -143 574 -108 q 553 -222 574 -183 q 507 -283 533 -261 q 431 -332 456 -332 q 396 -326 403 -332 q 389 -300 389 -321 q 412 -272 389 -289 q 442 -249 435 -254 q 475 -207 461 -232 z "},"Ṅ":{"ha":938,"x_min":100,"x_max":838,"o":"m 558 1078 q 531 1022 558 1043 q 474 1001 504 1001 q 422 1019 443 1001 q 401 1064 401 1036 q 426 1126 401 1106 q 488 1147 451 1147 q 558 1078 558 1147 m 681 781 q 699 851 681 821 q 756 881 718 881 q 813 868 788 881 q 838 826 838 856 q 832 667 838 769 q 826 518 826 567 q 832 314 826 442 q 838 135 838 192 q 836 67 838 89 q 812 23 836 44 q 738 1 788 1 q 692 10 711 1 q 667 31 674 19 q 476 300 601 110 q 247 625 336 513 q 258 381 258 525 q 256 215 258 317 q 250 81 254 113 q 226 19 244 40 q 167 -3 207 -3 q 122 15 136 -3 q 104 75 107 32 q 111 246 103 132 q 115 308 113 264 q 118 388 118 353 q 108 607 118 483 q 100 808 100 743 q 124 860 100 842 q 181 878 149 878 q 239 864 208 878 q 563 417 358 714 l 693 217 q 694 279 694 239 q 692 432 694 350 q 688 543 689 514 q 681 781 681 678 z "},"Ṇ":{"ha":938,"x_min":100,"x_max":838,"o":"m 681 781 q 699 851 681 821 q 756 881 718 881 q 813 868 788 881 q 838 826 838 856 q 832 667 838 769 q 826 518 826 567 q 832 314 826 442 q 838 135 838 192 q 836 67 838 89 q 812 23 836 44 q 738 1 788 1 q 692 10 711 1 q 667 31 674 19 q 476 300 601 110 q 247 625 336 513 q 258 381 258 525 q 256 215 258 317 q 250 81 254 113 q 226 19 244 40 q 167 -3 207 -3 q 122 15 136 -3 q 104 75 107 32 q 111 246 103 132 q 115 308 113 264 q 118 388 118 353 q 108 607 118 483 q 100 808 100 743 q 124 860 100 842 q 181 878 149 878 q 239 864 208 878 q 563 417 358 714 l 693 217 q 694 279 694 239 q 692 432 694 350 q 688 543 689 514 q 681 781 681 678 m 554 -147 q 528 -200 554 -181 q 474 -219 503 -219 q 425 -203 444 -219 q 406 -161 406 -187 q 429 -101 406 -121 q 488 -82 453 -82 q 554 -147 554 -82 z "},"Ŋ":{"ha":938,"x_min":100,"x_max":838,"o":"m 674 21 q 247 625 572 176 q 258 381 258 525 q 256 215 258 317 q 250 81 254 113 q 226 19 244 40 q 167 -3 207 -3 q 122 15 136 -3 q 104 75 107 32 q 111 246 103 132 q 115 308 113 264 q 118 388 118 353 q 108 607 118 483 q 100 808 100 743 q 124 860 100 842 q 181 878 149 878 q 217 872 200 878 q 244 856 235 865 q 390 665 317 767 q 563 417 463 563 l 693 217 q 694 279 694 239 q 692 432 694 350 q 688 543 689 514 q 681 781 681 678 q 699 851 681 821 q 756 881 718 881 q 813 868 788 881 q 838 826 838 856 q 832 667 838 769 q 826 518 826 567 q 829 296 826 454 q 833 56 833 174 q 832 -44 833 -15 q 766 -207 829 -151 q 610 -262 703 -262 q 510 -237 556 -262 q 465 -162 465 -211 q 485 -126 465 -139 q 529 -114 504 -114 q 556 -119 543 -114 q 579 -129 568 -124 q 600 -139 589 -135 q 622 -143 611 -143 q 667 -123 647 -143 q 688 -47 688 -103 q 685 -8 688 -22 q 674 21 682 7 z "},"ǋ":{"ha":1281,"x_min":100,"x_max":1193,"o":"m 1072 892 q 1154 868 1121 888 q 1188 806 1188 849 q 1160 755 1188 774 q 1093 736 1133 736 q 1035 756 1051 736 q 1019 796 1019 775 q 1029 865 1019 836 q 1072 892 1039 893 m 681 781 q 699 851 681 821 q 756 881 718 881 q 813 868 788 881 q 838 826 838 856 q 832 667 838 769 q 826 518 826 567 q 832 314 826 442 q 838 135 838 192 q 836 67 838 89 q 812 23 836 44 q 738 1 788 1 q 692 10 711 1 q 667 31 674 19 q 476 300 601 110 q 247 625 336 513 q 258 381 258 525 q 256 215 258 317 q 250 81 254 113 q 226 19 244 40 q 167 -3 207 -3 q 122 15 136 -3 q 104 75 107 32 q 111 246 103 132 q 115 308 113 264 q 118 388 118 353 q 108 607 118 483 q 100 808 100 743 q 124 860 100 842 q 181 878 149 878 q 239 864 208 878 q 563 417 358 714 l 693 217 q 694 279 694 239 q 692 432 694 350 q 688 543 689 514 q 681 781 681 678 m 1118 603 q 1169 584 1151 603 q 1188 544 1188 565 q 1185 501 1188 532 q 1181 410 1181 456 q 1185 294 1181 351 q 1188 210 1188 236 q 1193 -71 1193 38 q 1141 -230 1193 -176 q 997 -283 1089 -283 q 938 -262 969 -283 q 906 -215 906 -240 q 917 -182 906 -194 q 943 -169 928 -169 q 969 -174 953 -169 q 993 -178 985 -178 q 1031 -171 1017 -178 q 1053 -136 1044 -164 q 1061 -50 1061 -108 q 1046 424 1061 257 q 1038 550 1038 507 q 1058 586 1038 569 q 1118 603 1078 603 z "},"Ṉ":{"ha":938,"x_min":100,"x_max":838,"o":"m 681 781 q 699 851 681 821 q 756 881 718 881 q 813 868 788 881 q 838 826 838 856 q 832 667 838 769 q 826 518 826 567 q 832 314 826 442 q 838 135 838 192 q 836 67 838 89 q 812 23 836 44 q 738 1 788 1 q 692 10 711 1 q 667 31 674 19 q 476 300 601 110 q 247 625 336 513 q 258 381 258 525 q 256 215 258 317 q 250 81 254 113 q 226 19 244 40 q 167 -3 207 -3 q 122 15 136 -3 q 104 75 107 32 q 111 246 103 132 q 115 308 113 264 q 118 388 118 353 q 108 607 118 483 q 100 808 100 743 q 124 860 100 842 q 181 878 149 878 q 239 864 208 878 q 563 417 358 714 l 693 217 q 694 279 694 239 q 692 432 694 350 q 688 543 689 514 q 681 781 681 678 m 431 -187 q 372 -190 403 -187 q 333 -193 342 -193 q 300 -184 308 -193 q 292 -144 292 -175 q 338 -99 292 -108 q 482 -90 383 -90 q 619 -95 567 -90 q 671 -117 671 -100 q 653 -171 671 -158 q 586 -183 636 -183 l 431 -187 z "},"Ñ":{"ha":938,"x_min":100,"x_max":838,"o":"m 238 1035 q 263 1097 238 1069 q 325 1141 288 1125 q 397 1157 363 1157 q 499 1124 450 1157 q 563 1097 538 1096 q 585 1104 576 1097 q 598 1119 593 1111 q 604 1131 603 1128 q 622 1149 613 1143 q 647 1156 632 1156 q 680 1145 665 1156 q 694 1114 694 1135 q 674 1059 694 1086 q 623 1015 654 1032 q 560 997 592 997 q 501 1007 524 997 q 453 1036 479 1017 q 426 1054 436 1049 q 403 1060 415 1060 q 339 1026 361 1060 q 282 994 317 994 q 253 1006 268 994 q 238 1035 238 1017 m 681 781 q 688 543 681 678 q 692 432 689 514 q 694 279 694 350 q 693 217 694 239 l 563 417 q 239 864 358 714 q 181 878 208 878 q 124 860 149 878 q 100 808 100 842 q 108 607 100 743 q 118 388 118 483 q 115 308 118 353 q 111 246 113 264 q 104 75 103 132 q 122 15 107 32 q 167 -3 136 -3 q 226 19 207 -3 q 250 81 244 40 q 256 215 254 113 q 258 381 258 317 q 247 625 258 525 q 476 300 336 513 q 667 31 601 110 q 692 10 674 19 q 738 1 711 1 q 812 23 788 1 q 836 67 836 44 q 838 135 838 89 q 832 314 838 192 q 826 518 826 442 q 832 667 826 567 q 838 826 838 769 q 813 868 838 856 q 756 881 788 881 q 699 851 718 881 q 681 781 681 821 z "},"O":{"ha":1007,"x_min":72,"x_max":935,"o":"m 482 883 q 651 860 575 883 q 776 793 728 838 q 899 620 864 714 q 935 381 935 526 q 927 325 935 350 q 903 261 919 300 q 878 193 882 218 q 787 100 850 144 q 650 28 724 56 q 521 0 576 0 q 139 183 253 0 q 90 290 107 235 q 72 399 72 346 q 123 645 72 540 q 264 808 174 750 q 377 862 318 840 q 482 883 436 883 m 217 394 q 251 271 217 319 q 356 165 285 222 q 435 137 414 143 q 482 131 456 131 q 706 207 622 131 q 789 417 789 283 q 765 583 789 522 q 681 693 742 644 q 599 732 649 719 q 493 744 550 744 q 344 694 407 744 q 249 563 282 643 q 217 394 217 482 z "},"Ó":{"ha":1007,"x_min":72,"x_max":935,"o":"m 564 1200 q 610 1188 593 1200 q 628 1156 628 1175 q 592 1083 628 1118 q 518 1025 557 1047 q 465 1004 497 1013 q 415 996 432 996 q 386 1024 386 996 q 392 1039 386 1032 q 415 1060 397 1046 q 433 1076 421 1065 q 456 1101 444 1086 q 478 1140 467 1115 q 515 1187 494 1174 q 564 1200 535 1200 m 482 883 q 651 860 575 883 q 776 793 728 838 q 899 620 864 714 q 935 381 935 526 q 927 325 935 350 q 903 261 919 300 q 878 193 882 218 q 787 100 850 144 q 650 28 724 56 q 521 0 576 0 q 139 183 253 0 q 90 290 107 235 q 72 399 72 346 q 123 645 72 540 q 264 808 174 750 q 377 862 318 840 q 482 883 436 883 m 217 394 q 251 271 217 319 q 356 165 285 222 q 435 137 414 143 q 482 131 456 131 q 706 207 622 131 q 789 417 789 283 q 765 583 789 522 q 681 693 742 644 q 599 732 649 719 q 493 744 550 744 q 344 694 407 744 q 249 563 282 643 q 217 394 217 482 z "},"Ŏ":{"ha":1007,"x_min":72,"x_max":935,"o":"m 324 1090 q 316 1108 319 1097 q 313 1126 313 1119 q 328 1144 313 1135 q 360 1153 343 1153 q 404 1128 376 1153 q 447 1092 425 1106 q 506 1078 469 1078 q 564 1092 539 1078 q 613 1132 589 1106 q 635 1153 625 1147 q 660 1158 646 1158 q 685 1149 671 1158 q 700 1128 700 1140 q 692 1096 700 1113 q 629 1012 669 1047 q 508 976 589 976 q 324 1090 392 976 m 482 883 q 377 862 436 883 q 264 808 318 840 q 123 645 174 750 q 72 399 72 540 q 90 290 72 346 q 139 183 107 235 q 521 0 253 0 q 650 28 576 0 q 787 100 724 56 q 878 193 850 144 q 903 261 882 218 q 927 325 919 300 q 935 381 935 350 q 899 620 935 526 q 776 793 864 714 q 651 860 728 838 q 482 883 575 883 m 217 394 q 249 563 217 482 q 344 694 282 643 q 493 744 407 744 q 599 732 550 744 q 681 693 649 719 q 765 583 742 644 q 789 417 789 522 q 706 207 789 283 q 482 131 622 131 q 435 137 456 131 q 356 165 414 143 q 251 271 285 222 q 217 394 217 319 z "},"Ǒ":{"ha":1007,"x_min":72,"x_max":935,"o":"m 513 975 q 465 984 482 975 q 426 1014 447 993 q 338 1107 403 1036 q 315 1133 324 1122 q 307 1151 307 1144 q 325 1176 307 1163 q 361 1189 343 1189 q 416 1172 393 1189 q 467 1119 439 1154 q 485 1098 472 1113 q 510 1074 497 1083 q 569 1133 529 1089 q 612 1176 596 1163 q 644 1189 628 1189 q 691 1176 668 1189 q 714 1151 714 1163 q 658 1081 714 1133 q 586 1003 611 1035 q 558 983 578 992 q 513 975 539 975 m 482 883 q 651 860 575 883 q 776 793 728 838 q 899 620 864 714 q 935 381 935 526 q 927 325 935 350 q 903 261 919 300 q 878 193 882 218 q 787 100 850 144 q 650 28 724 56 q 521 0 576 0 q 139 183 253 0 q 90 290 107 235 q 72 399 72 346 q 123 645 72 540 q 264 808 174 750 q 377 862 318 840 q 482 883 436 883 m 217 394 q 251 271 217 319 q 356 165 285 222 q 435 137 414 143 q 482 131 456 131 q 706 207 622 131 q 789 417 789 283 q 765 583 789 522 q 681 693 742 644 q 599 732 649 719 q 493 744 550 744 q 344 694 407 744 q 249 563 282 643 q 217 394 217 482 z "},"Ô":{"ha":1007,"x_min":72,"x_max":935,"o":"m 515 1194 q 565 1185 547 1194 q 597 1153 583 1175 q 639 1106 611 1132 q 690 1063 667 1079 q 721 1018 721 1040 q 708 993 721 1006 q 679 981 696 981 q 594 1013 632 981 q 518 1097 556 1044 q 442 1018 489 1056 q 356 981 394 981 q 324 992 333 981 q 314 1018 314 1004 q 331 1051 314 1029 q 369 1089 349 1072 q 438 1158 408 1121 q 467 1184 450 1174 q 515 1194 483 1194 m 482 883 q 651 860 575 883 q 776 793 728 838 q 899 620 864 714 q 935 381 935 526 q 927 325 935 350 q 903 261 919 300 q 878 193 882 218 q 787 100 850 144 q 650 28 724 56 q 521 0 576 0 q 139 183 253 0 q 90 290 107 235 q 72 399 72 346 q 123 645 72 540 q 264 808 174 750 q 377 862 318 840 q 482 883 436 883 m 217 394 q 251 271 217 319 q 356 165 285 222 q 435 137 414 143 q 482 131 456 131 q 706 207 622 131 q 789 417 789 283 q 765 583 789 522 q 681 693 742 644 q 599 732 649 719 q 493 744 550 744 q 344 694 407 744 q 249 563 282 643 q 217 394 217 482 z "},"Ố":{"ha":1007,"x_min":72,"x_max":935,"o":"m 775 1249 q 829 1206 829 1249 q 800 1152 829 1182 q 731 1101 771 1122 q 664 1079 692 1079 q 644 1087 651 1079 q 636 1107 636 1094 q 641 1118 636 1113 q 652 1129 646 1124 q 663 1139 658 1135 q 701 1193 686 1161 q 733 1237 717 1225 q 775 1249 749 1249 m 496 1153 q 546 1143 528 1153 q 578 1113 564 1133 q 618 1070 592 1094 q 668 1031 644 1046 q 699 988 699 1010 q 687 965 699 976 q 658 953 675 953 q 575 983 613 953 q 497 1063 538 1013 q 423 988 469 1024 q 336 953 376 953 q 306 964 315 953 q 297 988 297 975 q 314 1017 297 999 q 351 1053 331 1036 q 418 1119 396 1089 q 447 1143 431 1133 q 496 1153 464 1153 m 482 883 q 651 860 575 883 q 776 793 728 838 q 899 620 864 714 q 935 381 935 526 q 927 325 935 350 q 903 261 919 300 q 878 193 882 218 q 787 100 850 144 q 650 28 724 56 q 521 0 576 0 q 139 183 253 0 q 90 290 107 235 q 72 399 72 346 q 123 645 72 540 q 264 808 174 750 q 377 862 318 840 q 482 883 436 883 m 217 394 q 251 271 217 319 q 356 165 285 222 q 435 137 414 143 q 482 131 456 131 q 706 207 622 131 q 789 417 789 283 q 765 583 789 522 q 681 693 742 644 q 599 732 649 719 q 493 744 550 744 q 344 694 407 744 q 249 563 282 643 q 217 394 217 482 z "},"Ộ":{"ha":1007,"x_min":72,"x_max":935,"o":"m 497 1164 q 547 1154 529 1164 q 579 1122 565 1144 q 621 1075 593 1101 q 672 1032 649 1049 q 703 988 703 1010 q 690 963 703 975 q 661 950 678 950 q 576 982 614 950 q 500 1067 538 1014 q 424 988 471 1025 q 338 950 376 950 q 306 962 315 950 q 296 988 296 974 q 313 1020 296 999 q 351 1058 331 1042 q 419 1128 390 1090 q 449 1153 432 1143 q 497 1164 465 1164 m 482 883 q 651 860 575 883 q 776 793 728 838 q 899 620 864 714 q 935 381 935 526 q 927 325 935 350 q 903 261 919 300 q 878 193 882 218 q 787 100 850 144 q 650 28 724 56 q 521 0 576 0 q 139 183 253 0 q 90 290 107 235 q 72 399 72 346 q 123 645 72 540 q 264 808 174 750 q 377 862 318 840 q 482 883 436 883 m 217 394 q 251 271 217 319 q 356 165 285 222 q 435 137 414 143 q 482 131 456 131 q 706 207 622 131 q 789 417 789 283 q 765 583 789 522 q 681 693 742 644 q 599 732 649 719 q 493 744 550 744 q 344 694 407 744 q 249 563 282 643 q 217 394 217 482 m 579 -147 q 553 -200 579 -181 q 499 -219 528 -219 q 450 -203 469 -219 q 431 -161 431 -187 q 454 -101 431 -121 q 513 -82 478 -82 q 579 -147 579 -82 z "},"Ồ":{"ha":1007,"x_min":72,"x_max":935,"o":"m 219 1249 q 262 1237 246 1249 q 293 1193 278 1225 q 332 1139 308 1161 q 350 1121 343 1128 q 357 1107 357 1114 q 350 1087 357 1094 q 331 1079 343 1079 q 263 1101 303 1079 q 194 1152 224 1122 q 165 1206 165 1182 q 219 1249 165 1249 m 496 1153 q 546 1144 528 1153 q 579 1113 564 1135 q 619 1070 592 1094 q 669 1031 646 1046 q 700 988 700 1008 q 688 965 700 976 q 658 953 675 953 q 576 983 613 953 q 499 1063 539 1013 q 424 988 471 1024 q 338 953 376 953 q 307 964 317 953 q 297 988 297 975 q 353 1053 297 1007 q 419 1119 403 1094 q 496 1153 439 1153 m 482 883 q 651 860 575 883 q 776 793 728 838 q 899 620 864 714 q 935 381 935 526 q 927 325 935 350 q 903 261 919 300 q 878 193 882 218 q 787 100 850 144 q 650 28 724 56 q 521 0 576 0 q 139 183 253 0 q 90 290 107 235 q 72 399 72 346 q 123 645 72 540 q 264 808 174 750 q 377 862 318 840 q 482 883 436 883 m 217 394 q 251 271 217 319 q 356 165 285 222 q 435 137 414 143 q 482 131 456 131 q 706 207 622 131 q 789 417 789 283 q 765 583 789 522 q 681 693 742 644 q 599 732 649 719 q 493 744 550 744 q 344 694 407 744 q 249 563 282 643 q 217 394 217 482 z "},"Ổ":{"ha":1007,"x_min":72,"x_max":935,"o":"m 622 1232 q 601 1242 610 1232 q 593 1265 593 1251 q 635 1308 593 1294 q 713 1322 676 1322 q 793 1289 747 1322 q 810 1267 803 1283 q 818 1233 818 1251 q 802 1173 818 1192 q 746 1139 786 1154 q 732 1124 732 1133 q 738 1108 732 1117 q 744 1097 743 1100 q 734 1080 744 1088 q 710 1072 724 1072 q 673 1078 686 1072 q 654 1101 660 1083 q 650 1113 653 1104 q 647 1131 647 1122 q 665 1165 647 1154 q 691 1180 672 1171 q 720 1198 710 1189 q 731 1224 731 1207 q 719 1245 731 1240 q 688 1250 708 1250 q 650 1241 674 1250 q 622 1232 626 1232 m 497 1153 q 547 1143 529 1153 q 579 1113 564 1133 q 619 1070 593 1094 q 669 1031 646 1046 q 700 988 700 1010 q 688 965 700 976 q 660 953 676 953 q 576 983 614 953 q 499 1063 539 1013 q 424 988 471 1024 q 338 953 378 953 q 307 964 317 953 q 297 988 297 975 q 353 1053 297 1007 q 419 1119 403 1094 q 497 1153 439 1153 m 482 883 q 651 860 575 883 q 776 793 728 838 q 899 620 864 714 q 935 381 935 526 q 927 325 935 350 q 903 261 919 300 q 878 193 882 218 q 787 100 850 144 q 650 28 724 56 q 521 0 576 0 q 139 183 253 0 q 90 290 107 235 q 72 399 72 346 q 123 645 72 540 q 264 808 174 750 q 377 862 318 840 q 482 883 436 883 m 217 394 q 251 271 217 319 q 356 165 285 222 q 435 137 414 143 q 482 131 456 131 q 706 207 622 131 q 789 417 789 283 q 765 583 789 522 q 681 693 742 644 q 599 732 649 719 q 493 744 550 744 q 344 694 407 744 q 249 563 282 643 q 217 394 217 482 z "},"Ỗ":{"ha":1007,"x_min":72,"x_max":935,"o":"m 276 1199 q 297 1259 276 1232 q 351 1301 318 1286 q 415 1317 383 1317 q 510 1285 464 1317 q 567 1258 542 1258 q 588 1265 581 1258 q 599 1278 594 1271 q 606 1290 603 1286 q 647 1315 624 1315 q 676 1304 663 1315 q 689 1274 689 1293 q 649 1199 689 1233 q 565 1164 610 1164 q 519 1172 539 1164 q 475 1196 499 1181 q 444 1214 456 1208 q 419 1219 432 1219 q 392 1214 403 1219 q 371 1190 382 1208 q 318 1160 351 1160 q 291 1171 306 1160 q 276 1199 276 1182 m 304 1060 q 297 1076 300 1065 q 293 1094 293 1086 q 306 1112 293 1103 q 335 1121 318 1121 q 353 1115 344 1121 q 375 1096 361 1110 q 486 1046 425 1046 q 603 1101 556 1046 q 626 1122 615 1115 q 650 1128 636 1128 q 670 1119 660 1128 q 681 1097 681 1110 q 672 1065 681 1082 q 610 985 650 1018 q 489 951 569 951 q 304 1060 367 951 m 482 883 q 651 860 575 883 q 776 793 728 838 q 899 620 864 714 q 935 381 935 526 q 927 325 935 350 q 903 261 919 300 q 878 193 882 218 q 787 100 850 144 q 650 28 724 56 q 521 0 576 0 q 139 183 253 0 q 90 290 107 235 q 72 399 72 346 q 123 645 72 540 q 264 808 174 750 q 377 862 318 840 q 482 883 436 883 m 217 394 q 251 271 217 319 q 356 165 285 222 q 435 137 414 143 q 482 131 456 131 q 706 207 622 131 q 789 417 789 283 q 765 583 789 522 q 681 693 742 644 q 599 732 649 719 q 493 744 550 744 q 344 694 407 744 q 249 563 282 643 q 217 394 217 482 z "},"Ȍ":{"ha":1007,"x_min":72,"x_max":935,"o":"m 326 1210 q 359 1201 349 1210 q 381 1176 369 1193 q 397 1151 392 1160 q 410 1133 404 1140 q 421 1119 417 1125 q 435 1100 425 1114 q 453 1074 446 1086 q 467 1031 467 1046 q 456 1016 467 1021 q 429 1011 444 1011 q 402 1018 415 1011 q 368 1046 389 1025 q 267 1178 267 1147 q 281 1203 267 1196 q 326 1210 296 1210 m 529 1210 q 563 1201 551 1210 q 585 1176 574 1193 q 601 1151 596 1160 l 624 1122 q 656 1074 644 1094 q 669 1031 669 1046 q 659 1016 669 1021 q 632 1011 649 1011 q 606 1018 618 1011 q 572 1046 593 1025 q 499 1124 529 1089 q 469 1178 469 1158 q 484 1203 469 1196 q 529 1210 499 1210 m 482 883 q 651 860 575 883 q 776 793 728 838 q 899 620 864 714 q 935 381 935 526 q 927 325 935 350 q 903 261 919 300 q 878 193 882 218 q 787 100 850 144 q 650 28 724 56 q 521 0 576 0 q 139 183 253 0 q 90 290 107 235 q 72 399 72 346 q 123 645 72 540 q 264 808 174 750 q 377 862 318 840 q 482 883 436 883 m 217 394 q 251 271 217 319 q 356 165 285 222 q 435 137 414 143 q 482 131 456 131 q 706 207 622 131 q 789 417 789 283 q 765 583 789 522 q 681 693 742 644 q 599 732 649 719 q 493 744 550 744 q 344 694 407 744 q 249 563 282 643 q 217 394 217 482 z "},"Ö":{"ha":1007,"x_min":72,"x_max":935,"o":"m 363 1156 q 431 1137 401 1156 q 461 1081 461 1118 q 438 1039 461 1054 q 381 1024 415 1024 q 334 1041 347 1024 q 321 1078 321 1058 q 328 1133 321 1110 q 363 1156 336 1156 m 597 1156 q 665 1137 635 1156 q 694 1081 694 1118 q 672 1039 694 1054 q 614 1024 649 1024 q 567 1041 581 1024 q 554 1078 554 1058 q 562 1133 554 1110 q 597 1156 569 1156 m 482 883 q 651 860 575 883 q 776 793 728 838 q 899 620 864 714 q 935 381 935 526 q 927 325 935 350 q 903 261 919 300 q 878 193 882 218 q 787 100 850 144 q 650 28 724 56 q 521 0 576 0 q 139 183 253 0 q 90 290 107 235 q 72 399 72 346 q 123 645 72 540 q 264 808 174 750 q 377 862 318 840 q 482 883 436 883 m 217 394 q 251 271 217 319 q 356 165 285 222 q 435 137 414 143 q 482 131 456 131 q 706 207 622 131 q 789 417 789 283 q 765 583 789 522 q 681 693 742 644 q 599 732 649 719 q 493 744 550 744 q 344 694 407 744 q 249 563 282 643 q 217 394 217 482 z "},"Ọ":{"ha":1007,"x_min":72,"x_max":935,"o":"m 482 883 q 651 860 575 883 q 776 793 728 838 q 899 620 864 714 q 935 381 935 526 q 927 325 935 350 q 903 261 919 300 q 878 193 882 218 q 787 100 850 144 q 650 28 724 56 q 521 0 576 0 q 139 183 253 0 q 90 290 107 235 q 72 399 72 346 q 123 645 72 540 q 264 808 174 750 q 377 862 318 840 q 482 883 436 883 m 217 394 q 251 271 217 319 q 356 165 285 222 q 435 137 414 143 q 482 131 456 131 q 706 207 622 131 q 789 417 789 283 q 765 583 789 522 q 681 693 742 644 q 599 732 649 719 q 493 744 550 744 q 344 694 407 744 q 249 563 282 643 q 217 394 217 482 m 568 -147 q 542 -200 568 -181 q 488 -219 517 -219 q 439 -203 458 -219 q 419 -161 419 -187 q 443 -101 419 -121 q 501 -82 467 -82 q 568 -147 568 -82 z "},"Ò":{"ha":1007,"x_min":72,"x_max":935,"o":"m 436 1200 q 485 1187 465 1200 q 521 1140 504 1174 q 547 1097 535 1111 q 569 1073 558 1082 q 585 1060 579 1064 q 607 1039 601 1046 q 613 1024 613 1032 q 606 1003 613 1011 q 585 996 599 996 q 534 1004 567 996 q 481 1025 501 1013 q 406 1083 440 1049 q 371 1156 371 1118 q 389 1188 371 1175 q 436 1200 407 1200 m 482 883 q 651 860 575 883 q 776 793 728 838 q 899 620 864 714 q 935 381 935 526 q 927 325 935 350 q 903 261 919 300 q 878 193 882 218 q 787 100 850 144 q 650 28 724 56 q 521 0 576 0 q 139 183 253 0 q 90 290 107 235 q 72 399 72 346 q 123 645 72 540 q 264 808 174 750 q 377 862 318 840 q 482 883 436 883 m 217 394 q 251 271 217 319 q 356 165 285 222 q 435 137 414 143 q 482 131 456 131 q 706 207 622 131 q 789 417 789 283 q 765 583 789 522 q 681 693 742 644 q 599 732 649 719 q 493 744 550 744 q 344 694 407 744 q 249 563 282 643 q 217 394 217 482 z "},"Ỏ":{"ha":1007,"x_min":72,"x_max":935,"o":"m 436 1147 q 410 1158 421 1147 q 400 1185 400 1169 q 449 1240 400 1222 q 542 1257 499 1257 q 636 1215 582 1257 q 656 1188 646 1208 q 665 1146 665 1168 q 642 1070 665 1094 q 569 1025 619 1046 q 556 1008 556 1019 q 565 988 556 1000 q 574 971 574 975 q 566 950 574 960 q 543 940 558 940 q 472 979 483 940 q 467 996 471 983 q 464 1017 464 1008 q 486 1061 464 1043 q 502 1071 492 1067 q 517 1078 513 1075 q 556 1100 542 1089 q 569 1132 569 1111 q 555 1168 569 1161 q 513 1175 540 1175 q 468 1161 496 1175 q 436 1147 440 1147 m 482 883 q 651 860 575 883 q 776 793 728 838 q 899 620 864 714 q 935 381 935 526 q 927 325 935 350 q 903 261 919 300 q 878 193 882 218 q 787 100 850 144 q 650 28 724 56 q 521 0 576 0 q 139 183 253 0 q 90 290 107 235 q 72 399 72 346 q 123 645 72 540 q 264 808 174 750 q 377 862 318 840 q 482 883 436 883 m 217 394 q 251 271 217 319 q 356 165 285 222 q 435 137 414 143 q 482 131 456 131 q 706 207 622 131 q 789 417 789 283 q 765 583 789 522 q 681 693 742 644 q 599 732 649 719 q 493 744 550 744 q 344 694 407 744 q 249 563 282 643 q 217 394 217 482 z "},"Ơ":{"ha":1007,"x_min":72,"x_max":994,"o":"m 482 883 q 651 860 575 883 q 776 793 728 838 l 778 793 q 856 906 819 821 q 885 945 869 935 q 924 956 900 956 q 978 936 951 956 q 991 919 988 929 q 994 893 994 908 q 974 822 994 867 q 908 743 953 776 q 853 708 881 722 q 916 567 897 644 q 935 381 935 490 q 927 325 935 350 q 903 261 919 300 q 878 193 882 218 q 787 100 850 144 q 650 28 724 56 q 521 0 576 0 q 139 183 253 0 q 90 290 107 235 q 72 399 72 346 q 123 645 72 540 q 264 808 174 750 q 377 862 318 840 q 482 883 436 883 m 217 394 q 251 271 217 319 q 356 165 285 222 q 435 137 414 143 q 482 131 456 131 q 706 207 622 131 q 789 417 789 283 q 765 583 789 522 q 681 693 742 644 q 599 732 649 719 q 493 744 550 744 q 344 694 407 744 q 249 563 282 643 q 217 394 217 482 z "},"Ớ":{"ha":1007,"x_min":72,"x_max":994,"o":"m 589 1169 q 635 1157 618 1169 q 653 1125 653 1144 q 617 1052 653 1088 q 543 994 582 1017 q 490 974 522 982 q 440 965 457 965 q 411 993 411 965 q 417 1008 411 1001 q 440 1029 422 1015 q 458 1045 446 1035 q 481 1070 469 1056 q 503 1110 492 1085 q 540 1156 519 1143 q 589 1169 560 1169 m 482 883 q 651 860 575 883 q 776 793 728 838 l 778 793 q 856 906 819 821 q 885 945 869 935 q 924 956 900 956 q 978 936 951 956 q 991 919 988 929 q 994 893 994 908 q 974 822 994 867 q 908 743 953 776 q 853 708 881 722 q 916 567 897 644 q 935 381 935 490 q 927 325 935 350 q 903 261 919 300 q 878 193 882 218 q 787 100 850 144 q 650 28 724 56 q 521 0 576 0 q 139 183 253 0 q 90 290 107 235 q 72 399 72 346 q 123 645 72 540 q 264 808 174 750 q 377 862 318 840 q 482 883 436 883 m 217 394 q 251 271 217 319 q 356 165 285 222 q 435 137 414 143 q 482 131 456 131 q 706 207 622 131 q 789 417 789 283 q 765 583 789 522 q 681 693 742 644 q 599 732 649 719 q 493 744 550 744 q 344 694 407 744 q 249 563 282 643 q 217 394 217 482 z "},"Ợ":{"ha":1007,"x_min":72,"x_max":994,"o":"m 482 883 q 651 860 575 883 q 776 793 728 838 l 778 793 q 856 906 819 821 q 885 945 869 935 q 924 956 900 956 q 978 936 951 956 q 991 919 988 929 q 994 893 994 908 q 974 822 994 867 q 908 743 953 776 q 853 708 881 722 q 916 567 897 644 q 935 381 935 490 q 927 325 935 350 q 903 261 919 300 q 878 193 882 218 q 787 100 850 144 q 650 28 724 56 q 521 0 576 0 q 139 183 253 0 q 90 290 107 235 q 72 399 72 346 q 123 645 72 540 q 264 808 174 750 q 377 862 318 840 q 482 883 436 883 m 217 394 q 251 271 217 319 q 356 165 285 222 q 435 137 414 143 q 482 131 456 131 q 706 207 622 131 q 789 417 789 283 q 765 583 789 522 q 681 693 742 644 q 599 732 649 719 q 493 744 550 744 q 344 694 407 744 q 249 563 282 643 q 217 394 217 482 m 590 -147 q 565 -200 590 -181 q 510 -219 539 -219 q 461 -203 481 -219 q 442 -161 442 -187 q 465 -101 442 -121 q 524 -82 489 -82 q 590 -147 590 -82 z "},"Ờ":{"ha":1007,"x_min":72,"x_max":994,"o":"m 407 1169 q 456 1156 436 1169 q 492 1110 475 1143 q 517 1066 506 1081 q 540 1042 529 1051 q 556 1029 550 1033 q 578 1008 572 1015 q 583 993 583 1001 q 576 973 583 981 q 556 965 569 965 q 505 974 538 965 q 451 994 472 982 q 376 1053 411 1018 q 342 1125 342 1088 q 360 1157 342 1144 q 407 1169 378 1169 m 482 883 q 651 860 575 883 q 776 793 728 838 l 778 793 q 856 906 819 821 q 885 945 869 935 q 924 956 900 956 q 978 936 951 956 q 991 919 988 929 q 994 893 994 908 q 974 822 994 867 q 908 743 953 776 q 853 708 881 722 q 916 567 897 644 q 935 381 935 490 q 927 325 935 350 q 903 261 919 300 q 878 193 882 218 q 787 100 850 144 q 650 28 724 56 q 521 0 576 0 q 139 183 253 0 q 90 290 107 235 q 72 399 72 346 q 123 645 72 540 q 264 808 174 750 q 377 862 318 840 q 482 883 436 883 m 217 394 q 251 271 217 319 q 356 165 285 222 q 435 137 414 143 q 482 131 456 131 q 706 207 622 131 q 789 417 789 283 q 765 583 789 522 q 681 693 742 644 q 599 732 649 719 q 493 744 550 744 q 344 694 407 744 q 249 563 282 643 q 217 394 217 482 z "},"Ở":{"ha":1007,"x_min":72,"x_max":994,"o":"m 410 1147 q 384 1158 394 1147 q 374 1185 374 1169 q 423 1240 374 1222 q 515 1257 472 1257 q 610 1215 556 1257 q 629 1188 619 1208 q 639 1146 639 1168 q 616 1070 639 1094 q 543 1025 593 1046 q 529 1008 529 1019 q 538 988 529 1000 q 547 971 547 975 q 540 950 547 960 q 517 940 532 940 q 446 979 457 940 q 441 996 444 983 q 438 1017 438 1008 q 460 1061 438 1043 q 476 1071 465 1067 q 490 1078 486 1075 q 529 1100 515 1089 q 543 1132 543 1111 q 528 1168 543 1161 q 486 1175 514 1175 q 442 1161 469 1175 q 410 1147 414 1147 m 482 883 q 651 860 575 883 q 776 793 728 838 l 778 793 q 856 906 819 821 q 885 945 869 935 q 924 956 900 956 q 978 936 951 956 q 991 919 988 929 q 994 893 994 908 q 974 822 994 867 q 908 743 953 776 q 853 708 881 722 q 916 567 897 644 q 935 381 935 490 q 927 325 935 350 q 903 261 919 300 q 878 193 882 218 q 787 100 850 144 q 650 28 724 56 q 521 0 576 0 q 139 183 253 0 q 90 290 107 235 q 72 399 72 346 q 123 645 72 540 q 264 808 174 750 q 377 862 318 840 q 482 883 436 883 m 217 394 q 251 271 217 319 q 356 165 285 222 q 435 137 414 143 q 482 131 456 131 q 706 207 622 131 q 789 417 789 283 q 765 583 789 522 q 681 693 742 644 q 599 732 649 719 q 493 744 550 744 q 344 694 407 744 q 249 563 282 643 q 217 394 217 482 z "},"Ỡ":{"ha":1007,"x_min":72,"x_max":994,"o":"m 261 1004 q 286 1067 261 1039 q 349 1110 311 1094 q 421 1126 386 1126 q 522 1093 474 1126 q 586 1067 561 1065 q 608 1074 600 1067 q 622 1089 617 1081 q 628 1100 626 1097 q 646 1119 636 1113 q 671 1125 656 1125 q 703 1115 689 1125 q 718 1083 718 1104 q 698 1028 718 1056 q 647 984 678 1001 q 583 967 615 967 q 525 976 547 967 q 476 1006 503 986 q 449 1024 460 1018 q 426 1029 439 1029 q 363 996 385 1029 q 306 964 340 964 q 276 975 292 964 q 261 1004 261 986 m 482 883 q 651 860 575 883 q 776 793 728 838 l 778 793 q 856 906 819 821 q 885 945 869 935 q 924 956 900 956 q 978 936 951 956 q 991 919 988 929 q 994 893 994 908 q 974 822 994 867 q 908 743 953 776 q 853 708 881 722 q 916 567 897 644 q 935 381 935 490 q 927 325 935 350 q 903 261 919 300 q 878 193 882 218 q 787 100 850 144 q 650 28 724 56 q 521 0 576 0 q 139 183 253 0 q 90 290 107 235 q 72 399 72 346 q 123 645 72 540 q 264 808 174 750 q 377 862 318 840 q 482 883 436 883 m 217 394 q 251 271 217 319 q 356 165 285 222 q 435 137 414 143 q 482 131 456 131 q 706 207 622 131 q 789 417 789 283 q 765 583 789 522 q 681 693 742 644 q 599 732 649 719 q 493 744 550 744 q 344 694 407 744 q 249 563 282 643 q 217 394 217 482 z "},"Ő":{"ha":1007,"x_min":72,"x_max":935,"o":"m 479 1179 q 524 1172 510 1179 q 539 1147 539 1165 q 509 1093 539 1128 q 436 1015 479 1058 q 403 988 415 994 q 376 981 390 981 q 349 985 360 981 q 339 1000 339 990 q 353 1043 339 1015 q 385 1092 364 1064 l 407 1121 q 426 1148 413 1129 q 450 1173 439 1167 q 479 1179 461 1179 m 682 1179 q 727 1172 713 1179 q 742 1147 742 1165 q 640 1015 742 1117 q 606 988 619 994 q 579 981 593 981 q 553 985 564 981 q 542 1000 542 990 q 556 1043 542 1015 q 573 1069 563 1056 q 588 1089 583 1083 q 598 1102 592 1094 q 611 1121 604 1110 q 630 1148 617 1129 q 654 1173 643 1167 q 682 1179 665 1179 m 482 883 q 651 860 575 883 q 776 793 728 838 q 899 620 864 714 q 935 381 935 526 q 927 325 935 350 q 903 261 919 300 q 878 193 882 218 q 787 100 850 144 q 650 28 724 56 q 521 0 576 0 q 139 183 253 0 q 90 290 107 235 q 72 399 72 346 q 123 645 72 540 q 264 808 174 750 q 377 862 318 840 q 482 883 436 883 m 217 394 q 251 271 217 319 q 356 165 285 222 q 435 137 414 143 q 482 131 456 131 q 706 207 622 131 q 789 417 789 283 q 765 583 789 522 q 681 693 742 644 q 599 732 649 719 q 493 744 550 744 q 344 694 407 744 q 249 563 282 643 q 217 394 217 482 z "},"Ȏ":{"ha":1007,"x_min":72,"x_max":935,"o":"m 708 1046 q 718 1011 718 1026 q 706 994 718 1003 q 676 985 693 985 q 658 990 667 985 q 636 1010 650 996 q 590 1044 619 1028 q 525 1060 561 1060 q 408 1004 456 1060 q 385 984 396 990 q 361 978 375 978 q 342 987 351 978 q 332 1008 332 996 q 339 1040 332 1026 q 401 1121 361 1088 q 522 1154 442 1154 q 708 1046 643 1154 m 482 883 q 651 860 575 883 q 776 793 728 838 q 899 620 864 714 q 935 381 935 526 q 927 325 935 350 q 903 261 919 300 q 878 193 882 218 q 787 100 850 144 q 650 28 724 56 q 521 0 576 0 q 139 183 253 0 q 90 290 107 235 q 72 399 72 346 q 123 645 72 540 q 264 808 174 750 q 377 862 318 840 q 482 883 436 883 m 217 394 q 251 271 217 319 q 356 165 285 222 q 435 137 414 143 q 482 131 456 131 q 706 207 622 131 q 789 417 789 283 q 765 583 789 522 q 681 693 742 644 q 599 732 649 719 q 493 744 550 744 q 344 694 407 744 q 249 563 282 643 q 217 394 217 482 z "},"Ō":{"ha":1007,"x_min":72,"x_max":935,"o":"m 454 981 q 396 978 426 981 q 357 976 365 976 q 324 985 332 976 q 315 1025 315 994 q 362 1069 315 1060 q 507 1078 408 1078 q 642 1073 590 1078 q 694 1053 694 1068 q 677 997 694 1010 q 610 985 660 985 l 454 981 m 482 883 q 651 860 575 883 q 776 793 728 838 q 899 620 864 714 q 935 381 935 526 q 927 325 935 350 q 903 261 919 300 q 878 193 882 218 q 787 100 850 144 q 650 28 724 56 q 521 0 576 0 q 139 183 253 0 q 90 290 107 235 q 72 399 72 346 q 123 645 72 540 q 264 808 174 750 q 377 862 318 840 q 482 883 436 883 m 217 394 q 251 271 217 319 q 356 165 285 222 q 435 137 414 143 q 482 131 456 131 q 706 207 622 131 q 789 417 789 283 q 765 583 789 522 q 681 693 742 644 q 599 732 649 719 q 493 744 550 744 q 344 694 407 744 q 249 563 282 643 q 217 394 217 482 z "},"Ǫ":{"ha":1007,"x_min":72,"x_max":935,"o":"m 776 793 q 899 620 864 714 q 935 381 935 526 q 927 325 935 350 q 903 261 919 300 q 878 193 882 218 q 797 107 853 149 q 674 37 740 65 q 550 1 607 8 q 553 -24 553 -6 q 533 -53 553 -32 q 510 -78 514 -74 q 481 -108 486 -101 q 463 -167 463 -136 q 511 -203 463 -203 q 543 -197 528 -203 q 564 -192 558 -192 q 586 -201 579 -192 q 593 -232 593 -210 q 565 -277 593 -260 q 493 -294 536 -294 q 400 -266 436 -294 q 364 -187 364 -237 q 414 -43 364 -99 q 461 3 442 -12 q 139 183 240 22 q 90 290 107 235 q 72 399 72 346 q 123 645 72 540 q 264 808 174 750 q 377 862 318 840 q 482 883 436 883 q 651 860 575 883 q 776 793 728 838 m 482 131 q 706 207 622 131 q 789 417 789 283 q 765 583 789 522 q 681 693 742 644 q 599 732 649 719 q 493 744 550 744 q 344 694 407 744 q 249 563 282 643 q 217 394 217 482 q 251 271 217 319 q 356 165 285 222 q 435 137 414 143 q 482 131 456 131 z "},"Ø":{"ha":1007,"x_min":72,"x_max":935,"o":"m 482 883 q 719 832 625 883 q 776 913 761 889 q 826 936 794 936 q 865 924 849 936 q 881 892 881 911 q 869 858 881 876 q 829 803 857 839 l 810 776 l 804 768 q 906 605 876 694 q 935 381 935 515 q 927 325 935 350 q 903 261 919 300 q 878 193 882 218 q 787 100 850 144 q 650 28 724 56 q 521 0 576 0 q 269 57 375 0 l 240 15 q 213 -26 218 -18 q 199 -38 207 -33 q 183 -43 190 -43 q 140 -27 161 -43 q 119 10 119 -11 q 128 38 119 28 l 186 121 q 139 183 157 151 q 90 290 107 235 q 72 399 72 346 q 123 645 72 540 q 264 808 174 750 q 377 862 318 840 q 482 883 436 883 m 636 718 q 493 744 574 744 q 343 693 407 744 q 247 561 279 642 q 214 393 214 481 q 229 308 214 344 q 275 238 244 271 q 347 332 282 247 l 485 514 l 636 718 m 356 165 q 435 137 414 143 q 482 131 456 131 q 706 207 622 131 q 789 417 789 283 q 774 557 789 501 q 721 656 758 613 l 611 508 q 515 381 588 476 q 353 168 442 286 l 356 165 z "},"Ǿ":{"ha":1007,"x_min":72,"x_max":935,"o":"m 589 1169 q 635 1157 618 1169 q 653 1125 653 1144 q 617 1052 653 1088 q 543 994 582 1017 q 490 974 522 982 q 440 965 457 965 q 411 993 411 965 q 417 1008 411 1001 q 440 1029 422 1015 q 458 1045 446 1035 q 481 1070 469 1056 q 503 1110 492 1085 q 540 1156 519 1143 q 589 1169 560 1169 m 482 883 q 719 832 625 883 q 776 913 761 889 q 826 936 794 936 q 865 924 849 936 q 881 892 881 911 q 869 858 881 876 q 829 803 857 839 l 810 776 l 804 768 q 906 605 876 694 q 935 381 935 515 q 927 325 935 350 q 903 261 919 300 q 878 193 882 218 q 787 100 850 144 q 650 28 724 56 q 521 0 576 0 q 269 57 375 0 l 240 15 q 213 -26 218 -18 q 199 -38 207 -33 q 183 -43 190 -43 q 140 -27 161 -43 q 119 10 119 -11 q 128 38 119 28 l 186 121 q 139 183 157 151 q 90 290 107 235 q 72 399 72 346 q 123 645 72 540 q 264 808 174 750 q 377 862 318 840 q 482 883 436 883 m 636 718 q 493 744 574 744 q 343 693 407 744 q 247 561 279 642 q 214 393 214 481 q 229 308 214 344 q 275 238 244 271 q 347 332 282 247 l 485 514 l 636 718 m 356 165 q 435 137 414 143 q 482 131 456 131 q 706 207 622 131 q 789 417 789 283 q 774 557 789 501 q 721 656 758 613 l 611 508 q 515 381 588 476 q 353 168 442 286 l 356 165 z "},"Õ":{"ha":1007,"x_min":72,"x_max":935,"o":"m 281 1035 q 306 1097 281 1069 q 368 1141 331 1125 q 440 1157 406 1157 q 542 1124 493 1157 q 606 1097 581 1096 q 628 1104 619 1097 q 641 1119 636 1111 q 647 1131 646 1128 q 665 1149 656 1143 q 690 1156 675 1156 q 723 1145 708 1156 q 738 1114 738 1135 q 717 1059 738 1086 q 666 1015 697 1032 q 603 997 635 997 q 544 1007 567 997 q 496 1036 522 1017 q 469 1054 479 1049 q 446 1060 458 1060 q 382 1026 404 1060 q 325 994 360 994 q 296 1006 311 994 q 281 1035 281 1017 m 482 883 q 377 862 436 883 q 264 808 318 840 q 123 645 174 750 q 72 399 72 540 q 90 290 72 346 q 139 183 107 235 q 521 0 253 0 q 650 28 576 0 q 787 100 724 56 q 878 193 850 144 q 903 261 882 218 q 927 325 919 300 q 935 381 935 350 q 899 620 935 526 q 776 793 864 714 q 651 860 728 838 q 482 883 575 883 m 217 394 q 249 563 217 482 q 344 694 282 643 q 493 744 407 744 q 599 732 550 744 q 681 693 649 719 q 765 583 742 644 q 789 417 789 522 q 706 207 789 283 q 482 131 622 131 q 435 137 456 131 q 356 165 414 143 q 251 271 285 222 q 217 394 217 319 z "},"Œ":{"ha":1206,"x_min":72,"x_max":1161,"o":"m 621 861 q 724 876 671 871 q 810 881 776 881 q 950 878 894 881 q 1069 865 1006 875 q 1133 844 1111 858 q 1154 804 1154 831 q 1137 753 1154 771 q 1089 736 1119 736 l 1050 739 q 893 746 964 746 q 735 740 846 746 q 708 508 708 586 q 772 506 726 506 q 896 508 818 506 l 1004 510 q 1052 498 1036 510 q 1068 465 1068 486 q 1054 416 1068 432 q 994 390 1040 400 q 858 382 943 382 l 775 382 q 708 383 729 382 q 711 286 707 338 q 714 226 714 242 q 742 163 714 190 q 844 135 769 135 q 938 139 901 135 q 1026 151 974 143 q 1115 163 1075 163 q 1149 144 1136 163 q 1161 104 1161 126 q 1152 61 1161 74 q 1117 38 1143 49 q 997 8 1061 15 q 835 0 933 0 q 681 39 753 0 q 595 13 650 25 q 503 0 540 0 q 293 45 389 0 q 139 183 197 90 q 90 290 107 235 q 72 399 72 346 q 123 645 72 540 q 264 808 174 750 q 375 859 315 839 q 482 879 435 879 q 621 861 543 879 m 592 150 q 585 197 590 160 q 576 287 581 233 q 571 390 571 340 q 576 544 571 474 q 596 732 581 614 q 493 744 561 744 q 342 697 406 744 q 247 570 279 650 q 214 394 214 490 q 249 272 214 319 q 356 165 283 224 q 435 137 414 143 q 482 131 456 131 q 592 150 553 131 z "},"P":{"ha":793,"x_min":97,"x_max":763,"o":"m 443 314 q 352 317 389 314 q 256 329 315 321 l 254 183 q 253 76 253 146 q 233 20 253 40 q 188 0 213 0 q 119 12 142 0 q 97 54 97 24 q 104 168 97 94 q 119 493 119 326 q 110 786 119 649 q 130 831 111 806 q 178 858 149 856 q 279 869 210 858 q 389 881 351 881 q 566 858 503 881 q 693 785 629 836 q 763 632 763 676 q 725 467 763 539 q 615 354 688 394 q 443 314 543 314 m 411 763 q 334 758 367 763 q 256 742 301 753 q 261 556 261 614 q 257 456 261 496 q 351 440 317 443 q 429 436 386 436 q 574 490 532 436 q 617 614 617 543 q 604 665 617 635 q 582 706 592 696 q 509 751 544 739 q 411 763 474 763 z "},"Þ":{"ha":793,"x_min":100,"x_max":756,"o":"m 432 196 q 300 207 371 196 l 249 214 l 249 185 q 250 74 250 160 q 231 17 250 38 q 185 -3 211 -3 q 100 63 100 -3 q 106 200 100 133 q 113 393 113 297 q 106 797 113 667 q 117 857 106 831 q 169 883 128 883 q 230 867 208 883 q 251 804 251 851 q 249 758 251 786 l 246 728 l 288 732 q 382 739 339 739 q 563 717 499 739 q 692 644 628 696 q 756 499 756 544 q 713 340 756 408 q 595 233 669 271 q 432 196 521 196 m 406 615 q 247 601 308 615 l 249 460 q 250 335 250 415 q 332 322 301 324 q 386 319 363 319 q 418 319 410 319 q 568 366 524 319 q 613 481 613 413 q 601 528 613 500 q 581 565 590 556 q 509 606 544 597 q 406 615 474 615 z "},"Q":{"ha":1007,"x_min":72,"x_max":964,"o":"m 482 883 q 651 860 575 883 q 776 793 728 838 q 899 620 864 714 q 935 381 935 526 q 890 222 935 333 q 838 146 865 174 q 756 79 811 118 q 830 -24 803 4 q 892 -53 857 -53 q 908 -51 903 -53 q 921 -50 913 -50 q 952 -63 940 -50 q 964 -94 964 -76 q 958 -115 964 -104 q 943 -132 953 -126 q 897 -153 917 -149 q 826 -158 878 -158 q 730 -110 772 -158 q 642 22 688 -62 q 521 0 582 0 q 139 183 253 0 q 90 290 107 235 q 72 399 72 346 q 123 646 72 540 q 264 808 174 751 q 376 863 317 842 q 482 883 435 883 m 214 399 q 230 308 214 347 q 276 233 246 268 q 347 313 301 286 q 456 339 393 339 q 567 315 521 339 q 635 266 613 292 q 690 193 657 240 q 789 417 789 272 q 766 585 789 525 q 681 696 743 644 q 598 738 647 724 q 493 751 549 751 q 344 699 408 751 q 247 566 281 647 q 214 399 214 485 m 481 233 q 408 217 442 233 q 363 158 375 201 l 381 144 q 432 128 410 133 q 482 124 454 124 q 581 139 528 124 q 531 209 556 185 q 481 233 507 233 z "},"R":{"ha":839,"x_min":100,"x_max":789,"o":"m 550 368 q 648 223 599 286 q 778 68 697 160 q 788 46 788 58 q 766 13 788 26 q 714 -1 744 -1 q 621 35 671 -1 q 542 119 576 67 q 461 257 507 172 q 418 333 425 322 q 249 306 364 311 q 257 178 249 258 q 265 57 265 94 q 241 15 265 32 q 186 -1 217 -1 q 131 28 150 -1 q 106 121 111 67 q 100 250 100 175 q 110 429 100 329 q 118 593 118 540 q 110 708 118 636 q 106 751 108 721 q 103 807 103 782 q 117 841 103 826 q 149 861 132 856 q 368 879 261 879 q 669 811 550 879 q 789 604 789 743 q 770 522 789 561 q 719 456 751 482 q 550 368 635 390 m 643 608 q 572 717 643 675 q 371 760 501 760 q 256 746 313 760 l 257 675 q 253 556 257 614 q 249 431 249 497 q 299 438 272 436 q 333 442 325 440 q 428 456 394 447 q 531 491 490 475 q 608 537 572 507 q 643 608 643 567 z "},"Ŕ":{"ha":839,"x_min":100,"x_max":789,"o":"m 492 1185 q 538 1172 521 1185 q 556 1140 556 1160 q 520 1067 556 1103 q 446 1010 485 1032 q 392 989 425 997 q 343 981 360 981 q 314 1008 314 981 q 319 1024 314 1017 q 343 1044 325 1031 q 360 1060 349 1050 q 383 1085 372 1071 q 406 1125 394 1100 q 442 1172 422 1158 q 492 1185 463 1185 m 550 368 q 648 223 599 286 q 778 68 697 160 q 788 46 788 58 q 766 13 788 26 q 714 -1 744 -1 q 621 35 671 -1 q 542 119 576 67 q 461 257 507 172 q 418 333 425 322 q 249 306 364 311 q 257 178 249 258 q 265 57 265 94 q 241 15 265 32 q 186 -1 217 -1 q 131 28 150 -1 q 106 121 111 67 q 100 250 100 175 q 110 429 100 329 q 118 593 118 540 q 110 708 118 636 q 106 751 108 721 q 103 807 103 782 q 117 841 103 826 q 149 861 132 856 q 368 879 261 879 q 669 811 550 879 q 789 604 789 743 q 770 522 789 561 q 719 456 751 482 q 550 368 635 390 m 643 608 q 572 717 643 675 q 371 760 501 760 q 256 746 313 760 l 257 675 q 253 556 257 614 q 249 431 249 497 q 299 438 272 436 q 333 442 325 440 q 428 456 394 447 q 531 491 490 475 q 608 537 572 507 q 643 608 643 567 z "},"Ř":{"ha":839,"x_min":100,"x_max":789,"o":"m 428 975 q 380 984 397 975 q 342 1014 363 993 q 253 1107 318 1035 q 231 1133 239 1122 q 222 1151 222 1144 q 240 1176 222 1163 q 276 1189 258 1189 q 331 1172 308 1189 q 382 1119 354 1154 q 400 1098 388 1113 q 425 1074 413 1083 q 485 1133 444 1089 q 527 1176 511 1163 q 560 1189 543 1189 q 606 1176 583 1189 q 629 1151 629 1163 q 574 1081 629 1133 q 501 1003 526 1035 q 474 983 493 992 q 428 975 454 975 m 550 368 q 648 223 599 286 q 778 68 697 160 q 788 46 788 58 q 766 13 788 26 q 714 -1 744 -1 q 621 35 671 -1 q 542 119 576 67 q 461 257 507 172 q 418 333 425 322 q 249 306 364 311 q 257 178 249 258 q 265 57 265 94 q 241 15 265 32 q 186 -1 217 -1 q 131 28 150 -1 q 106 121 111 67 q 100 250 100 175 q 110 429 100 329 q 118 593 118 540 q 110 708 118 636 q 106 751 108 721 q 103 807 103 782 q 117 841 103 826 q 149 861 132 856 q 368 879 261 879 q 669 811 550 879 q 789 604 789 743 q 770 522 789 561 q 719 456 751 482 q 550 368 635 390 m 643 608 q 572 717 643 675 q 371 760 501 760 q 256 746 313 760 l 257 675 q 253 556 257 614 q 249 431 249 497 q 299 438 272 436 q 333 442 325 440 q 428 456 394 447 q 531 491 490 475 q 608 537 572 507 q 643 608 643 567 z "},"Ŗ":{"ha":839,"x_min":100,"x_max":789,"o":"m 550 368 q 648 223 599 286 q 778 68 697 160 q 788 46 788 58 q 766 13 788 26 q 714 -1 744 -1 q 621 35 671 -1 q 542 119 576 67 q 461 257 507 172 q 418 333 425 322 q 249 306 364 311 q 257 178 249 258 q 265 57 265 94 q 241 15 265 32 q 186 -1 217 -1 q 131 28 150 -1 q 106 121 111 67 q 100 250 100 175 q 110 429 100 329 q 118 593 118 540 q 110 708 118 636 q 106 751 108 721 q 103 807 103 782 q 117 841 103 826 q 149 861 132 856 q 368 879 261 879 q 669 811 550 879 q 789 604 789 743 q 770 522 789 561 q 719 456 751 482 q 550 368 635 390 m 643 608 q 572 717 643 675 q 371 760 501 760 q 256 746 313 760 l 257 675 q 253 556 257 614 q 249 431 249 497 q 299 438 272 436 q 333 442 325 440 q 428 456 394 447 q 531 491 490 475 q 608 537 572 507 q 643 608 643 567 m 404 -207 q 392 -206 401 -207 q 378 -201 383 -204 q 339 -133 339 -179 q 348 -100 339 -115 q 372 -79 357 -85 q 403 -68 385 -72 q 439 -64 422 -64 q 486 -86 469 -64 q 503 -143 503 -108 q 483 -222 503 -183 q 436 -283 463 -261 q 360 -332 385 -332 q 325 -326 332 -332 q 318 -300 318 -321 q 341 -272 318 -289 q 371 -249 364 -254 q 404 -207 390 -232 z "},"Ȑ":{"ha":839,"x_min":100,"x_max":789,"o":"m 238 1210 q 270 1201 260 1210 q 292 1176 281 1193 q 308 1151 303 1160 q 322 1133 315 1140 q 332 1119 328 1125 q 347 1100 336 1114 q 364 1074 357 1086 q 378 1031 378 1046 q 367 1016 378 1021 q 340 1011 356 1011 q 313 1018 326 1011 q 279 1046 300 1025 q 178 1178 178 1147 q 192 1203 178 1196 q 238 1210 207 1210 m 440 1210 q 474 1201 463 1210 q 496 1176 485 1193 q 513 1151 507 1160 l 535 1122 q 567 1074 556 1094 q 581 1031 581 1046 q 570 1016 581 1021 q 543 1011 560 1011 q 517 1018 529 1011 q 483 1046 504 1025 q 410 1124 440 1089 q 381 1178 381 1158 q 395 1203 381 1196 q 440 1210 410 1210 m 550 368 q 648 223 599 286 q 778 68 697 160 q 788 46 788 58 q 766 13 788 26 q 714 -1 744 -1 q 621 35 671 -1 q 542 119 576 67 q 461 257 507 172 q 418 333 425 322 q 249 306 364 311 q 257 178 249 258 q 265 57 265 94 q 241 15 265 32 q 186 -1 217 -1 q 131 28 150 -1 q 106 121 111 67 q 100 250 100 175 q 110 429 100 329 q 118 593 118 540 q 110 708 118 636 q 106 751 108 721 q 103 807 103 782 q 117 841 103 826 q 149 861 132 856 q 368 879 261 879 q 669 811 550 879 q 789 604 789 743 q 770 522 789 561 q 719 456 751 482 q 550 368 635 390 m 643 608 q 572 717 643 675 q 371 760 501 760 q 256 746 313 760 l 257 675 q 253 556 257 614 q 249 431 249 497 q 299 438 272 436 q 333 442 325 440 q 428 456 394 447 q 531 491 490 475 q 608 537 572 507 q 643 608 643 567 z "},"Ṛ":{"ha":839,"x_min":100,"x_max":789,"o":"m 550 368 q 648 223 599 286 q 778 68 697 160 q 788 46 788 58 q 766 13 788 26 q 714 -1 744 -1 q 621 35 671 -1 q 542 119 576 67 q 461 257 507 172 q 418 333 425 322 q 249 306 364 311 q 257 178 249 258 q 265 57 265 94 q 241 15 265 32 q 186 -1 217 -1 q 131 28 150 -1 q 106 121 111 67 q 100 250 100 175 q 110 429 100 329 q 118 593 118 540 q 110 708 118 636 q 106 751 108 721 q 103 807 103 782 q 117 841 103 826 q 149 861 132 856 q 368 879 261 879 q 669 811 550 879 q 789 604 789 743 q 770 522 789 561 q 719 456 751 482 q 550 368 635 390 m 643 608 q 572 717 643 675 q 371 760 501 760 q 256 746 313 760 l 257 675 q 253 556 257 614 q 249 431 249 497 q 299 438 272 436 q 333 442 325 440 q 428 456 394 447 q 531 491 490 475 q 608 537 572 507 q 643 608 643 567 m 481 -147 q 455 -200 481 -181 q 400 -219 429 -219 q 351 -203 371 -219 q 332 -161 332 -187 q 356 -101 332 -121 q 414 -82 379 -82 q 481 -147 481 -82 z "},"Ṝ":{"ha":839,"x_min":100,"x_max":789,"o":"m 357 981 q 299 978 329 981 q 260 976 268 976 q 226 985 235 976 q 218 1025 218 994 q 265 1069 218 1060 q 410 1078 311 1078 q 545 1073 493 1078 q 597 1053 597 1068 q 580 997 597 1010 q 513 985 563 985 l 357 981 m 550 368 q 648 223 599 286 q 778 68 697 160 q 788 46 788 58 q 766 13 788 26 q 714 -1 744 -1 q 621 35 671 -1 q 542 119 576 67 q 461 257 507 172 q 418 333 425 322 q 249 306 364 311 q 257 178 249 258 q 265 57 265 94 q 241 15 265 32 q 186 -1 217 -1 q 131 28 150 -1 q 106 121 111 67 q 100 250 100 175 q 110 429 100 329 q 118 593 118 540 q 110 708 118 636 q 106 751 108 721 q 103 807 103 782 q 117 841 103 826 q 149 861 132 856 q 368 879 261 879 q 669 811 550 879 q 789 604 789 743 q 770 522 789 561 q 719 456 751 482 q 550 368 635 390 m 643 608 q 572 717 643 675 q 371 760 501 760 q 256 746 313 760 l 257 675 q 253 556 257 614 q 249 431 249 497 q 299 438 272 436 q 333 442 325 440 q 428 456 394 447 q 531 491 490 475 q 608 537 572 507 q 643 608 643 567 m 482 -147 q 456 -200 482 -181 q 401 -219 431 -219 q 353 -203 372 -219 q 333 -161 333 -187 q 357 -101 333 -121 q 415 -82 381 -82 q 482 -147 482 -82 z "},"Ȓ":{"ha":839,"x_min":100,"x_max":789,"o":"m 622 1046 q 632 1011 632 1026 q 619 994 632 1003 q 590 985 607 985 q 572 990 581 985 q 550 1010 564 996 q 504 1044 533 1028 q 439 1060 475 1060 q 322 1004 369 1060 q 299 984 310 990 q 275 978 289 978 q 256 987 265 978 q 246 1008 246 996 q 253 1040 246 1026 q 315 1121 275 1088 q 436 1154 356 1154 q 622 1046 557 1154 m 550 368 q 648 223 599 286 q 778 68 697 160 q 788 46 788 58 q 766 13 788 26 q 714 -1 744 -1 q 621 35 671 -1 q 542 119 576 67 q 461 257 507 172 q 418 333 425 322 q 249 306 364 311 q 257 178 249 258 q 265 57 265 94 q 241 15 265 32 q 186 -1 217 -1 q 131 28 150 -1 q 106 121 111 67 q 100 250 100 175 q 110 429 100 329 q 118 593 118 540 q 110 708 118 636 q 106 751 108 721 q 103 807 103 782 q 117 841 103 826 q 149 861 132 856 q 368 879 261 879 q 669 811 550 879 q 789 604 789 743 q 770 522 789 561 q 719 456 751 482 q 550 368 635 390 m 643 608 q 572 717 643 675 q 371 760 501 760 q 256 746 313 760 l 257 675 q 253 556 257 614 q 249 431 249 497 q 299 438 272 436 q 333 442 325 440 q 428 456 394 447 q 531 491 490 475 q 608 537 572 507 q 643 608 643 567 z "},"Ṟ":{"ha":839,"x_min":100,"x_max":789,"o":"m 550 368 q 648 223 599 286 q 778 68 697 160 q 788 46 788 58 q 766 13 788 26 q 714 -1 744 -1 q 621 35 671 -1 q 542 119 576 67 q 461 257 507 172 q 418 333 425 322 q 249 306 364 311 q 257 178 249 258 q 265 57 265 94 q 241 15 265 32 q 186 -1 217 -1 q 131 28 150 -1 q 106 121 111 67 q 100 250 100 175 q 110 429 100 329 q 118 593 118 540 q 110 708 118 636 q 106 751 108 721 q 103 807 103 782 q 117 841 103 826 q 149 861 132 856 q 368 879 261 879 q 669 811 550 879 q 789 604 789 743 q 770 522 789 561 q 719 456 751 482 q 550 368 635 390 m 643 608 q 572 717 643 675 q 371 760 501 760 q 256 746 313 760 l 257 675 q 253 556 257 614 q 249 431 249 497 q 299 438 272 436 q 333 442 325 440 q 428 456 394 447 q 531 491 490 475 q 608 537 572 507 q 643 608 643 567 m 371 -187 q 313 -190 343 -187 q 274 -193 282 -193 q 240 -184 249 -193 q 232 -144 232 -175 q 278 -99 232 -108 q 422 -90 324 -90 q 559 -95 507 -90 q 611 -117 611 -100 q 594 -171 611 -158 q 526 -183 576 -183 l 371 -187 z "},"S":{"ha":781,"x_min":60,"x_max":724,"o":"m 724 251 q 694 140 724 186 q 596 54 664 93 q 489 13 550 26 q 365 -1 428 -1 q 207 40 301 -1 q 99 119 139 74 q 60 219 60 165 q 76 274 60 257 q 131 292 93 292 q 171 276 150 292 q 196 244 192 260 q 264 158 215 188 q 385 128 313 128 q 524 158 468 128 q 581 240 581 189 q 519 329 581 290 q 394 383 458 368 q 232 443 303 408 q 122 532 158 479 q 86 643 86 585 q 124 753 86 697 q 213 835 161 810 q 308 865 240 849 q 406 881 375 881 q 494 871 446 881 q 574 843 543 861 q 664 781 635 808 q 693 711 693 753 q 674 667 693 686 q 610 647 656 647 q 588 657 599 647 q 560 686 576 667 q 517 725 538 715 q 456 740 496 732 q 386 749 417 749 q 317 735 353 749 q 256 695 281 721 q 232 636 232 669 q 258 588 232 608 q 319 556 283 568 q 410 526 361 539 q 515 491 474 507 q 594 451 556 475 q 693 369 663 411 q 724 251 724 326 z "},"Ś":{"ha":783,"x_min":60,"x_max":724,"o":"m 486 1185 q 533 1172 515 1185 q 550 1140 550 1160 q 515 1067 550 1103 q 440 1010 479 1032 q 387 989 419 997 q 338 981 354 981 q 308 1008 308 981 q 314 1024 308 1017 q 338 1044 319 1031 q 355 1060 343 1050 q 378 1085 367 1071 q 400 1125 389 1100 q 437 1172 417 1158 q 486 1185 457 1185 m 724 251 q 694 140 724 186 q 596 54 664 93 q 489 13 550 26 q 365 -1 428 -1 q 207 40 301 -1 q 99 119 139 74 q 60 219 60 165 q 76 274 60 257 q 131 292 93 292 q 171 276 150 292 q 196 244 192 260 q 264 158 215 188 q 385 128 313 128 q 524 158 468 128 q 581 240 581 189 q 519 329 581 290 q 394 383 458 368 q 232 443 303 408 q 122 532 158 479 q 86 643 86 585 q 124 753 86 697 q 213 835 161 810 q 308 865 240 849 q 406 881 375 881 q 494 871 446 881 q 574 843 543 861 q 664 781 635 808 q 693 711 693 753 q 674 667 693 686 q 610 647 656 647 q 588 657 599 647 q 560 686 576 667 q 517 725 538 715 q 456 740 496 732 q 386 749 417 749 q 317 735 353 749 q 256 695 281 721 q 232 636 232 669 q 258 588 232 608 q 319 556 283 568 q 410 526 361 539 q 515 491 474 507 q 594 451 556 475 q 693 369 663 411 q 724 251 724 326 z "},"Š":{"ha":783,"x_min":60,"x_max":724,"o":"m 415 990 q 367 999 385 990 q 329 1029 350 1008 q 240 1122 306 1051 q 218 1149 226 1138 q 210 1167 210 1160 q 228 1191 210 1178 q 264 1204 246 1204 q 319 1187 296 1204 q 369 1135 342 1169 q 388 1113 375 1128 q 413 1089 400 1099 q 472 1149 432 1104 q 515 1191 499 1178 q 547 1204 531 1204 q 594 1191 571 1204 q 617 1167 617 1178 q 561 1096 617 1149 q 489 1018 514 1050 q 461 999 481 1007 q 415 990 442 990 m 724 251 q 694 140 724 186 q 596 54 664 93 q 489 13 550 26 q 365 -1 428 -1 q 207 40 301 -1 q 99 119 139 74 q 60 219 60 165 q 76 274 60 257 q 131 292 93 292 q 171 276 150 292 q 196 244 192 260 q 264 158 215 188 q 385 128 313 128 q 524 158 468 128 q 581 240 581 189 q 519 329 581 290 q 394 383 458 368 q 232 443 303 408 q 122 532 158 479 q 86 643 86 585 q 124 753 86 697 q 213 835 161 810 q 308 865 240 849 q 406 881 375 881 q 494 871 446 881 q 574 843 543 861 q 664 781 635 808 q 693 711 693 753 q 674 667 693 686 q 610 647 656 647 q 588 657 599 647 q 560 686 576 667 q 517 725 538 715 q 456 740 496 732 q 386 749 417 749 q 317 735 353 749 q 256 695 281 721 q 232 636 232 669 q 258 588 232 608 q 319 556 283 568 q 410 526 361 539 q 515 491 474 507 q 594 451 556 475 q 693 369 663 411 q 724 251 724 326 z "},"Ş":{"ha":783,"x_min":60,"x_max":724,"o":"m 290 -103 q 299 -78 290 -90 q 324 -49 308 -65 q 368 -1 340 -28 q 207 40 301 -1 q 99 119 139 74 q 60 219 60 165 q 76 274 60 257 q 131 292 93 292 q 171 276 150 292 q 196 244 192 260 q 264 158 215 188 q 385 128 313 128 q 524 158 468 128 q 581 240 581 189 q 519 329 581 290 q 394 383 458 368 q 232 443 303 408 q 122 532 158 479 q 86 643 86 585 q 124 753 86 697 q 213 835 161 810 q 308 865 240 849 q 406 881 375 881 q 494 871 446 881 q 574 843 543 861 q 664 781 635 808 q 693 711 693 753 q 674 667 693 686 q 610 647 656 647 q 588 657 599 647 q 560 686 576 667 q 517 725 538 715 q 456 740 496 732 q 386 749 417 749 q 317 735 353 749 q 256 695 281 721 q 232 636 232 669 q 258 588 232 608 q 319 556 283 568 q 410 526 361 539 q 515 491 474 507 q 594 451 556 475 q 693 369 663 411 q 724 251 724 326 q 694 140 724 186 q 596 54 664 93 q 472 8 551 25 q 407 -81 418 -62 q 498 -113 464 -86 q 532 -190 532 -140 q 475 -281 532 -236 q 420 -303 456 -294 q 339 -312 385 -312 q 281 -295 306 -312 q 256 -250 256 -278 q 267 -231 256 -239 q 289 -222 278 -222 q 317 -231 303 -222 q 342 -239 331 -239 q 378 -235 358 -239 q 410 -225 399 -231 q 426 -208 419 -219 q 433 -182 433 -196 q 398 -147 433 -154 q 322 -140 363 -140 q 301 -127 311 -140 q 290 -103 290 -114 z "},"Ŝ":{"ha":783,"x_min":60,"x_max":724,"o":"m 399 1179 q 449 1169 431 1179 q 481 1138 467 1160 q 522 1090 494 1117 q 574 1047 550 1064 q 604 1003 604 1025 q 592 978 604 990 q 563 965 579 965 q 477 997 515 965 q 401 1082 439 1029 q 325 1003 372 1040 q 239 965 278 965 q 207 977 217 965 q 197 1003 197 989 q 215 1035 197 1014 q 253 1074 232 1057 q 321 1143 292 1106 q 350 1169 333 1158 q 399 1179 367 1179 m 724 251 q 694 140 724 186 q 596 54 664 93 q 489 13 550 26 q 365 -1 428 -1 q 207 40 301 -1 q 99 119 139 74 q 60 219 60 165 q 76 274 60 257 q 131 292 93 292 q 171 276 150 292 q 196 244 192 260 q 264 158 215 188 q 385 128 313 128 q 524 158 468 128 q 581 240 581 189 q 519 329 581 290 q 394 383 458 368 q 232 443 303 408 q 122 532 158 479 q 86 643 86 585 q 124 753 86 697 q 213 835 161 810 q 308 865 240 849 q 406 881 375 881 q 494 871 446 881 q 574 843 543 861 q 664 781 635 808 q 693 711 693 753 q 674 667 693 686 q 610 647 656 647 q 588 657 599 647 q 560 686 576 667 q 517 725 538 715 q 456 740 496 732 q 386 749 417 749 q 317 735 353 749 q 256 695 281 721 q 232 636 232 669 q 258 588 232 608 q 319 556 283 568 q 410 526 361 539 q 515 491 474 507 q 594 451 556 475 q 693 369 663 411 q 724 251 724 326 z "},"Ș":{"ha":783,"x_min":60,"x_max":724,"o":"m 724 251 q 694 140 724 186 q 596 54 664 93 q 489 13 550 26 q 365 -1 428 -1 q 207 40 301 -1 q 99 119 139 74 q 60 219 60 165 q 76 274 60 257 q 131 292 93 292 q 171 276 150 292 q 196 244 192 260 q 264 158 215 188 q 385 128 313 128 q 524 158 468 128 q 581 240 581 189 q 519 329 581 290 q 394 383 458 368 q 232 443 303 408 q 122 532 158 479 q 86 643 86 585 q 124 753 86 697 q 213 835 161 810 q 308 865 240 849 q 406 881 375 881 q 494 871 446 881 q 574 843 543 861 q 664 781 635 808 q 693 711 693 753 q 674 667 693 686 q 610 647 656 647 q 588 657 599 647 q 560 686 576 667 q 517 725 538 715 q 456 740 496 732 q 386 749 417 749 q 317 735 353 749 q 256 695 281 721 q 232 636 232 669 q 258 588 232 608 q 319 556 283 568 q 410 526 361 539 q 515 491 474 507 q 594 451 556 475 q 693 369 663 411 q 724 251 724 326 m 389 -207 q 377 -206 386 -207 q 363 -201 368 -206 q 324 -133 324 -179 q 332 -100 324 -115 q 356 -79 340 -85 q 424 -64 383 -64 q 471 -87 454 -64 q 488 -143 488 -110 q 467 -222 488 -183 q 419 -283 446 -261 q 343 -332 368 -332 q 309 -326 317 -332 q 301 -300 301 -321 q 324 -273 301 -290 q 354 -249 346 -256 q 389 -207 372 -233 z "},"Ṡ":{"ha":783,"x_min":60,"x_max":724,"o":"m 481 1078 q 453 1022 481 1043 q 396 1001 426 1001 q 344 1019 365 1001 q 324 1064 324 1036 q 349 1126 324 1106 q 410 1147 374 1147 q 481 1078 481 1147 m 724 251 q 694 140 724 186 q 596 54 664 93 q 489 13 550 26 q 365 -1 428 -1 q 207 40 301 -1 q 99 119 139 74 q 60 219 60 165 q 76 274 60 257 q 131 292 93 292 q 171 276 150 292 q 196 244 192 260 q 264 158 215 188 q 385 128 313 128 q 524 158 468 128 q 581 240 581 189 q 519 329 581 290 q 394 383 458 368 q 232 443 303 408 q 122 532 158 479 q 86 643 86 585 q 124 753 86 697 q 213 835 161 810 q 308 865 240 849 q 406 881 375 881 q 494 871 446 881 q 574 843 543 861 q 664 781 635 808 q 693 711 693 753 q 674 667 693 686 q 610 647 656 647 q 588 657 599 647 q 560 686 576 667 q 517 725 538 715 q 456 740 496 732 q 386 749 417 749 q 317 735 353 749 q 256 695 281 721 q 232 636 232 669 q 258 588 232 608 q 319 556 283 568 q 410 526 361 539 q 515 491 474 507 q 594 451 556 475 q 693 369 663 411 q 724 251 724 326 z "},"Ṣ":{"ha":783,"x_min":60,"x_max":724,"o":"m 724 251 q 694 140 724 186 q 596 54 664 93 q 489 13 550 26 q 365 -1 428 -1 q 207 40 301 -1 q 99 119 139 74 q 60 219 60 165 q 76 274 60 257 q 131 292 93 292 q 171 276 150 292 q 196 244 192 260 q 264 158 215 188 q 385 128 313 128 q 524 158 468 128 q 581 240 581 189 q 519 329 581 290 q 394 383 458 368 q 232 443 303 408 q 122 532 158 479 q 86 643 86 585 q 124 753 86 697 q 213 835 161 810 q 308 865 240 849 q 406 881 375 881 q 494 871 446 881 q 574 843 543 861 q 664 781 635 808 q 693 711 693 753 q 674 667 693 686 q 610 647 656 647 q 588 657 599 647 q 560 686 576 667 q 517 725 538 715 q 456 740 496 732 q 386 749 417 749 q 317 735 353 749 q 256 695 281 721 q 232 636 232 669 q 258 588 232 608 q 319 556 283 568 q 410 526 361 539 q 515 491 474 507 q 594 451 556 475 q 693 369 663 411 q 724 251 724 326 m 481 -147 q 455 -200 481 -181 q 400 -219 429 -219 q 351 -203 371 -219 q 332 -161 332 -187 q 356 -101 332 -121 q 414 -82 379 -82 q 481 -147 481 -82 z "},"ẞ":{"ha":871,"x_min":97,"x_max":821,"o":"m 606 443 q 757 364 693 422 q 821 217 821 306 q 783 109 821 157 q 667 15 746 61 q 613 5 654 13 q 535 -3 571 -3 q 383 31 457 -3 q 326 104 326 57 l 328 117 q 345 153 329 139 q 379 167 361 167 q 410 159 393 167 q 438 147 428 151 q 486 129 468 135 q 524 124 504 124 q 641 144 606 124 q 676 218 676 164 q 628 306 676 271 q 506 357 581 340 q 469 364 494 361 q 431 374 442 368 q 419 397 419 379 q 428 428 419 415 q 449 451 436 440 q 468 469 461 463 q 508 508 476 478 q 562 567 539 539 q 601 624 585 596 q 574 691 601 661 q 508 738 546 721 q 443 756 471 756 q 308 710 354 756 q 246 581 263 664 q 241 487 243 564 q 239 363 239 410 q 243 197 239 264 q 246 78 246 119 q 221 15 246 33 q 164 -3 196 -3 q 115 27 133 -3 q 97 110 97 57 q 103 379 97 272 q 106 504 106 425 q 117 642 106 588 q 164 746 129 696 q 272 847 211 811 q 450 882 333 882 q 558 855 492 882 q 656 803 624 828 q 719 726 689 776 q 750 632 750 676 q 728 579 750 611 q 683 525 706 547 l 629 469 q 606 443 622 460 z "},"Ə":{"ha":901,"x_min":71,"x_max":829,"o":"m 717 749 q 795 597 761 696 q 829 399 829 499 q 772 188 829 272 q 613 29 714 103 q 547 4 588 10 q 443 -1 506 -1 q 316 16 378 -1 q 215 64 254 33 q 160 126 197 78 q 110 200 122 174 q 83 293 96 235 q 71 393 71 351 q 113 444 71 432 q 225 457 154 457 l 303 456 q 458 461 356 456 q 581 467 547 467 q 681 458 636 467 q 642 603 675 536 q 558 711 608 671 q 453 751 507 751 q 358 734 404 751 q 282 688 311 717 q 230 641 251 656 q 181 626 208 626 q 131 648 146 626 q 115 703 115 669 q 144 765 115 733 q 215 822 174 797 q 292 858 257 847 q 454 882 365 882 q 599 843 529 882 q 717 749 668 804 m 681 342 q 451 347 550 347 q 219 338 293 347 q 332 146 228 199 q 429 124 381 126 q 546 156 492 124 q 636 238 600 188 q 681 342 672 289 z "},"T":{"ha":779,"x_min":15,"x_max":764,"o":"m 15 810 q 103 869 15 869 q 246 867 140 869 q 422 861 363 861 q 540 867 471 861 q 600 869 588 869 q 729 842 676 867 q 754 825 744 835 q 764 793 764 815 q 744 741 764 763 q 697 719 725 719 q 608 728 667 719 q 518 738 557 738 q 461 736 481 738 q 457 517 457 690 q 469 97 457 310 l 472 57 q 407 0 472 0 q 338 24 356 0 q 319 99 319 49 q 314 344 319 197 q 308 518 308 467 q 317 731 308 553 l 154 729 q 46 744 76 729 q 15 810 15 758 z "},"Ŧ":{"ha":779,"x_min":15,"x_max":764,"o":"m 15 810 q 103 869 15 869 q 246 867 140 869 q 422 861 363 861 q 540 867 471 861 q 600 869 588 869 q 729 842 676 867 q 754 825 744 835 q 764 793 764 815 q 744 741 764 763 q 697 719 725 719 q 608 728 667 719 q 518 738 557 738 q 461 736 481 738 q 457 517 457 690 l 457 488 q 594 493 576 493 q 647 475 626 493 q 668 422 668 457 q 647 388 668 400 q 581 369 626 375 q 458 367 553 367 q 469 99 461 267 l 472 57 q 407 0 472 0 q 338 24 356 0 q 319 99 319 49 q 314 344 319 197 l 313 365 l 206 365 q 135 381 161 365 q 108 440 108 396 q 182 492 108 492 l 271 488 l 308 485 l 308 518 q 317 731 308 553 l 154 729 q 46 744 76 729 q 15 810 15 758 z "},"Ť":{"ha":779,"x_min":15,"x_max":764,"o":"m 390 975 q 342 984 360 975 q 304 1014 325 993 q 215 1107 281 1036 q 193 1133 201 1122 q 185 1151 185 1144 q 203 1176 185 1163 q 239 1189 221 1189 q 294 1172 271 1189 q 344 1119 317 1154 q 363 1098 350 1113 q 388 1074 375 1083 q 447 1133 407 1089 q 490 1176 474 1163 q 522 1189 506 1189 q 569 1176 546 1189 q 592 1151 592 1163 q 536 1081 592 1133 q 464 1003 489 1035 q 436 983 456 992 q 390 975 417 975 m 15 810 q 103 869 15 869 q 246 867 140 869 q 422 861 363 861 q 540 867 471 861 q 600 869 588 869 q 729 842 676 867 q 754 825 744 835 q 764 793 764 815 q 744 741 764 763 q 697 719 725 719 q 608 728 667 719 q 518 738 557 738 q 461 736 481 738 q 457 517 457 690 q 469 97 457 310 l 472 57 q 407 0 472 0 q 338 24 356 0 q 319 99 319 49 q 314 344 319 197 q 308 518 308 467 q 317 731 308 553 l 154 729 q 46 744 76 729 q 15 810 15 758 z "},"Ţ":{"ha":779,"x_min":15,"x_max":764,"o":"m 278 -103 q 287 -78 278 -90 q 311 -49 296 -65 q 364 6 346 -7 q 329 38 339 14 q 319 99 319 61 q 314 344 319 197 q 308 518 308 467 q 317 731 308 553 l 154 729 q 46 744 76 729 q 15 810 15 758 q 103 869 15 869 q 246 867 140 869 q 422 861 363 861 q 540 867 471 861 q 600 869 588 869 q 729 842 676 867 q 754 825 744 835 q 764 793 764 815 q 744 741 764 763 q 697 719 725 719 q 608 728 667 719 q 518 738 557 738 q 461 736 481 738 q 457 517 457 690 q 469 97 457 310 l 472 57 q 469 26 472 38 q 457 4 465 15 l 432 -29 l 394 -81 q 485 -113 451 -86 q 519 -190 519 -140 q 463 -281 519 -236 q 408 -303 443 -294 q 326 -312 372 -312 q 268 -295 293 -312 q 243 -250 243 -278 q 254 -231 243 -239 q 276 -222 265 -222 q 304 -231 290 -222 q 329 -239 318 -239 q 366 -235 346 -239 q 397 -225 386 -231 q 414 -208 407 -219 q 421 -182 421 -196 q 385 -147 421 -154 q 310 -140 350 -140 q 288 -127 299 -140 q 278 -103 278 -114 z "},"Ț":{"ha":779,"x_min":15,"x_max":764,"o":"m 15 810 q 103 869 15 869 q 246 867 140 869 q 422 861 363 861 q 540 867 471 861 q 600 869 588 869 q 729 842 676 867 q 754 825 744 835 q 764 793 764 815 q 744 741 764 763 q 697 719 725 719 q 608 728 667 719 q 518 738 557 738 q 461 736 481 738 q 457 517 457 690 q 469 97 457 310 l 472 57 q 407 0 472 0 q 338 24 356 0 q 319 99 319 49 q 314 344 319 197 q 308 518 308 467 q 317 731 308 553 l 154 729 q 46 744 76 729 q 15 810 15 758 m 381 -207 q 369 -206 378 -207 q 354 -201 360 -206 q 315 -133 315 -179 q 324 -100 315 -115 q 349 -79 333 -85 q 380 -68 361 -72 q 415 -64 399 -64 q 463 -86 446 -64 q 479 -143 479 -108 q 459 -222 479 -183 q 413 -283 439 -261 q 336 -332 361 -332 q 301 -326 308 -332 q 294 -300 294 -321 q 317 -272 294 -289 q 347 -249 340 -254 q 381 -207 367 -232 z "},"Ṭ":{"ha":779,"x_min":15,"x_max":764,"o":"m 15 810 q 103 869 15 869 q 246 867 140 869 q 422 861 363 861 q 540 867 471 861 q 600 869 588 869 q 729 842 676 867 q 754 825 744 835 q 764 793 764 815 q 744 741 764 763 q 697 719 725 719 q 608 728 667 719 q 518 738 557 738 q 461 736 481 738 q 457 517 457 690 q 469 97 457 310 l 472 57 q 407 0 472 0 q 338 24 356 0 q 319 99 319 49 q 314 344 319 197 q 308 518 308 467 q 317 731 308 553 l 154 729 q 46 744 76 729 q 15 810 15 758 m 472 -147 q 447 -200 472 -181 q 392 -219 421 -219 q 343 -203 363 -219 q 324 -161 324 -187 q 347 -101 324 -121 q 406 -82 371 -82 q 472 -147 472 -82 z "},"Ṯ":{"ha":779,"x_min":15,"x_max":764,"o":"m 15 810 q 103 869 15 869 q 246 867 140 869 q 422 861 363 861 q 540 867 471 861 q 600 869 588 869 q 729 842 676 867 q 754 825 744 835 q 764 793 764 815 q 744 741 764 763 q 697 719 725 719 q 608 728 667 719 q 518 738 557 738 q 461 736 481 738 q 457 517 457 690 q 469 97 457 310 l 472 57 q 407 0 472 0 q 338 24 356 0 q 319 99 319 49 q 314 344 319 197 q 308 518 308 467 q 317 731 308 553 l 154 729 q 46 744 76 729 q 15 810 15 758 m 349 -187 q 290 -190 321 -187 q 251 -193 260 -193 q 218 -184 226 -193 q 210 -144 210 -175 q 256 -99 210 -108 q 400 -90 301 -90 q 537 -95 485 -90 q 589 -117 589 -100 q 572 -171 589 -158 q 504 -183 554 -183 l 349 -187 z "},"U":{"ha":921,"x_min":90,"x_max":833,"o":"m 246 806 q 243 699 246 765 l 242 608 q 261 388 242 476 q 344 194 289 263 q 471 135 396 135 q 575 170 529 135 q 646 258 621 206 q 688 471 688 344 q 678 651 688 547 q 669 826 669 768 q 706 866 669 857 q 781 875 742 875 q 813 857 794 875 q 831 818 831 839 q 826 739 831 776 q 824 681 824 697 q 829 533 824 628 q 832 476 831 510 q 833 400 833 443 q 788 212 833 306 q 663 58 743 118 q 481 -3 582 -3 q 238 98 325 -3 q 118 358 150 199 q 95 550 100 450 q 90 818 90 650 q 112 860 90 840 q 158 879 133 879 q 246 806 246 879 z "},"Ú":{"ha":921,"x_min":90,"x_max":833,"o":"m 536 1200 q 583 1188 565 1200 q 600 1156 600 1175 q 565 1083 600 1118 q 490 1025 529 1047 q 437 1004 469 1013 q 388 996 404 996 q 358 1024 358 996 q 364 1039 358 1032 q 388 1060 369 1046 q 405 1076 393 1065 q 428 1101 417 1086 q 450 1140 439 1115 q 487 1187 467 1174 q 536 1200 507 1200 m 246 806 q 243 699 246 765 l 242 608 q 261 388 242 476 q 344 194 289 263 q 471 135 396 135 q 575 170 529 135 q 646 258 621 206 q 688 471 688 344 q 678 651 688 547 q 669 826 669 768 q 706 866 669 857 q 781 875 742 875 q 813 857 794 875 q 831 818 831 839 q 826 739 831 776 q 824 681 824 697 q 829 533 824 628 q 832 476 831 510 q 833 400 833 443 q 788 212 833 306 q 663 58 743 118 q 481 -3 582 -3 q 238 98 325 -3 q 118 358 150 199 q 95 550 100 450 q 90 818 90 650 q 112 860 90 840 q 158 879 133 879 q 246 806 246 879 z "},"Ŭ":{"ha":921,"x_min":90,"x_max":833,"o":"m 272 1090 q 265 1108 268 1097 q 261 1126 261 1119 q 276 1144 261 1135 q 308 1153 292 1153 q 353 1128 325 1153 q 396 1092 374 1106 q 454 1078 418 1078 q 513 1092 488 1078 q 561 1132 538 1106 q 584 1153 574 1147 q 608 1158 594 1158 q 634 1149 619 1158 q 649 1128 649 1140 q 640 1096 649 1113 q 578 1012 618 1047 q 457 976 538 976 q 272 1090 340 976 m 246 806 q 158 879 246 879 q 112 860 133 879 q 90 818 90 840 q 95 550 90 650 q 118 358 100 450 q 238 98 150 199 q 481 -3 325 -3 q 663 58 582 -3 q 788 212 743 118 q 833 400 833 306 q 832 476 833 443 q 829 533 831 510 q 824 681 824 628 q 826 739 824 697 q 831 818 831 776 q 813 857 831 839 q 781 875 794 875 q 706 866 742 875 q 669 826 669 857 q 678 651 669 768 q 688 471 688 547 q 646 258 688 344 q 575 170 621 206 q 471 135 529 135 q 344 194 396 135 q 261 388 289 263 q 242 608 242 476 l 243 699 q 246 806 246 765 z "},"Ǔ":{"ha":921,"x_min":90,"x_max":833,"o":"m 468 975 q 420 984 438 975 q 382 1014 403 993 q 293 1107 358 1035 q 271 1133 279 1122 q 263 1151 263 1144 q 281 1176 263 1163 q 317 1189 299 1189 q 372 1172 349 1189 q 422 1119 394 1154 q 440 1098 428 1113 q 465 1074 453 1083 q 525 1133 485 1089 q 567 1176 551 1163 q 600 1189 583 1189 q 647 1176 624 1189 q 669 1151 669 1163 q 614 1081 669 1133 q 542 1003 567 1035 q 514 983 533 992 q 468 975 494 975 m 246 806 q 243 699 246 765 l 242 608 q 261 388 242 476 q 344 194 289 263 q 471 135 396 135 q 575 170 529 135 q 646 258 621 206 q 688 471 688 344 q 678 651 688 547 q 669 826 669 768 q 706 866 669 857 q 781 875 742 875 q 813 857 794 875 q 831 818 831 839 q 826 739 831 776 q 824 681 824 697 q 829 533 824 628 q 832 476 831 510 q 833 400 833 443 q 788 212 833 306 q 663 58 743 118 q 481 -3 582 -3 q 238 98 325 -3 q 118 358 150 199 q 95 550 100 450 q 90 818 90 650 q 112 860 90 840 q 158 879 133 879 q 246 806 246 879 z "},"Û":{"ha":921,"x_min":90,"x_max":833,"o":"m 467 1194 q 517 1185 499 1194 q 549 1153 535 1175 q 590 1106 563 1132 q 642 1063 618 1079 q 672 1018 672 1040 q 660 993 672 1006 q 631 981 647 981 q 545 1013 583 981 q 469 1097 507 1044 q 393 1018 440 1056 q 307 981 346 981 q 275 992 285 981 q 265 1018 265 1004 q 283 1051 265 1029 q 321 1089 300 1072 q 389 1158 360 1121 q 418 1184 401 1174 q 467 1194 435 1194 m 246 806 q 243 699 246 765 l 242 608 q 261 388 242 476 q 344 194 289 263 q 471 135 396 135 q 575 170 529 135 q 646 258 621 206 q 688 471 688 344 q 678 651 688 547 q 669 826 669 768 q 706 866 669 857 q 781 875 742 875 q 813 857 794 875 q 831 818 831 839 q 826 739 831 776 q 824 681 824 697 q 829 533 824 628 q 832 476 831 510 q 833 400 833 443 q 788 212 833 306 q 663 58 743 118 q 481 -3 582 -3 q 238 98 325 -3 q 118 358 150 199 q 95 550 100 450 q 90 818 90 650 q 112 860 90 840 q 158 879 133 879 q 246 806 246 879 z "},"Ȕ":{"ha":921,"x_min":90,"x_max":833,"o":"m 278 1210 q 310 1201 300 1210 q 332 1176 321 1193 q 349 1151 343 1160 q 362 1133 356 1140 q 372 1119 368 1125 q 387 1100 376 1114 q 404 1074 397 1086 q 418 1031 418 1046 q 407 1016 418 1021 q 381 1011 396 1011 q 353 1018 367 1011 q 319 1046 340 1025 q 218 1178 218 1147 q 233 1203 218 1196 q 278 1210 247 1210 m 481 1210 q 514 1201 503 1210 q 536 1176 525 1193 q 553 1151 547 1160 l 575 1122 q 607 1074 596 1094 q 621 1031 621 1046 q 610 1016 621 1021 q 583 1011 600 1011 q 557 1018 569 1011 q 524 1046 544 1025 q 451 1124 481 1089 q 421 1178 421 1158 q 435 1203 421 1196 q 481 1210 450 1210 m 246 806 q 243 699 246 765 l 242 608 q 261 388 242 476 q 344 194 289 263 q 471 135 396 135 q 575 170 529 135 q 646 258 621 206 q 688 471 688 344 q 678 651 688 547 q 669 826 669 768 q 706 866 669 857 q 781 875 742 875 q 813 857 794 875 q 831 818 831 839 q 826 739 831 776 q 824 681 824 697 q 829 533 824 628 q 832 476 831 510 q 833 400 833 443 q 788 212 833 306 q 663 58 743 118 q 481 -3 582 -3 q 238 98 325 -3 q 118 358 150 199 q 95 550 100 450 q 90 818 90 650 q 112 860 90 840 q 158 879 133 879 q 246 806 246 879 z "},"Ü":{"ha":921,"x_min":90,"x_max":833,"o":"m 317 1156 q 385 1137 356 1156 q 415 1081 415 1118 q 392 1039 415 1054 q 335 1024 369 1024 q 288 1041 301 1024 q 275 1078 275 1058 q 283 1133 275 1110 q 317 1156 290 1156 m 551 1156 q 619 1137 589 1156 q 649 1081 649 1118 q 626 1039 649 1054 q 568 1024 603 1024 q 522 1041 535 1024 q 508 1078 508 1058 q 516 1133 508 1110 q 551 1156 524 1156 m 246 806 q 243 699 246 765 l 242 608 q 261 388 242 476 q 344 194 289 263 q 471 135 396 135 q 575 170 529 135 q 646 258 621 206 q 688 471 688 344 q 678 651 688 547 q 669 826 669 768 q 706 866 669 857 q 781 875 742 875 q 813 857 794 875 q 831 818 831 839 q 826 739 831 776 q 824 681 824 697 q 829 533 824 628 q 832 476 831 510 q 833 400 833 443 q 788 212 833 306 q 663 58 743 118 q 481 -3 582 -3 q 238 98 325 -3 q 118 358 150 199 q 95 550 100 450 q 90 818 90 650 q 112 860 90 840 q 158 879 133 879 q 246 806 246 879 z "}}}
